<svg width="216" height="214" viewBox="0 0 216 214" fill="none" xmlns="http://www.w3.org/2000/svg">
<path d="M110.555 104.76C110.405 104.75 110.265 104.74 110.125 104.74C107.355 104.74 105.315 106.76 104.375 107.69C102.245 109.79 101.555 113.27 101.625 117.1C102.955 117.86 104.255 118.65 105.515 119.5C115.205 112.96 121.435 103.15 124.055 90.18C125.075 85.14 127.235 70.5 120.715 61.02C119.405 61.47 118.265 62.22 117.725 63.37C116.855 65.25 117.895 67.53 118.235 68.28C119.845 71.83 122.825 73.91 122.825 73.91C122.825 73.91 122.375 73.85 121.735 73.85C120.595 73.85 118.835 74.03 117.785 75C116.035 76.62 117.085 80.35 117.255 80.97C118.685 86.07 123.465 89.1 123.265 89.32H123.245C123.005 89.32 121.265 87.26 119.185 87.26H119.045C115.855 87.4 113.755 92.42 113.525 92.98C110.875 99.53 114.875 106.44 115.845 108.01C115.355 107.35 113.475 104.96 110.545 104.74L110.555 104.76Z" fill="#FBB03B"/>
<path d="M80.8648 59.94C82.9948 59.94 85.2548 59.2 87.3448 57.5L87.4148 57.45C89.3848 55.92 91.1048 54.07 93.1248 52.61C96.8848 49.76 101.595 48.34 106.305 48.34C109.985 48.34 113.655 49.21 116.855 50.94C119.145 52.2 121.075 53.75 122.705 55.52C123.405 56.28 124.055 57.09 124.645 57.92C125.245 58.77 125.785 59.65 126.275 60.56C131.095 69.53 130.925 81.45 128.965 91.18C126.285 104.46 119.915 115.23 109.715 122.66C115.345 127.25 120.225 132.9 124.235 139.61C125.885 142.41 127.305 145.26 128.485 148.18C128.705 148.3 128.925 148.41 129.145 148.53C131.395 149.8 133.465 151.32 135.315 153.07C135.955 153.67 136.555 154.31 137.145 154.96C144.365 150.46 153.125 146.43 161.895 146.43C163.605 146.43 165.295 146.58 166.915 146.89C169.315 147.34 174.925 148.4 178.515 153.49C179.515 154.9 180.175 156.38 180.595 157.82C181.065 157.71 181.545 157.62 182.025 157.55C186.265 148.76 188.925 138.95 189.595 128.31C187.025 129.38 184.355 129.99 181.595 129.99C181.285 129.99 180.975 129.99 180.675 129.97C178.865 129.88 172.605 129.22 168.115 124.47C164.075 120.2 162.995 112.9 164.615 100.79C165.555 93.73 167.305 80.71 173.925 71.51C169.995 65.31 165.475 59.42 160.465 53.91C158.315 51.52 156.075 49.32 154.055 46.83C148.435 40.13 147.615 33.76 153.985 27.37C157.965 23.39 163.515 21.7 168.735 19.85C173.945 17.89 183.805 11.76 179.415 5.32C177.555 3.04 174.765 2.05 171.905 2.05C169.605 2.05 167.275 2.7 165.365 3.84C164.425 4.39 163.745 4.62 163.215 4.62C161.905 4.62 161.415 3.25 160.015 1.73C158.795 0.48 157.165 0 155.485 0C153.805 0 152.195 0.45 150.785 1.08C146.575 2.91 143.725 6.61 141.575 10.53C140.865 11.72 140.135 12.56 138.945 12.56C138.695 12.56 138.415 12.52 138.115 12.44C136.695 11.85 135.415 11.59 134.265 11.59C129.275 11.59 126.805 16.63 127.045 22.34C126.985 23.22 127.475 25.58 126.345 25.61C125.735 25.61 124.685 24.79 124.015 24.34C123.025 23.64 121.935 22.92 120.845 22.34C117.995 20.82 114.385 19.65 110.915 19.65C108.445 19.65 106.045 20.24 104.055 21.72C101.825 23.39 102.325 27.02 99.5948 27.02C99.2348 27.02 98.8248 26.96 98.3348 26.82C96.1148 26.16 93.7648 25.76 91.4348 25.76C89.2748 25.76 87.1248 26.1 85.1048 26.9C82.2748 28 79.5048 30.15 78.7248 33.19C77.5248 37.81 82.8748 39.49 79.3348 40.84C76.7848 41.8 74.1948 43.47 72.9148 45.99C69.1748 53.26 74.4548 59.95 80.8748 59.95L80.8648 59.94Z" fill="#FBB03B"/>
<path d="M211.845 62.26C210.775 61.59 209.555 61.38 208.455 61.38C206.885 61.38 205.535 61.8 205.125 61.93C201.165 63.17 198.195 66.84 197.395 71.46C196.735 70.46 194.665 67.61 191.175 66.94C190.675 66.84 190.185 66.8 189.705 66.8C186.945 66.8 184.675 68.25 183.355 69.11C182.135 69.91 181.025 70.86 180.025 71.93C179.425 72.56 178.855 73.23 178.325 73.94C177.765 74.68 177.255 75.46 176.765 76.26C171.845 84.39 170.365 95.47 169.565 101.44C167.635 115.86 170.365 119.56 171.745 121.02C175.135 124.6 180.105 124.92 180.925 124.96C181.155 124.97 181.375 124.98 181.605 124.98C184.375 124.98 187.115 124.14 189.775 122.66C190.605 122.2 191.425 121.67 192.235 121.09C193.065 120.49 193.885 119.83 194.695 119.11C204.535 110.39 212.365 93.53 214.505 79.53C215.145 75.36 216.685 65.26 211.865 62.25L211.845 62.26ZM190.445 163.58C188.815 162.76 187.025 162.36 185.195 162.32C185.105 162.32 185.015 162.31 184.925 162.31C184.015 162.31 183.105 162.41 182.185 162.6C180.995 162.84 179.815 163.23 178.665 163.78C177.755 164.21 176.865 164.73 176.015 165.35C176.275 163.95 176.865 159.82 174.435 156.38C172.055 153.01 168.145 152.21 165.985 151.81C164.635 151.56 163.265 151.44 161.885 151.44C154.405 151.44 146.705 154.94 140.175 158.96C143.235 163.69 145.195 169.34 145.825 175.43C146.685 183.63 145.035 192.09 141.295 198.63C140.265 200.44 139.025 202.13 137.625 203.74C152.715 203.33 171.465 195.8 183.925 186.3C187.905 183.27 197.525 175.93 195.885 169.41C195.005 165.9 191.205 163.99 190.435 163.6L190.445 163.58Z" fill="#FBB03B"/>
<path d="M141.035 178.63C141.005 177.73 140.945 176.83 140.855 175.94C140.385 171.45 139.085 167.03 136.865 163.11C136.795 162.99 136.725 162.88 136.655 162.76C135.359 160.522 133.75 158.481 131.875 156.7C131.665 156.5 131.455 156.32 131.235 156.14C131.175 156.09 131.115 156.03 131.055 155.98C129.985 155.05 128.895 154.24 127.795 153.55C127.425 153.32 127.055 153.09 126.685 152.88C126.615 152.84 126.555 152.81 126.485 152.78C125.915 152.47 125.345 152.18 124.785 151.92C124.695 151.88 124.615 151.84 124.525 151.8C124.325 151.71 124.125 151.61 123.925 151.53C123.623 151.402 123.349 151.215 123.119 150.98C122.889 150.745 122.709 150.468 122.587 150.163C122.465 149.858 122.405 149.532 122.41 149.204C122.414 148.875 122.484 148.551 122.615 148.25C122.685 148.09 122.765 147.94 122.865 147.8C121.976 145.872 120.992 143.989 119.915 142.16C109.085 124.04 91.8048 114.86 71.6248 113.68C70.6048 113.6 69.6048 113.57 68.6148 113.57C63.2648 113.57 58.4548 114.52 53.3248 114.52C52.1148 114.52 50.8948 114.47 49.6448 114.34C37.8648 113.35 28.7348 104.57 28.5848 92.5C28.3748 77.47 40.9548 65.15 55.7748 64.24C58.7148 63.85 63.3148 64.44 65.3548 62.46L65.3848 62.43C67.0948 60.02 62.9548 57.1 59.9948 56.17C57.7348 55.54 55.5448 55.31 53.3148 55.31C50.7748 55.31 48.1748 55.6 45.3248 55.94C32.4548 57.71 21.2648 63.86 12.6748 73.47C5.16477 81.77 0.444769 92.86 0.0247695 104.18C-0.715231 128.12 15.1948 151.07 38.4748 153.72C40.9048 154.2 48.0148 153.89 48.5248 156.23C48.4248 158.76 43.7348 160.32 41.3448 160.92C38.7648 161.54 36.0248 161.75 33.3548 161.75H32.9648C29.4148 161.75 26.6248 161.27 24.1648 161.27C23.7848 161.27 23.4048 161.28 23.0448 161.31C20.9748 161.45 20.7548 162.85 21.4648 164.66C22.4548 167.17 24.0348 169.74 25.6748 172.24C29.6948 178.36 35.1448 184.31 41.0748 188.93C49.5648 195.64 60.2548 201.01 71.2148 204.18C68.2148 198.84 67.4348 192.19 68.9348 184.36C69.7448 180.13 71.1748 175.76 73.1948 171.36C75.6948 165.91 79.3648 160.74 83.8148 156.4C84.8048 155.44 86.3848 155.45 87.3548 156.44C88.3148 157.43 88.2948 159.01 87.3148 159.98C83.2148 163.98 79.9248 168.7 77.7448 173.45C77.7048 173.53 77.6648 173.63 77.6148 173.74C77.4248 174.15 77.1548 174.76 76.8448 175.52C76.3224 176.783 75.8455 178.063 75.4148 179.36C75.3948 179.42 75.3748 179.49 75.3548 179.56C75.2048 180.01 75.0648 180.47 74.9248 180.95V180.92C74.8948 181.02 74.8648 181.1 74.8348 181.2C74.6548 181.84 74.4748 182.5 74.3048 183.19C74.3648 182.92 74.4448 182.68 74.5148 182.41C74.2748 183.34 74.0448 184.29 73.8448 185.3C73.7248 185.95 73.6148 186.61 73.5248 187.27C73.4948 187.47 73.4748 187.66 73.4548 187.86C73.3948 188.36 73.3448 188.87 73.3048 189.38C73.2848 189.59 73.2748 189.79 73.2648 190C73.2231 190.689 73.2064 191.38 73.2148 192.07C73.2248 192.85 73.2648 193.63 73.3448 194.4V194.41C73.3648 194.59 73.3948 194.76 73.4148 194.94C73.4948 195.53 73.5848 196.12 73.7048 196.71C73.7148 196.76 73.7348 196.81 73.7448 196.86C74.2348 199.08 75.1048 201.22 76.4748 203.17L76.4948 203.19C76.8148 203.65 77.1648 204.08 77.5348 204.51C77.6548 204.65 77.8048 204.79 77.9348 204.93C78.1948 205.21 78.4548 205.49 78.7348 205.76C78.8448 205.87 78.9748 205.97 79.0848 206.07C79.1448 206.12 79.1948 206.17 79.2548 206.22C79.5148 206.45 79.7848 206.69 80.0648 206.91C80.2548 207.07 80.4648 207.21 80.6648 207.36C80.9448 207.57 81.2248 207.77 81.5148 207.97C81.7348 208.12 81.9648 208.25 82.1848 208.39C82.4748 208.57 82.7748 208.76 83.0848 208.93C83.3048 209.05 83.5348 209.17 83.7648 209.29C83.7848 209.29 83.8048 209.31 83.8248 209.32C84.1348 209.48 84.4448 209.65 84.7648 209.8C85.0248 209.92 85.2848 210.04 85.5548 210.16C85.8848 210.3 86.2048 210.45 86.5448 210.58C86.8148 210.69 87.0948 210.79 87.3748 210.9C87.7148 211.03 88.0548 211.15 88.4048 211.26C89.0453 211.476 89.6923 211.673 90.3448 211.85C90.6448 211.93 90.9448 212.01 91.2548 212.08C91.6048 212.17 91.9648 212.25 92.3148 212.32C92.3348 212.32 92.3448 212.32 92.3648 212.33C92.6748 212.4 92.9848 212.46 93.2948 212.52C93.6748 212.59 94.0548 212.66 94.4348 212.72L95.3848 212.87C95.7748 212.92 96.1648 212.97 96.5648 213.01C96.8848 213.05 97.2048 213.08 97.5348 213.11C97.9348 213.15 98.3448 213.17 98.7448 213.2L99.7148 213.26C100.125 213.28 100.545 213.29 100.965 213.3C101.285 213.3 101.605 213.32 101.935 213.32C102.365 213.32 102.795 213.31 103.225 213.3C103.535 213.3 103.845 213.29 104.165 213.28C104.515 213.27 104.855 213.24 105.205 213.21C105.655 213.18 106.095 213.16 106.545 213.11C106.895 213.08 107.255 213.03 107.605 212.99C108.045 212.94 108.475 212.89 108.915 212.83C109.275 212.78 109.635 212.72 109.995 212.66C110.425 212.59 110.855 212.52 111.285 212.44C111.645 212.37 112.005 212.3 112.355 212.22C112.775 212.13 113.205 212.04 113.625 211.94C113.985 211.86 114.335 211.76 114.695 211.67C115.467 211.47 116.234 211.25 116.995 211.01C117.752 210.774 118.502 210.517 119.245 210.24C119.645 210.09 120.045 209.94 120.435 209.77C120.775 209.63 121.105 209.49 121.435 209.35C121.825 209.18 122.215 209 122.595 208.82C122.925 208.67 123.245 208.51 123.565 208.35C123.945 208.16 124.315 207.96 124.685 207.75C124.995 207.58 125.305 207.41 125.615 207.23C125.985 207.02 126.345 206.79 126.695 206.56C126.995 206.37 127.285 206.19 127.575 205.99C127.925 205.75 128.275 205.5 128.615 205.25C128.895 205.05 129.175 204.85 129.445 204.64C129.785 204.38 130.115 204.1 130.445 203.82C130.695 203.61 130.955 203.4 131.205 203.17C131.535 202.88 131.845 202.56 132.165 202.26C132.395 202.04 132.625 201.82 132.845 201.59C133.165 201.26 133.465 200.9 133.775 200.56C133.965 200.34 134.175 200.12 134.365 199.89C134.695 199.49 134.995 199.07 135.305 198.65C135.445 198.45 135.605 198.27 135.735 198.07C136.165 197.44 136.575 196.8 136.955 196.13C137.375 195.39 137.765 194.61 138.125 193.81C138.135 193.79 138.145 193.76 138.155 193.74C140.185 189.22 141.195 183.95 141.035 178.63ZM69.5848 164.97H69.4048C67.7248 164.97 66.3148 163.65 66.2148 161.95C66.1548 161.05 65.6748 158.16 64.2548 156.91C63.0048 155.8 60.0648 155.74 58.8248 155.89C57.0848 156.09 55.4848 154.85 55.2748 153.1C55.1713 152.262 55.4051 151.417 55.9245 150.751C56.444 150.086 57.2067 149.653 58.0448 149.55C58.7148 149.47 64.7548 148.82 68.4848 152.13C72.1348 155.37 72.5448 160.97 72.5848 161.6C72.6848 163.36 71.3348 164.87 69.5748 164.97H69.5848Z" fill="#FBB03B"/>
<path d="M45.4438 84.8718C44.4521 81.9459 46.6289 78.7601 50.9826 78.2147C54.9067 77.7431 58.4134 80.0182 58.0093 83.5462C57.6135 87.7348 53.4965 88.1495 51.9075 91.3666C53.6578 91.168 54.9268 90.8624 57.4256 90.4643C57.5058 91.7832 57.586 93.102 57.6662 94.4209C50.5693 94.9235 52.3069 94.8256 47.8822 95.2904C46.1497 89.5817 52.822 86.7036 53.568 84.0734C54.0479 82.3272 52.6524 80.9493 50.9278 81.3399C49.4168 81.6617 48.8216 82.7341 49.2284 84.6959C47.9697 84.742 46.7103 84.8008 45.4497 84.8785L45.4438 84.8718Z" fill="#F7931E"/>
<path d="M60.45 85.1305C60.5636 80.0036 64.3815 77.0375 69.1126 77.6268C73.0943 78.0348 75.8177 81.0528 75.3136 86.0404C74.5781 93.2471 70.3196 94.4841 67.4231 94.2601C64.1379 93.9666 60.3064 91.6136 60.4433 85.1364L60.45 85.1305ZM64.6717 86.2456C64.7764 88.2705 65.8322 89.7028 67.6799 89.8658C69.7747 90.0321 70.835 88.4311 70.9401 85.7089C71.0281 83.4489 69.8021 81.9993 68.2252 81.8663C65.988 81.6465 64.4334 83.0445 64.6717 86.2456Z" fill="#F7931E"/>
<path d="M77.7958 83.9203C77.4601 80.8525 80.2865 78.2162 84.629 78.6346C88.548 79.0322 91.476 82.0253 90.3099 85.3712C89.0069 89.3682 84.91 88.8767 82.6569 91.6704C84.4074 91.8653 85.703 91.8343 88.2293 91.9965C88.0186 93.303 87.8083 94.6032 87.5975 95.9097C80.5756 94.8496 82.2888 95.1309 77.8829 94.6132C77.4468 88.664 84.5661 87.3188 85.862 84.9142C86.7127 83.3188 85.6521 81.6641 83.8887 81.6714C82.3491 81.6488 81.535 82.5738 81.5019 84.5708C80.2675 84.3392 79.0322 84.1203 77.7958 83.9203Z" fill="#F7931E"/>
<path d="M91.6926 92.8787C92.8352 92.5649 93.9834 92.2642 95.1433 91.9769C94.949 92.9291 95.1925 94.5694 96.9469 94.9994C98.3217 95.3161 99.4435 94.0427 99.4609 92.6857C99.492 90.2253 96.8614 89.022 93.1004 89.7197C93.1004 89.7197 94.6847 81.5394 94.9012 80.7347C94.9029 80.7094 101.029 81.6993 105.202 82.97C104.825 84.1071 104.448 85.2443 104.077 86.3819C104.084 86.3696 100.381 84.8816 97.7633 84.3582C97.4733 85.4184 97.1769 86.4783 96.8936 87.5326C100.737 87.3351 104.085 89.8094 103.478 93.426C102.815 97.4387 99.2939 99.2372 95.9268 98.1452C92.9267 97.1656 91.8819 95.2644 91.6918 92.8913L91.6926 92.8787Z" fill="#F7931E"/>
</svg>
