<svg width="216" height="214" viewBox="0 0 216 214" fill="none" xmlns="http://www.w3.org/2000/svg">
<path d="M104.699 104.76C104.849 104.75 104.989 104.74 105.129 104.74C107.899 104.74 109.939 106.76 110.879 107.69C113.009 109.79 113.699 113.27 113.629 117.1C112.299 117.86 110.999 118.65 109.739 119.5C100.049 112.96 93.8191 103.15 91.1991 90.18C90.1791 85.14 88.0191 70.5 94.5391 61.02C95.8491 61.47 96.9891 62.22 97.5291 63.37C98.3991 65.25 97.3591 67.53 97.0191 68.28C95.4091 71.83 92.4291 73.91 92.4291 73.91C92.4291 73.91 92.8791 73.85 93.5191 73.85C94.6591 73.85 96.4191 74.03 97.4691 75C99.2191 76.62 98.1691 80.35 97.9991 80.97C96.5691 86.07 91.7891 89.1 91.9891 89.32H92.0091C92.2491 89.32 93.9891 87.26 96.0691 87.26H96.2091C99.3991 87.4 101.499 92.42 101.729 92.98C104.379 99.53 100.379 106.44 99.4091 108.01C99.8991 107.35 101.779 104.96 104.709 104.74L104.699 104.76Z" fill="#FBB03B"/>
<path d="M134.389 59.94C132.259 59.94 129.999 59.2 127.909 57.5L127.839 57.45C125.869 55.92 124.149 54.07 122.129 52.61C118.369 49.76 113.659 48.34 108.949 48.34C105.269 48.34 101.599 49.21 98.3991 50.94C96.1091 52.2 94.1791 53.75 92.5491 55.52C91.8491 56.28 91.1991 57.09 90.6091 57.92C90.0091 58.77 89.4691 59.65 88.9791 60.56C84.1591 69.53 84.3291 81.45 86.2891 91.18C88.9691 104.46 95.3391 115.23 105.539 122.66C99.9091 127.25 95.0291 132.9 91.0191 139.61C89.3691 142.41 87.9492 145.26 86.7691 148.18C86.5491 148.3 86.3291 148.41 86.1091 148.53C83.8591 149.8 81.7892 151.32 79.9391 153.07C79.2991 153.67 78.6991 154.31 78.1091 154.96C70.8891 150.46 62.1291 146.43 53.3591 146.43C51.6491 146.43 49.9591 146.58 48.3391 146.89C45.9391 147.34 40.3291 148.4 36.7391 153.49C35.7391 154.9 35.0791 156.38 34.6591 157.82C34.1891 157.71 33.7091 157.62 33.2291 157.55C28.9891 148.76 26.3291 138.95 25.6591 128.31C28.2291 129.38 30.8991 129.99 33.6591 129.99C33.9691 129.99 34.2791 129.99 34.5791 129.97C36.3891 129.88 42.6491 129.22 47.1391 124.47C51.1791 120.2 52.2591 112.9 50.6391 100.79C49.6991 93.73 47.9491 80.71 41.3291 71.51C45.2591 65.31 49.7791 59.42 54.7891 53.91C56.9391 51.52 59.1791 49.32 61.1991 46.83C66.8191 40.13 67.6391 33.76 61.2691 27.37C57.2891 23.39 51.7391 21.7 46.5191 19.85C41.3091 17.89 31.4491 11.76 35.8391 5.32C37.6991 3.04 40.4891 2.05 43.3491 2.05C45.6491 2.05 47.9791 2.7 49.8891 3.84C50.8291 4.39 51.5091 4.62 52.0391 4.62C53.3491 4.62 53.8391 3.25 55.2391 1.73C56.4591 0.48 58.0891 0 59.7691 0C61.4491 0 63.0591 0.45 64.4691 1.08C68.6791 2.91 71.5291 6.61 73.6791 10.53C74.3891 11.72 75.1191 12.56 76.3091 12.56C76.5591 12.56 76.8391 12.52 77.1391 12.44C78.5591 11.85 79.8392 11.59 80.9892 11.59C85.9792 11.59 88.4491 16.63 88.2091 22.34C88.2691 23.22 87.7791 25.58 88.9091 25.61C89.5191 25.61 90.5691 24.79 91.2391 24.34C92.2291 23.64 93.3191 22.92 94.4091 22.34C97.2591 20.82 100.869 19.65 104.339 19.65C106.809 19.65 109.209 20.24 111.199 21.72C113.429 23.39 112.929 27.02 115.659 27.02C116.019 27.02 116.429 26.96 116.919 26.82C119.139 26.16 121.489 25.76 123.819 25.76C125.979 25.76 128.129 26.1 130.149 26.9C132.979 28 135.749 30.15 136.529 33.19C137.729 37.81 132.379 39.49 135.919 40.84C138.469 41.8 141.059 43.47 142.339 45.99C146.079 53.26 140.799 59.95 134.379 59.95L134.389 59.94Z" fill="#FBB03B"/>
<path d="M3.40913 62.26C4.47914 61.59 5.69913 61.38 6.79913 61.38C8.36914 61.38 9.71913 61.8 10.1291 61.93C14.0891 63.17 17.0591 66.84 17.8591 71.46C18.5191 70.46 20.5891 67.61 24.0791 66.94C24.5791 66.84 25.0691 66.8 25.5491 66.8C28.3091 66.8 30.5791 68.25 31.8991 69.11C33.1191 69.91 34.2291 70.86 35.2291 71.93C35.8291 72.56 36.3991 73.23 36.9291 73.94C37.4891 74.68 37.9991 75.46 38.4891 76.26C43.4091 84.39 44.8891 95.47 45.6891 101.44C47.6191 115.86 44.8891 119.56 43.5091 121.02C40.1191 124.6 35.1491 124.92 34.3291 124.96C34.0991 124.97 33.8791 124.98 33.6491 124.98C30.8791 124.98 28.1391 124.14 25.4791 122.66C24.6491 122.2 23.8291 121.67 23.0191 121.09C22.1891 120.49 21.3691 119.83 20.5591 119.11C10.7191 110.39 2.88913 93.53 0.74913 79.53C0.109131 75.36 -1.43088 65.26 3.38913 62.25L3.40913 62.26ZM24.8091 163.58C26.4391 162.76 28.2291 162.36 30.0591 162.32C30.1491 162.32 30.2391 162.31 30.3291 162.31C31.2391 162.31 32.1491 162.41 33.0691 162.6C34.2591 162.84 35.4391 163.23 36.5891 163.78C37.4991 164.21 38.3891 164.73 39.2391 165.35C38.9791 163.95 38.3891 159.82 40.8191 156.38C43.1991 153.01 47.1091 152.21 49.2691 151.81C50.6191 151.56 51.9891 151.44 53.3691 151.44C60.8491 151.44 68.5491 154.94 75.0791 158.96C72.0191 163.69 70.0591 169.34 69.4291 175.43C68.5691 183.63 70.2191 192.09 73.9591 198.63C74.9891 200.44 76.2291 202.13 77.6291 203.74C62.5391 203.33 43.7891 195.8 31.3291 186.3C27.3491 183.27 17.7291 175.93 19.3691 169.41C20.2491 165.9 24.0491 163.99 24.8191 163.6L24.8091 163.58Z" fill="#FBB03B"/>
<path d="M74.2191 178.63C74.2491 177.73 74.3091 176.83 74.3991 175.94C74.8691 171.45 76.1691 167.03 78.3891 163.11C78.4591 162.99 78.5291 162.88 78.5991 162.76C79.8946 160.522 81.5043 158.481 83.3791 156.7C83.5891 156.5 83.7991 156.32 84.0191 156.14C84.0791 156.09 84.1391 156.03 84.1991 155.98C85.2691 155.05 86.3591 154.24 87.4591 153.55C87.8291 153.32 88.1991 153.09 88.5691 152.88C88.6391 152.84 88.6991 152.81 88.7691 152.78C89.3391 152.47 89.9091 152.18 90.4691 151.92C90.5591 151.88 90.6391 151.84 90.7291 151.8C90.9291 151.71 91.1291 151.61 91.3291 151.53C91.6313 151.402 91.9051 151.215 92.1348 150.98C92.3644 150.745 92.5453 150.468 92.6671 150.163C92.7889 149.858 92.8491 149.532 92.8443 149.204C92.8395 148.875 92.7698 148.551 92.6391 148.25C92.5691 148.09 92.4891 147.94 92.3891 147.8C93.2774 145.872 94.262 143.989 95.3391 142.16C106.169 124.04 123.449 114.86 143.629 113.68C144.649 113.6 145.649 113.57 146.639 113.57C151.989 113.57 156.799 114.52 161.929 114.52C163.139 114.52 164.359 114.47 165.609 114.34C177.389 113.35 186.519 104.57 186.669 92.5C186.879 77.47 174.299 65.15 159.479 64.24C156.539 63.85 151.939 64.44 149.899 62.46L149.869 62.43C148.159 60.02 152.299 57.1 155.259 56.17C157.519 55.54 159.709 55.31 161.939 55.31C164.479 55.31 167.079 55.6 169.929 55.94C182.799 57.71 193.989 63.86 202.579 73.47C210.089 81.77 214.809 92.86 215.229 104.18C215.969 128.12 200.059 151.07 176.779 153.72C174.349 154.2 167.239 153.89 166.729 156.23C166.829 158.76 171.519 160.32 173.909 160.92C176.489 161.54 179.229 161.75 181.899 161.75H182.289C185.839 161.75 188.629 161.27 191.089 161.27C191.469 161.27 191.849 161.28 192.209 161.31C194.279 161.45 194.499 162.85 193.789 164.66C192.799 167.17 191.219 169.74 189.579 172.24C185.559 178.36 180.109 184.31 174.179 188.93C165.689 195.64 154.999 201.01 144.039 204.18C147.039 198.84 147.819 192.19 146.319 184.36C145.509 180.13 144.079 175.76 142.059 171.36C139.559 165.91 135.889 160.74 131.439 156.4C130.449 155.44 128.869 155.45 127.899 156.44C126.939 157.43 126.959 159.01 127.939 159.98C132.039 163.98 135.329 168.7 137.509 173.45C137.549 173.53 137.589 173.63 137.639 173.74C137.829 174.15 138.099 174.76 138.409 175.52C138.931 176.783 139.408 178.063 139.839 179.36C139.859 179.42 139.879 179.49 139.899 179.56C140.049 180.01 140.189 180.47 140.329 180.95V180.92C140.359 181.02 140.389 181.1 140.419 181.2C140.599 181.84 140.779 182.5 140.949 183.19C140.889 182.92 140.809 182.68 140.739 182.41C140.979 183.34 141.209 184.29 141.409 185.3C141.529 185.95 141.639 186.61 141.729 187.27C141.759 187.47 141.779 187.66 141.799 187.86C141.859 188.36 141.909 188.87 141.949 189.38C141.969 189.59 141.979 189.79 141.989 190C142.031 190.689 142.047 191.38 142.039 192.07C142.029 192.85 141.989 193.63 141.909 194.4V194.41C141.889 194.59 141.859 194.76 141.839 194.94C141.759 195.53 141.669 196.12 141.549 196.71C141.539 196.76 141.519 196.81 141.509 196.86C141.019 199.08 140.149 201.22 138.779 203.17L138.759 203.19C138.439 203.65 138.089 204.08 137.719 204.51C137.599 204.65 137.449 204.79 137.319 204.93C137.059 205.21 136.799 205.49 136.519 205.76C136.409 205.87 136.279 205.97 136.169 206.07C136.109 206.12 136.059 206.17 135.999 206.22C135.739 206.45 135.469 206.69 135.189 206.91C134.999 207.07 134.789 207.21 134.589 207.36C134.309 207.57 134.029 207.77 133.739 207.97C133.519 208.12 133.289 208.25 133.069 208.39C132.779 208.57 132.479 208.76 132.169 208.93C131.949 209.05 131.719 209.17 131.489 209.29C131.469 209.29 131.449 209.31 131.429 209.32C131.119 209.48 130.809 209.65 130.489 209.8C130.229 209.92 129.969 210.04 129.699 210.16C129.369 210.3 129.049 210.45 128.709 210.58C128.439 210.69 128.159 210.79 127.879 210.9C127.539 211.03 127.199 211.15 126.849 211.26C126.209 211.476 125.562 211.673 124.909 211.85C124.609 211.93 124.309 212.01 123.999 212.08C123.649 212.17 123.289 212.25 122.939 212.32C122.919 212.32 122.909 212.32 122.889 212.33C122.579 212.4 122.269 212.46 121.959 212.52C121.579 212.59 121.199 212.66 120.819 212.72L119.869 212.87C119.479 212.92 119.089 212.97 118.689 213.01C118.369 213.05 118.049 213.08 117.719 213.11C117.319 213.15 116.909 213.17 116.509 213.2L115.539 213.26C115.129 213.28 114.709 213.29 114.289 213.3C113.969 213.3 113.649 213.32 113.319 213.32C112.889 213.32 112.459 213.31 112.029 213.3C111.719 213.3 111.409 213.29 111.089 213.28C110.739 213.27 110.399 213.24 110.049 213.21C109.599 213.18 109.159 213.16 108.709 213.11C108.359 213.08 107.999 213.03 107.649 212.99C107.209 212.94 106.779 212.89 106.339 212.83C105.979 212.78 105.619 212.72 105.259 212.66C104.829 212.59 104.399 212.52 103.969 212.44C103.609 212.37 103.249 212.3 102.899 212.22C102.479 212.13 102.049 212.04 101.629 211.94C101.269 211.86 100.919 211.76 100.559 211.67C99.7867 211.47 99.0198 211.25 98.2591 211.01C97.5023 210.774 96.752 210.517 96.0091 210.24C95.6091 210.09 95.2091 209.94 94.8191 209.77C94.4791 209.63 94.1491 209.49 93.8191 209.35C93.4291 209.18 93.0391 209 92.6591 208.82C92.3291 208.67 92.0091 208.51 91.6891 208.35C91.3091 208.16 90.9391 207.96 90.5691 207.75C90.2591 207.58 89.9491 207.41 89.6391 207.23C89.2691 207.02 88.9091 206.79 88.5591 206.56C88.2591 206.37 87.9691 206.19 87.6791 205.99C87.3291 205.75 86.9791 205.5 86.6391 205.25C86.3591 205.05 86.0791 204.85 85.8091 204.64C85.4691 204.38 85.1391 204.1 84.8091 203.82C84.5591 203.61 84.2991 203.4 84.0491 203.17C83.7191 202.88 83.4091 202.56 83.0891 202.26C82.8591 202.04 82.6291 201.82 82.4091 201.59C82.0891 201.26 81.7891 200.9 81.4791 200.56C81.2891 200.34 81.0791 200.12 80.8891 199.89C80.5591 199.49 80.2591 199.07 79.9491 198.65C79.8091 198.45 79.6491 198.27 79.5191 198.07C79.0891 197.44 78.6791 196.8 78.2991 196.13C77.8791 195.39 77.4891 194.61 77.1291 193.81C77.1191 193.79 77.1091 193.76 77.0991 193.74C75.0691 189.22 74.0591 183.95 74.2191 178.63ZM145.669 164.97H145.849C147.529 164.97 148.939 163.65 149.039 161.95C149.099 161.05 149.579 158.16 150.999 156.91C152.249 155.8 155.189 155.74 156.429 155.89C158.169 156.09 159.769 154.85 159.979 153.1C160.083 152.262 159.849 151.417 159.329 150.751C158.81 150.086 158.047 149.653 157.209 149.55C156.539 149.47 150.499 148.82 146.769 152.13C143.119 155.37 142.709 160.97 142.669 161.6C142.569 163.36 143.919 164.87 145.679 164.97H145.669Z" fill="#FBB03B"/>
</svg>
