<svg width="36" height="36" viewBox="0 0 36 36" fill="none" xmlns="http://www.w3.org/2000/svg">
<path d="M27.2494 2.0918H8.93215C5.20395 2.0918 2.18164 5.1141 2.18164 8.8423V27.1595C2.18164 30.8877 5.20395 33.9101 8.93215 33.9101H27.2494C30.9776 33.9101 33.9999 30.8877 33.9999 27.1595V8.8423C33.9999 5.1141 30.9776 2.0918 27.2494 2.0918Z" fill="white"/>
<path d="M11.1816 11.2184C13.8559 11.2184 17.5167 11.0821 20.1455 11.1535C23.6701 11.2444 25.0007 12.7827 25.0461 16.5734C25.0916 18.7219 25.0461 24.8622 25.0461 24.8622H21.2295C21.2295 19.4878 21.249 18.5985 21.2295 16.9044C21.1841 15.4115 20.7622 14.704 19.6133 14.5677C18.3995 14.4314 14.9983 14.5482 14.9983 14.5482V24.8687H11.1816V11.2184Z" fill="#040000"/>
<path d="M27.2494 1.0918H8.93215C4.65166 1.0918 1.18164 4.56182 1.18164 8.8423V27.1595C1.18164 31.44 4.65166 34.9101 8.93215 34.9101H27.2494C31.5299 34.9101 34.9999 31.44 34.9999 27.1595V8.8423C34.9999 4.56182 31.5299 1.0918 27.2494 1.0918Z" stroke="#EBEBEB" stroke-width="2"/>
</svg>
