<svg width="37" height="36" viewBox="0 0 37 36" fill="none" xmlns="http://www.w3.org/2000/svg">
<path d="M27.431 2.0918H9.11379C5.38559 2.0918 2.36328 5.1141 2.36328 8.8423V27.1595C2.36328 30.8877 5.38559 33.9101 9.11379 33.9101H27.431C31.1592 33.9101 34.1815 30.8877 34.1815 27.1595V8.8423C34.1815 5.1141 31.1592 2.0918 27.431 2.0918Z" fill="white"/>
<path d="M23.3577 10H26.1178L20.0878 16.7774L27.1816 26H21.6272L17.2768 20.4066L12.2989 26H9.53708L15.9868 18.7508L9.18164 10H14.8771L18.8095 15.1126L23.3577 10ZM22.389 24.3754H23.9184L14.0461 11.5393H12.4048L22.389 24.3754Z" fill="black"/>
<path d="M27.431 1.0918H9.11379C4.8333 1.0918 1.36328 4.56182 1.36328 8.8423V27.1595C1.36328 31.44 4.8333 34.9101 9.11379 34.9101H27.431C31.7115 34.9101 35.1815 31.44 35.1815 27.1595V8.8423C35.1815 4.56182 31.7115 1.0918 27.431 1.0918Z" stroke="#EBEBEB" stroke-width="2"/>
</svg>
