<svg width="193" height="25" viewBox="0 0 193 25" fill="none" xmlns="http://www.w3.org/2000/svg">
<path d="M6.94822 24.368L0.972219 0.655999H3.32422L9.27622 24.368H6.94822ZM41.1175 20.288C39.7735 20.288 38.4855 20.112 37.2535 19.76C36.0215 19.392 35.0295 18.92 34.2775 18.344L35.5975 15.416C36.3175 15.928 37.1655 16.352 38.1415 16.688C39.1335 17.008 40.1335 17.168 41.1415 17.168C41.9095 17.168 42.5255 17.096 42.9895 16.952C43.4695 16.792 43.8215 16.576 44.0455 16.304C44.2695 16.032 44.3815 15.72 44.3815 15.368C44.3815 14.92 44.2055 14.568 43.8535 14.312C43.5015 14.04 43.0375 13.824 42.4615 13.664C41.8855 13.488 41.2455 13.328 40.5415 13.184C39.8535 13.024 39.1575 12.832 38.4535 12.608C37.7655 12.384 37.1335 12.096 36.5575 11.744C35.9815 11.392 35.5095 10.928 35.1415 10.352C34.7895 9.776 34.6135 9.04 34.6135 8.144C34.6135 7.184 34.8695 6.312 35.3815 5.528C35.9095 4.728 36.6935 4.096 37.7335 3.632C38.7895 3.152 40.1095 2.912 41.6935 2.912C42.7495 2.912 43.7895 3.04 44.8135 3.296C45.8375 3.536 46.7415 3.904 47.5255 4.4L46.3255 7.352C45.5415 6.904 44.7575 6.576 43.9735 6.368C43.1895 6.144 42.4215 6.032 41.6695 6.032C40.9175 6.032 40.3015 6.12 39.8215 6.296C39.3415 6.472 38.9975 6.704 38.7895 6.992C38.5815 7.264 38.4775 7.584 38.4775 7.952C38.4775 8.384 38.6535 8.736 39.0055 9.008C39.3575 9.264 39.8215 9.472 40.3975 9.632C40.9735 9.792 41.6055 9.952 42.2935 10.112C42.9975 10.272 43.6935 10.456 44.3815 10.664C45.0855 10.872 45.7255 11.152 46.3015 11.504C46.8775 11.856 47.3415 12.32 47.6935 12.896C48.0615 13.472 48.2455 14.2 48.2455 15.08C48.2455 16.024 47.9815 16.888 47.4535 17.672C46.9255 18.456 46.1335 19.088 45.0775 19.568C44.0375 20.048 42.7175 20.288 41.1175 20.288ZM58.4862 6.896C59.5102 6.896 60.4222 7.104 61.2222 7.52C62.0382 7.92 62.6782 8.544 63.1422 9.392C63.6062 10.224 63.8382 11.296 63.8382 12.608V20H60.0942V13.184C60.0942 12.144 59.8622 11.376 59.3982 10.88C58.9502 10.384 58.3102 10.136 57.4782 10.136C56.8862 10.136 56.3502 10.264 55.8702 10.52C55.4062 10.76 55.0382 11.136 54.7662 11.648C54.5102 12.16 54.3822 12.816 54.3822 13.616V20H50.6382V2.192H54.3822V10.664L53.5422 9.584C54.0062 8.72 54.6702 8.056 55.5342 7.592C56.3982 7.128 57.3822 6.896 58.4862 6.896ZM75.1519 20V17.48L74.9119 16.928V12.416C74.9119 11.616 74.6639 10.992 74.1679 10.544C73.6879 10.096 72.9439 9.872 71.9359 9.872C71.2479 9.872 70.5679 9.984 69.8959 10.208C69.2399 10.416 68.6799 10.704 68.2159 11.072L66.8719 8.456C67.5759 7.96 68.4239 7.576 69.4159 7.304C70.4079 7.032 71.4159 6.896 72.4399 6.896C74.4079 6.896 75.9359 7.36 77.0239 8.288C78.1119 9.216 78.6559 10.664 78.6559 12.632V20H75.1519ZM71.2159 20.192C70.2079 20.192 69.3439 20.024 68.6239 19.688C67.9039 19.336 67.3519 18.864 66.9679 18.272C66.5839 17.68 66.3919 17.016 66.3919 16.28C66.3919 15.512 66.5759 14.84 66.9439 14.264C67.3279 13.688 67.9279 13.24 68.7439 12.92C69.5599 12.584 70.6239 12.416 71.9359 12.416H75.3679V14.6H72.3439C71.4639 14.6 70.8559 14.744 70.5199 15.032C70.1999 15.32 70.0399 15.68 70.0399 16.112C70.0399 16.592 70.2239 16.976 70.5919 17.264C70.9759 17.536 71.4959 17.672 72.1519 17.672C72.7759 17.672 73.3359 17.528 73.8319 17.24C74.3279 16.936 74.6879 16.496 74.9119 15.92L75.4879 17.648C75.2159 18.48 74.7199 19.112 73.9999 19.544C73.2799 19.976 72.3519 20.192 71.2159 20.192ZM82.0444 20V7.088H85.6204V10.736L85.1164 9.68C85.5004 8.768 86.1164 8.08 86.9644 7.616C87.8124 7.136 88.8444 6.896 90.0604 6.896V10.352C89.9004 10.336 89.7564 10.328 89.6284 10.328C89.5004 10.312 89.3644 10.304 89.2204 10.304C88.1964 10.304 87.3644 10.6 86.7244 11.192C86.1004 11.768 85.7884 12.672 85.7884 13.904V20H82.0444ZM98.6008 20.192C97.1288 20.192 95.8328 19.904 94.7128 19.328C93.6088 18.752 92.7528 17.968 92.1448 16.976C91.5368 15.968 91.2328 14.824 91.2328 13.544C91.2328 12.248 91.5288 11.104 92.1208 10.112C92.7288 9.104 93.5528 8.32 94.5928 7.76C95.6328 7.184 96.8088 6.896 98.1208 6.896C99.3848 6.896 100.521 7.168 101.529 7.712C102.553 8.24 103.361 9.008 103.953 10.016C104.545 11.008 104.841 12.2 104.841 13.592C104.841 13.736 104.833 13.904 104.817 14.096C104.801 14.272 104.785 14.44 104.769 14.6H94.2808V12.416H102.801L101.361 13.064C101.361 12.392 101.225 11.808 100.953 11.312C100.681 10.816 100.305 10.432 99.8248 10.16C99.3448 9.872 98.7848 9.728 98.1448 9.728C97.5048 9.728 96.9368 9.872 96.4408 10.16C95.9608 10.432 95.5848 10.824 95.3128 11.336C95.0408 11.832 94.9048 12.424 94.9048 13.112V13.688C94.9048 14.392 95.0568 15.016 95.3608 15.56C95.6808 16.088 96.1208 16.496 96.6808 16.784C97.2568 17.056 97.9288 17.192 98.6968 17.192C99.3848 17.192 99.9848 17.088 100.497 16.88C101.025 16.672 101.505 16.36 101.937 15.944L103.929 18.104C103.337 18.776 102.593 19.296 101.697 19.664C100.801 20.016 99.7688 20.192 98.6008 20.192ZM119.41 20.192C117.89 20.192 116.706 19.808 115.858 19.04C115.01 18.256 114.586 17.096 114.586 15.56V4.232H118.33V15.512C118.33 16.056 118.474 16.48 118.762 16.784C119.05 17.072 119.442 17.216 119.938 17.216C120.53 17.216 121.034 17.056 121.45 16.736L122.458 19.376C122.074 19.648 121.61 19.856 121.066 20C120.538 20.128 119.986 20.192 119.41 20.192ZM112.594 10.256V7.376H121.546V10.256H112.594ZM132.408 6.896C133.432 6.896 134.344 7.104 135.144 7.52C135.96 7.92 136.6 8.544 137.064 9.392C137.528 10.224 137.76 11.296 137.76 12.608V20H134.016V13.184C134.016 12.144 133.784 11.376 133.32 10.88C132.872 10.384 132.232 10.136 131.4 10.136C130.808 10.136 130.272 10.264 129.792 10.52C129.328 10.76 128.96 11.136 128.688 11.648C128.432 12.16 128.304 12.816 128.304 13.616V20H124.56V2.192H128.304V10.664L127.464 9.584C127.928 8.72 128.592 8.056 129.456 7.592C130.32 7.128 131.304 6.896 132.408 6.896ZM141.154 20V7.088H144.898V20H141.154ZM143.026 5.288C142.338 5.288 141.778 5.088 141.346 4.688C140.914 4.288 140.698 3.792 140.698 3.2C140.698 2.608 140.914 2.112 141.346 1.712C141.778 1.312 142.338 1.112 143.026 1.112C143.714 1.112 144.274 1.304 144.706 1.688C145.138 2.056 145.354 2.536 145.354 3.128C145.354 3.752 145.138 4.272 144.706 4.688C144.29 5.088 143.73 5.288 143.026 5.288ZM152.717 20.192C151.613 20.192 150.549 20.064 149.525 19.808C148.517 19.536 147.717 19.2 147.125 18.8L148.373 16.112C148.965 16.48 149.661 16.784 150.461 17.024C151.277 17.248 152.077 17.36 152.861 17.36C153.725 17.36 154.333 17.256 154.685 17.048C155.053 16.84 155.237 16.552 155.237 16.184C155.237 15.88 155.093 15.656 154.805 15.512C154.533 15.352 154.165 15.232 153.701 15.152C153.237 15.072 152.725 14.992 152.165 14.912C151.621 14.832 151.069 14.728 150.509 14.6C149.949 14.456 149.437 14.248 148.973 13.976C148.509 13.704 148.133 13.336 147.845 12.872C147.573 12.408 147.437 11.808 147.437 11.072C147.437 10.256 147.669 9.536 148.133 8.912C148.613 8.288 149.301 7.8 150.197 7.448C151.093 7.08 152.165 6.896 153.413 6.896C154.293 6.896 155.189 6.992 156.101 7.184C157.013 7.376 157.773 7.656 158.381 8.024L157.133 10.688C156.509 10.32 155.877 10.072 155.237 9.944C154.613 9.8 154.005 9.728 153.413 9.728C152.581 9.728 151.973 9.84 151.589 10.064C151.205 10.288 151.013 10.576 151.013 10.928C151.013 11.248 151.149 11.488 151.421 11.648C151.709 11.808 152.085 11.936 152.549 12.032C153.013 12.128 153.517 12.216 154.061 12.296C154.621 12.36 155.181 12.464 155.741 12.608C156.301 12.752 156.805 12.96 157.253 13.232C157.717 13.488 158.093 13.848 158.381 14.312C158.669 14.76 158.813 15.352 158.813 16.088C158.813 16.888 158.573 17.6 158.093 18.224C157.613 18.832 156.917 19.312 156.005 19.664C155.109 20.016 154.013 20.192 152.717 20.192ZM183.707 24.368L189.707 0.655999H192.035L186.059 24.368H183.707Z" fill="black"/>
</svg>
