<svg width="509" height="8" viewBox="0 0 509 8" fill="none" xmlns="http://www.w3.org/2000/svg">
<path d="M14.4256 7.05859C18.6591 7.05859 24.1277 0.00275202 28.5373 0.00275125C32.9469 0.00275048 -3.7432 0.00275689 0.313909 0.00275618C4.37102 0.00275547 10.1921 7.05859 14.4256 7.05859Z" fill="#FFFDE6"/>
<path d="M42.6482 7.05859C46.8817 7.05859 52.3503 0.00275202 56.7599 0.00275125C61.1695 0.00275048 24.4795 0.00275689 28.5366 0.00275618C32.5937 0.00275547 38.4147 7.05859 42.6482 7.05859Z" fill="#FFFDE6"/>
<path d="M70.8728 7.05859C75.1064 7.05859 80.5749 0.00275202 84.9845 0.00275125C89.3941 0.00275048 52.7041 0.00275689 56.7612 0.00275618C60.8183 0.00275547 66.6393 7.05859 70.8728 7.05859Z" fill="#FFFDE6"/>
<path d="M99.0955 7.05859C103.329 7.05859 108.798 0.00275202 113.207 0.00275125C117.617 0.00275048 80.9267 0.00275689 84.9838 0.00275618C89.0409 0.00275547 94.862 7.05859 99.0955 7.05859Z" fill="#FFFDE6"/>
<path d="M127.318 7.05859C131.552 7.05859 137.02 0.00275202 141.43 0.00275125C145.839 0.00275048 109.149 0.00275689 113.206 0.00275618C117.264 0.00275547 123.085 7.05859 127.318 7.05859Z" fill="#FFFDE6"/>
<path d="M155.543 7.05859C159.776 7.05859 165.245 0.00275202 169.654 0.00275125C174.064 0.00275048 137.374 0.00275689 141.431 0.00275618C145.488 0.00275547 151.309 7.05859 155.543 7.05859Z" fill="#FFFDE6"/>
<path d="M183.765 7.05859C187.999 7.05859 193.467 0.00275202 197.877 0.00275125C202.287 0.00275048 165.597 0.00275689 169.654 0.00275618C173.711 0.00275547 179.532 7.05859 183.765 7.05859Z" fill="#FFFDE6"/>
<path d="M240.211 7.05859C244.444 7.05859 249.913 0.00275202 254.322 0.00275125C258.732 0.00275048 222.042 0.00275689 226.099 0.00275618C230.156 0.00275547 235.977 7.05859 240.211 7.05859Z" fill="#FFFDE6"/>
<path d="M268.435 7.05859C272.669 7.05859 278.137 0.00275202 282.547 0.00275125C286.957 0.00275048 250.267 0.00275689 254.324 0.00275618C258.381 0.00275547 264.202 7.05859 268.435 7.05859Z" fill="#FFFDE6"/>
<path d="M296.66 7.05859C300.893 7.05859 306.362 0.00275202 310.772 0.00275125C315.181 0.00275048 278.491 0.00275689 282.548 0.00275618C286.605 0.00275547 292.426 7.05859 296.66 7.05859Z" fill="#FFFDE6"/>
<path d="M324.881 7.05859C329.114 7.05859 334.583 0.00275202 338.992 0.00275125C343.402 0.00275048 306.712 0.00275689 310.769 0.00275618C314.826 0.00275547 320.647 7.05859 324.881 7.05859Z" fill="#FFFDE6"/>
<path d="M353.105 7.05859C357.339 7.05859 362.807 0.00275202 367.217 0.00275125C371.627 0.00275048 334.936 0.00275689 338.994 0.00275618C343.051 0.00275547 348.872 7.05859 353.105 7.05859Z" fill="#FFFDE6"/>
<path d="M381.33 7.05859C385.563 7.05859 391.032 0.00275202 395.442 0.00275125C399.851 0.00275048 363.161 0.00275689 367.218 0.00275618C371.275 0.00275547 377.096 7.05859 381.33 7.05859Z" fill="#FFFDE6"/>
<path d="M409.551 7.05859C413.784 7.05859 419.253 0.00275202 423.662 0.00275125C428.072 0.00275048 391.382 0.00275689 395.439 0.00275618C399.496 0.00275547 405.317 7.05859 409.551 7.05859Z" fill="#FFFDE6"/>
<path d="M437.773 7.05859C442.007 7.05859 447.475 0.00275202 451.885 0.00275125C456.295 0.00275048 419.604 0.00275689 423.662 0.00275618C427.719 0.00275547 433.54 7.05859 437.773 7.05859Z" fill="#FFFDE6"/>
<path d="M465.998 7.05859C470.231 7.05859 475.7 0.00275202 480.11 0.00275125C484.519 0.00275048 447.829 0.00275689 451.886 0.00275618C455.943 0.00275547 461.764 7.05859 465.998 7.05859Z" fill="#FFFDE6"/>
<path d="M494.224 7.05859C498.458 7.05859 503.926 0.00275202 508.336 0.00275125C512.746 0.00275048 476.056 0.00275689 480.113 0.00275618C484.17 0.00275547 489.991 7.05859 494.224 7.05859Z" fill="#FFFDE6"/>
<path d="M211.986 7.05664C216.22 7.05664 221.688 0.000798894 226.098 0.000798123C230.507 0.000797352 193.817 0.000803767 197.874 0.000803058C201.932 0.000802349 207.753 7.05664 211.986 7.05664Z" fill="#FFFDE6"/>
</svg>
