<svg width="1442" height="20" viewBox="0 0 1442 20" fill="none" xmlns="http://www.w3.org/2000/svg">
<path d="M120.89 20C132.89 20 148.391 0 160.89 0C173.389 0 69.3898 0 80.8898 0C92.3898 0 108.89 20 120.89 20Z" fill="#FFFDE6"/>
<path d="M200.89 20C212.89 20 228.391 0 240.89 0C253.389 0 149.39 0 160.89 0C172.39 0 188.89 20 200.89 20Z" fill="#FFFDE6"/>
<path d="M280.89 20C292.89 20 308.391 0 320.89 0C333.389 0 229.39 0 240.89 0C252.39 0 268.89 20 280.89 20Z" fill="#FFFDE6"/>
<path d="M360.89 20C372.89 20 388.391 0 400.89 0C413.389 0 309.39 0 320.89 0C332.39 0 348.89 20 360.89 20Z" fill="#FFFDE6"/>
<path d="M440.89 20C452.89 20 468.391 0 480.89 0C493.389 0 389.39 0 400.89 0C412.39 0 428.89 20 440.89 20Z" fill="#FFFDE6"/>
<path d="M520.89 20C532.89 20 548.391 0 560.89 0C573.389 0 469.39 0 480.89 0C492.39 0 508.89 20 520.89 20Z" fill="#FFFDE6"/>
<path d="M600.89 20C612.89 20 628.391 0 640.89 0C653.389 0 549.39 0 560.89 0C572.39 0 588.89 20 600.89 20Z" fill="#FFFDE6"/>
<path d="M680.89 20C692.89 20 708.391 0 720.89 0C733.389 0 629.39 0 640.89 0C652.39 0 668.89 20 680.89 20Z" fill="#FFFDE6"/>
<path d="M760.89 20C772.89 20 788.391 0 800.89 0C813.389 0 709.39 0 720.89 0C732.39 0 748.89 20 760.89 20Z" fill="#FFFDE6"/>
<path d="M840.89 20C852.89 20 868.391 0 880.89 0C893.389 0 789.39 0 800.89 0C812.39 0 828.89 20 840.89 20Z" fill="#FFFDE6"/>
<path d="M920.89 20C932.89 20 948.391 0 960.89 0C973.389 0 869.39 0 880.89 0C892.39 0 908.89 20 920.89 20Z" fill="#FFFDE6"/>
<path d="M1000.89 20C1012.89 20 1028.39 0 1040.89 0C1053.39 0 949.39 0 960.89 0C972.39 0 988.89 20 1000.89 20Z" fill="#FFFDE6"/>
<path d="M1080.89 20C1092.89 20 1108.39 0 1120.89 0C1133.39 0 1029.39 0 1040.89 0C1052.39 0 1068.89 20 1080.89 20Z" fill="#FFFDE6"/>
<path d="M1160.89 20C1172.89 20 1188.39 0 1200.89 0C1213.39 0 1109.39 0 1120.89 0C1132.39 0 1148.89 20 1160.89 20Z" fill="#FFFDE6"/>
<path d="M1240.89 20C1252.89 20 1268.39 0 1280.89 0C1293.39 0 1189.39 0 1200.89 0C1212.39 0 1228.89 20 1240.89 20Z" fill="#FFFDE6"/>
<path d="M1320.89 20C1332.89 20 1348.39 0 1360.89 0C1373.39 0 1269.39 0 1280.89 0C1292.39 0 1308.89 20 1320.89 20Z" fill="#FFFDE6"/>
<path d="M40.8898 20C52.8898 20 68.3906 0 80.8898 0C93.389 0 -10.6102 0 0.889788 0C12.3898 0 28.8898 20 40.8898 20Z" fill="#FFFDE6"/>
<path d="M1400.89 20C1412.89 20 1428.39 0 1440.89 0C1453.39 0 1349.39 0 1360.89 0C1372.39 0 1388.89 20 1400.89 20Z" fill="#FFFDE6"/>
</svg>
