<svg width="514" height="129" viewBox="0 0 514 129" fill="none" xmlns="http://www.w3.org/2000/svg">
<rect y="16.3965" width="44.6667" height="42.3158" rx="21.1579" fill="#FF7B18"/>
<path d="M14.1048 49.3096C13.4583 49.3096 12.9049 49.0794 12.4445 48.619C11.9841 48.1586 11.7539 47.6052 11.7539 46.9587V30.5025C11.7539 29.856 11.9841 29.3026 12.4445 28.8422C12.9049 28.3818 13.4583 28.1517 14.1048 28.1517H15.2802V25.8008H17.6311V28.1517H27.0346V25.8008H29.3855V28.1517H30.5609C31.2074 28.1517 31.7608 28.3818 32.2212 28.8422C32.6816 29.3026 32.9118 29.856 32.9118 30.5025V46.9587C32.9118 47.6052 32.6816 48.1586 32.2212 48.619C31.7608 49.0794 31.2074 49.3096 30.5609 49.3096H14.1048ZM14.1048 46.9587H30.5609V35.2043H14.1048V46.9587ZM14.1048 32.8534H30.5609V30.5025H14.1048V32.8534Z" fill="white"/>
<rect y="79.3965" width="44.6667" height="42.3158" rx="21.1579" fill="#FF7B18"/>
<path d="M25.8592 111.133L18.8065 108.664L13.3407 110.78C12.9489 110.937 12.5865 110.893 12.2535 110.648C11.9204 110.403 11.7539 110.075 11.7539 109.663V93.2071C11.7539 92.9524 11.8274 92.7271 11.9743 92.5312C12.1212 92.3353 12.322 92.1884 12.5767 92.0904L18.8065 89.9746L25.8592 92.443L31.325 90.3272C31.7168 90.1705 32.0792 90.2146 32.4122 90.4595C32.7453 90.7044 32.9118 91.0325 32.9118 91.4439V107.9C32.9118 108.155 32.8383 108.38 32.6914 108.576C32.5445 108.772 32.3437 108.919 32.089 109.017L25.8592 111.133ZM24.6837 108.253V94.5L19.982 92.8544V106.607L24.6837 108.253ZM27.0346 108.253L30.5609 107.077V93.1483L27.0346 94.5V108.253ZM14.1048 107.959L17.6311 106.607V92.8544L14.1048 94.0299V107.959Z" fill="white"/>
<g clip-path="url(#clip0_197_1154)">
<path d="M69.1618 29.269C67.9352 21.6712 73.5359 14.6758 82.7699 14.3978C91.1014 14.1893 98.3221 20.2351 97.0955 28.991C95.7301 39.4147 86.3571 39.739 81.9368 47.2672C86.0331 47.1977 89.0417 46.7344 94.8969 46.1322V56.0231C77.9099 55.9536 82.0756 55.9536 71.4761 55.8146C69.3701 41.2215 85.1768 36.0559 87.1903 29.5238C88.5557 25.2848 85.7554 21.6017 81.9831 22.1345C78.6736 22.5283 77.0999 25.03 77.4933 30.0102L69.1618 29.269Z" fill="black"/>
<path d="M105.636 33.2299C106.423 20.4435 114.685 13.4712 124.706 14.6757C133.176 15.4864 139.425 22.4819 139.077 34.9672C138.615 53.0581 128.478 56.7411 121.512 56.2084C113.574 55.6061 104.664 49.3519 105.636 33.2067V33.2299ZM115.078 36.2412C115.263 41.2909 117.67 44.9044 121.975 45.2519C126.858 45.5762 129.195 41.4762 129.195 34.6892C129.195 29.0372 126.395 25.5395 122.947 25.2847C118.063 24.8214 114.615 28.2497 115.078 36.2412Z" fill="black"/>
<path d="M147.547 29.269C146.321 21.6712 151.898 14.6758 161.155 14.3978C169.487 14.1893 176.707 20.2351 175.481 28.991C174.115 39.4147 164.742 39.739 160.322 47.2672C164.418 47.1977 167.427 46.7344 173.282 46.1322V56.0231C156.295 55.9536 160.461 55.9536 149.861 55.8146C147.779 41.2215 163.585 36.0559 165.622 29.5238C166.987 25.2848 164.187 21.6017 160.415 22.1345C157.105 22.5283 155.532 25.03 155.925 30.0102L147.593 29.269H147.547Z" fill="black"/>
<path d="M184.83 46.8037L192.258 42.9122C192.258 45.3212 193.624 49.2359 197.859 49.3054C201.169 49.3054 202.997 45.5529 202.279 42.2404C200.983 36.2642 194.735 34.9207 186.658 38.4184C186.658 38.4184 186.658 17.6405 186.797 15.5558C186.797 15.5558 200.011 14.9535 209.245 15.2083L208.783 24.1495C208.783 24.1495 200.197 22.8755 194.411 22.945L194.017 31.145C202.21 28.6665 210.68 32.419 211.583 41.4992C212.624 51.5755 205.658 58.3161 197.142 57.5054C189.597 56.7641 186.264 52.5252 184.853 46.8269L184.83 46.8037Z" fill="black"/>
<path d="M240.095 49.6284L240.859 57.8979L234.587 58.2454L235.004 49.9759C235.004 49.9759 227.551 50.0222 219.822 49.9759L219.775 44.764C219.775 44.764 226.279 45.0652 227.413 44.9494C227.413 44.9494 226.857 40.1313 226.857 39.1584L223.849 38.672V34.7341C223.849 34.7341 232.851 34.6415 234.541 34.8268L234.633 31.4217L226.232 31.3754C225.145 32.9274 223.455 34.0161 220.956 34.5951C223.363 28.2251 224.311 23.9398 224.057 21.1602L230.56 21.9014C230.56 21.9014 230.236 24.2409 228.338 26.8584L248.658 26.4647L248.565 31.1901L240.419 31.0048L240.234 34.4098H246.598V38.8804C246.598 38.8804 240.905 39.2279 240.049 39.2279L240.188 43.5595C240.188 43.5595 245.557 43.5595 250.602 43.3047L250.417 49.6748C250.417 49.6748 241.136 49.7674 240.095 49.6284ZM234.402 39.9923L231.301 39.946L231.208 43.8375C233.661 44.2313 234.309 44.0923 234.309 44.0923L234.402 39.9923Z" fill="black"/>
<path d="M263.731 29.2673C262.504 21.6696 268.082 14.6741 277.339 14.4193C285.67 14.2108 292.891 20.2566 291.664 29.0125C290.299 39.4362 280.926 39.7605 276.506 47.2887C280.602 47.2192 283.611 46.7559 289.466 46.1537V56.0446C272.479 55.9751 276.645 55.9751 266.045 55.8361C263.962 41.243 279.769 36.0774 281.805 29.5452C283.171 25.3063 280.371 21.6232 276.598 22.156C273.289 22.5498 271.715 25.0515 272.109 30.0317L263.777 29.2904L263.731 29.2673Z" fill="black"/>
<path d="M298.469 55.1172C305.689 46.8941 306.708 33.598 304.879 23.2207C304.879 23.2207 322.422 23.0354 325.245 23.3133C325.245 23.3133 326.611 55.8584 325.847 60.0974C321.033 54.4454 321.172 54.3991 318.256 51.9206C318.256 51.9206 321.126 51.9206 321.982 51.8279L321.658 45.6432C321.658 45.6432 314.484 45.9443 308.837 46.037C308.212 48.4229 305.065 54.2601 298.469 55.1404V55.1172ZM311.383 29.0116L311.429 31.8376C314.623 31.8839 317.608 31.4438 317.608 31.4438L317.793 28.8726C316.52 28.6873 311.383 29.0116 311.383 29.0116ZM318.696 36.563L311.915 36.3777V41.0105C315.641 41.4042 318.788 40.524 318.788 40.524L318.696 36.5862V36.563Z" fill="black"/>
<path d="M341.348 29.2673C340.121 21.6696 345.699 14.6741 354.956 14.4193C363.288 14.2108 370.508 20.2566 369.282 29.0125C367.916 39.4362 358.543 39.7605 354.123 47.2887C358.219 47.2192 361.228 46.7559 367.083 46.1537V56.0446C350.096 55.9751 354.262 55.9751 343.662 55.8361C341.579 41.243 357.386 36.0774 359.423 29.5452C360.788 25.3063 357.988 21.6232 354.215 22.156C350.906 22.5498 349.332 25.0515 349.726 30.0317L341.394 29.2904L341.348 29.2673Z" fill="black"/>
<path d="M379.442 29.2673C378.215 21.6696 383.793 14.6741 393.05 14.4193C401.381 14.2108 408.602 20.2566 407.375 29.0125C406.01 39.4362 396.637 39.7605 392.217 47.2887C396.313 47.2192 399.322 46.7559 405.177 46.1537V56.0446C388.19 55.9751 392.355 55.9751 381.756 55.8361C379.673 41.243 395.48 36.0774 397.516 29.5452C398.882 25.3063 396.082 21.6232 392.309 22.156C389 22.5498 387.426 25.0515 387.819 30.0317L379.488 29.2904L379.442 29.2673Z" fill="black"/>
<path d="M442.899 56.4394C442.899 56.4394 427.902 55.9993 419.039 56.0919C419.039 56.0919 418.854 39.5762 418.854 25.0756L442.182 25.0293C442.182 25.0293 442.899 51.8761 442.899 56.4394ZM435.841 36.1711L435.517 30.7276L425.796 30.3338L425.704 36.5185C427.578 36.5185 435.841 36.1711 435.841 36.1711ZM435.586 42.7959L426.444 42.2631V50.301C429.754 50.301 435.447 50.44 435.447 50.44C435.586 49.7682 435.586 42.7959 435.586 42.7959Z" fill="black"/>
<path d="M452.852 40.6182C452.944 33.947 455.12 27.4612 460.906 22.6895C458.545 27.4612 456.809 33.2985 456.717 40.4097C456.624 48.8414 459.309 55.5589 461.091 58.7786C456.508 56.0916 452.644 49.0267 452.852 40.6182Z" fill="black"/>
<path d="M480.506 48.356C480.506 48.356 480.969 40.851 480.784 39.3453C480.784 39.3453 470.138 39.2527 469.606 39.3453L469.513 33.2996L479.974 32.8131L479.835 23.9414L486.292 24.1962L486.199 33.9482L495.665 33.8092L495.758 39.9939C495.758 39.9939 486.709 40.1792 485.621 40.295L485.991 49.1668C485.991 49.1668 497.216 49.2594 498.396 49.2594L498.118 56.4634C498.118 56.4634 470.578 56.7645 467.014 56.4634L466.875 48.4718C466.875 48.4718 479.141 48.3792 480.506 48.3792V48.356Z" fill="black"/>
<path d="M504.738 58.7786C506.474 55.5589 509.228 48.8414 509.066 40.4097C508.973 33.2985 507.238 27.4612 504.923 22.6895C510.686 27.4612 512.838 33.947 512.977 40.6182C513.116 49.0498 509.297 56.1148 504.738 58.7786Z" fill="black"/>
<path d="M81.0114 104.326L75.457 104.372L75.5033 93.9714C79.5996 94.064 83.2562 93.9714 84.668 93.786L84.1588 87.3233L90.6389 87.5782L89.69 93.8324C92.9763 93.9714 96.1238 93.8787 100.012 93.786C99.3407 107.036 96.8644 113.383 88.5329 116.463C92.5829 109.19 93.0921 104.928 93.0226 99.4148C93.0226 99.4148 85.9408 99.2295 80.6874 99.4612L80.9882 104.302L81.0114 104.326Z" fill="black"/>
<path d="M105.796 101.151C113.595 97.0048 121.533 91.515 124.311 86.4885L130.629 91.9551C130.629 91.9551 127.597 96.4952 123.2 99.6223L124.056 116.323H118.201L118.594 100.919C114.498 101.939 110.448 102.332 105.796 101.174V101.151Z" fill="black"/>
<path d="M146.18 98.0232C146.18 98.0232 140.765 94.8035 139.793 94.1086L142.778 89.3137C142.778 89.3137 146.273 90.773 149.004 92.3018L146.18 98.0232ZM140.464 108.424C151.295 107.544 157.197 103.189 163.191 97.282C161.733 106.849 154.882 113.705 143.264 115.558L140.441 108.424H140.464Z" fill="black"/>
<path d="M170.667 103.49C172.704 97.0277 172.681 92.0938 171.986 86.9283H178.374C178.374 86.9283 178.327 89.5689 178.027 91.2831C183.65 92.0243 188.603 92.3486 192.537 92.4644C192.884 102.471 188.094 114.493 173.768 117.134C182.678 111.111 185.34 102.193 185.664 96.9582C185.664 96.9582 180.04 96.2169 177.425 95.7305C176.916 98.8113 174.902 101.846 170.644 103.49H170.667Z" fill="black"/>
<path d="M207.279 98.3253V94.758C207.279 94.758 203.438 94.897 200.846 95.1518L200.73 89.5462L207.303 89.5925L207.141 85.1914L212.093 85.3999C212.093 85.3999 211.885 88.2259 211.746 89.94L222.785 89.7547L222.438 94.6886C214.593 94.3874 214.755 94.5032 211.26 94.5032C211.26 94.5032 211.168 96.2637 211.214 97.584C213.436 97.3987 214.847 97.5377 217.532 98.4179L219.846 95.8699L223.086 99.4835L221.165 100.757C226.326 104.417 226.743 116.532 214.546 118.848C220.517 113.729 220.517 106.572 217.694 104.186C211.006 109.815 207.673 112.2 202.628 115.235C197.883 110.255 198.74 100.873 207.279 98.2789V98.3253ZM204.988 108.772L209.895 105.413L207.303 105.228C207.256 104.209 207.303 103.282 207.303 102.356C205.474 102.842 203.6 106.224 204.988 108.749V108.772ZM211.029 101.059V104.533L214.732 101.36C213.667 100.92 212.14 100.92 211.029 101.059Z" fill="black"/>
<path d="M231.579 95.5932L237.457 94.6666C237.457 94.6666 237.365 102.728 238.684 104.673L243.382 103.562C239.633 107.754 239.124 108.102 236.555 111.877C236.555 111.877 231.695 107.638 231.556 95.5932H231.579ZM254.861 105.762C255.254 101.662 253.657 97.4 251.667 94.6203L257.268 93.2073C258.633 96.9135 260.091 102.681 258.679 111.136C258.679 111.136 252.709 106.689 251.251 106.156C251.251 106.156 253.819 105.808 254.884 105.762H254.861Z" fill="black"/>
<path d="M281.662 110.14C281.523 107.939 279.834 107.198 277.959 107.106C275.784 107.013 273.145 107.893 271.641 108.681C271.641 108.681 272.543 102.172 273.006 97.7706C273.006 97.7706 270.623 97.9096 267.197 98.257V92.4892C267.197 92.4892 270.09 92.5356 273.168 92.5819L273.423 86.235L279.996 86.6288L278.769 92.6282C278.769 92.6282 283.421 92.3966 287.054 92.2808L286.892 97.9096C283.097 97.6548 281.477 97.6548 277.843 97.6084L276.987 103.863C278.653 103.075 280.366 102.751 281.893 102.936C285.689 103.376 287.563 105.762 287.772 109.237C288.188 117.738 276.894 118.85 272.937 115.885C280.32 115.537 281.801 112.271 281.685 110.163L281.662 110.14Z" fill="black"/>
<path d="M319.919 102.17C319.919 102.17 317.998 100.803 316.078 100.016L318.346 96.2633C318.346 96.2633 321.678 97.9311 322.303 98.3249C322.303 98.3249 324.826 94.8966 325.196 93.252L319.063 92.6729C319.063 92.6729 316.24 96.0085 311.819 96.3791C311.819 96.3791 316.934 89.9164 318.091 84.4961L322.835 85.6543C322.835 85.6543 322.025 88.7351 321.516 89.3142C321.516 89.3142 330.01 89.6153 333.296 89.569C331.63 95.8232 326.978 101.776 323.738 103.745C323.738 103.745 331.421 103.56 335.471 103.931C335.471 103.931 335.726 115.466 335.379 117.018C326.839 117.111 326.932 117.273 321.91 117.064C321.91 117.064 321.863 108.378 321.956 106.363C321.956 106.363 318.022 109.745 311.426 110.138C311.426 110.138 318.808 104.764 319.966 102.17H319.919ZM326.399 112.455C327.649 112.594 330.843 112.316 330.843 112.316C331.19 111.297 330.843 108.123 330.843 108.123L326.585 108.262C326.284 109.281 326.423 112.455 326.423 112.455H326.399Z" fill="black"/>
<path d="M370.186 94.1109L369.839 98.9058C369.839 98.9058 359.818 99.6933 358.661 99.6933C358.661 99.6933 358.522 102.635 358.406 105.067C358.406 105.067 363.359 105.114 366.206 105.16C366.206 105.16 366.067 113.36 364.632 117.529C364.632 117.529 350.862 117.344 348.432 117.344C348.432 117.344 347.784 106.735 347.182 104.789C347.182 104.789 353.5 104.535 354.102 104.442C354.102 104.442 354.009 99.8555 354.009 99.2996C354.009 99.2996 345.099 98.9058 342.276 99.0448L341.72 93.9719C341.72 93.9719 351.834 94.0645 353.847 93.8329L353.037 86.0267L359.61 86.212C359.61 86.212 359.008 92.7674 359.101 94.0414C359.101 94.0414 366.576 94.2499 370.186 94.0877V94.1109ZM353.546 108.496L353.639 112.804C356.763 113.059 359.911 112.943 359.911 112.943L359.818 108.496H353.546Z" fill="black"/>
<path d="M401.196 84.844C401.196 84.844 401.104 91.2372 400.895 93.7852C400.895 93.7852 385.667 94.179 383.399 94.179C383.399 94.179 381.895 103.468 373.54 105.321C373.54 105.321 380.113 98.2789 379.974 85.2841C385.135 85.0988 399.808 84.844 401.173 84.844H401.196ZM388.699 114.98L388.792 113.706C388.792 113.706 385.945 113.66 383.422 113.706L383.469 110.139L388.491 110.092L388.583 107.313L392.98 107.359L392.934 109.652L397.794 109.444L397.702 113.057C395.179 113.15 393.767 113.15 392.934 113.196V114.285L400.988 114.47L400.895 118.709C400.895 118.709 382.427 118.617 379.789 118.802L379.997 115.281C379.997 115.281 385.714 115.096 388.699 115.026V114.98ZM392.656 99.6919C392.656 99.6919 392.448 101.267 390.273 103.699C390.527 103.699 395.017 103.838 396.244 103.352L395.596 101.452L399.137 100.827L400.294 105.321C398.882 105.946 389.717 106.942 385.667 105.46C385.667 105.46 388.491 100.92 389.116 99.8541C387.843 99.9467 385.066 99.9467 383.862 100.109L383.955 96.3564L400.71 95.8236V99.3908C400.71 99.3908 395.549 99.5761 392.656 99.6456V99.6919ZM397.007 88.2027L385.876 88.11L385.783 90.0095C388.815 90.1485 396.961 89.9631 396.961 89.9631L397.007 88.2027Z" fill="black"/>
<path d="M405.732 106.618L408.301 107.846C408.301 107.846 407.538 110.139 406.681 111.181L404.205 110.046C404.205 110.046 405.57 107.452 405.732 106.618ZM422.581 100.364C422.581 100.364 422.372 114.934 416.563 118.015L414.295 112.733C414.295 112.733 415.614 113.359 416.517 113.567C417.535 111.506 418.646 106.34 418.554 103.445C418.554 103.445 409.69 103.537 409.25 103.63C409.25 103.63 409.389 89.9402 409.158 86.8131L422.164 86.4193L422.002 89.6854L417.558 89.7317L417.512 91.0521H420.914L420.822 94.5266H417.674L417.628 95.6385L420.613 95.5458L420.521 98.6266L417.373 98.7193L417.42 100.387H422.534L422.581 100.364ZM412.189 108.286L409.759 108.494L409.551 105.553L412.12 105.344L412.212 108.286H412.189ZM412.907 109.514L413.555 112.293L411.24 113.127L410.685 110.093L412.907 109.514ZM412.398 90.9826L414.365 90.9363L414.318 89.5233L412.398 89.5696V90.9826ZM412.513 95.986L414.48 95.9396L414.527 94.0865L412.513 94.1329V95.986ZM414.573 98.6266L412.536 98.7193L412.583 100.433C413.555 100.433 414.504 100.387 414.504 100.387L414.596 98.6266H414.573ZM414.527 108.68L414.226 105.112L416.748 104.881L417.165 108.309L414.527 108.657V108.68ZM443.456 111.807L439.66 116.694C432.439 109.166 432.532 105.205 432.115 103.306L429.593 103.398C430.009 109.259 426.607 115.027 420.243 115.999C420.243 115.999 427.626 109.954 426.631 89.6622L438.92 89.5696C438.92 89.5696 438.781 101.244 438.503 103.144L434.846 103.445C434.985 105.946 439.359 110.486 443.456 111.807ZM434.36 94.3645H430.819L430.727 98.7193C432.185 98.9278 434.268 98.7656 434.268 98.7656L434.36 94.3645Z" fill="black"/>
<path d="M446.094 103.538L446.001 97.8626C446.001 97.8626 454.449 97.5151 455.467 97.4225C456.67 94.8744 456.578 94.8744 457.087 92.9287C457.087 92.9287 452.019 93.114 450.699 93.1835L450.537 87.6705C455.583 87.9716 458.475 87.7632 464.099 87.4157C463.544 89.5236 461.878 94.2953 459.054 97.7236C459.054 97.7236 464.655 97.2835 468.01 97.0287L467.802 102.542C467.802 102.542 463.289 102.287 461.484 102.403C460.003 102.449 457.272 105.622 458.452 108.611C459.471 111.205 461.6 112.386 463.197 112.965L458.684 117.552C456.601 116.764 452.667 113.104 452.505 109.097C452.366 106.456 453.662 104.418 455.444 103.028C455.444 103.028 447.807 103.468 446.094 103.561V103.538Z" fill="black"/>
<path d="M475.626 91.4696L480.741 92.0487C480.093 95.0368 478.565 103.144 479.421 108.912C479.421 108.912 481.18 108.379 483.657 107.29C483.657 107.29 479.144 113.545 477.269 115.792C475.348 111.97 474.33 104.395 475.649 91.4696H475.626ZM504.462 112.896L501.222 116.996C501.222 116.996 498.491 113.568 497.033 112.641C496.524 113.707 494.603 115.537 491.618 115.097C488.331 114.564 486.665 112.062 486.804 109.723C486.966 105.669 490.761 104.349 493.886 105.46C493.886 105.46 493.793 101.268 493.469 98.9515C493.469 98.9515 488.054 98.8125 487.105 98.6503L486.804 93.0447C486.804 93.0447 490.391 93.0447 493.029 92.9057L492.358 88.0182L497.936 87.9255C497.936 87.9255 497.542 92.5119 497.635 93.4385L503.305 93.2532L503.768 98.2334C503.768 98.2334 500.482 98.8125 498.26 98.9051C498.26 98.9051 498.676 105.507 498.26 107.453C499.579 108.147 502.356 110.14 504.439 112.919L504.462 112.896ZM493.909 110.001C493.099 109.306 492.844 109.074 491.988 108.889C490.715 108.68 490.113 109.815 490.576 110.557C491.733 112.178 494.326 110.371 493.909 109.977V110.001ZM503.351 90.3114C503.351 90.3114 502.24 90.6125 501.477 91.0063L500.713 87.5317L503.351 87.0453V90.3114ZM504.578 86.9295L507.262 86.1882L506.962 89.7091C506.962 89.7091 505.851 90.0102 505.133 90.404L504.578 86.9295Z" fill="black"/>
</g>
<defs>
<clipPath id="clip0_197_1154">
<rect width="444" height="114.499" fill="white" transform="translate(69 14.3965)"/>
</clipPath>
</defs>
</svg>
