<svg width="186" height="25" viewBox="0 0 186 25" fill="none" xmlns="http://www.w3.org/2000/svg">
<path d="M6.8115 24.368L0.8355 0.655999H3.1875L9.1395 24.368H6.8115ZM39.0608 10.76H47.1248V13.88H39.0608V10.76ZM39.3488 20H35.4608V3.2H48.1568V6.32H39.3488V20ZM56.3642 20.192C54.9882 20.192 53.7642 19.904 52.6922 19.328C51.6362 18.752 50.7962 17.968 50.1722 16.976C49.5642 15.968 49.2602 14.824 49.2602 13.544C49.2602 12.248 49.5642 11.104 50.1722 10.112C50.7962 9.104 51.6362 8.32 52.6922 7.76C53.7642 7.184 54.9882 6.896 56.3642 6.896C57.7242 6.896 58.9402 7.184 60.0122 7.76C61.0842 8.32 61.9242 9.096 62.5322 10.088C63.1402 11.08 63.4442 12.232 63.4442 13.544C63.4442 14.824 63.1402 15.968 62.5322 16.976C61.9242 17.968 61.0842 18.752 60.0122 19.328C58.9402 19.904 57.7242 20.192 56.3642 20.192ZM56.3642 17.12C56.9882 17.12 57.5482 16.976 58.0442 16.688C58.5402 16.4 58.9322 15.992 59.2202 15.464C59.5082 14.92 59.6522 14.28 59.6522 13.544C59.6522 12.792 59.5082 12.152 59.2202 11.624C58.9322 11.096 58.5402 10.688 58.0442 10.4C57.5482 10.112 56.9882 9.968 56.3642 9.968C55.7402 9.968 55.1802 10.112 54.6842 10.4C54.1882 10.688 53.7882 11.096 53.4842 11.624C53.1962 12.152 53.0522 12.792 53.0522 13.544C53.0522 14.28 53.1962 14.92 53.4842 15.464C53.7882 15.992 54.1882 16.4 54.6842 16.688C55.1802 16.976 55.7402 17.12 56.3642 17.12ZM65.9468 20V2.192H69.6908V20H65.9468ZM73.1655 20V2.192H76.9095V20H73.1655ZM86.5283 20.192C85.1523 20.192 83.9283 19.904 82.8563 19.328C81.8003 18.752 80.9603 17.968 80.3363 16.976C79.7283 15.968 79.4243 14.824 79.4243 13.544C79.4243 12.248 79.7283 11.104 80.3363 10.112C80.9603 9.104 81.8003 8.32 82.8563 7.76C83.9283 7.184 85.1523 6.896 86.5283 6.896C87.8883 6.896 89.1043 7.184 90.1763 7.76C91.2483 8.32 92.0883 9.096 92.6963 10.088C93.3043 11.08 93.6083 12.232 93.6083 13.544C93.6083 14.824 93.3043 15.968 92.6963 16.976C92.0883 17.968 91.2483 18.752 90.1763 19.328C89.1043 19.904 87.8883 20.192 86.5283 20.192ZM86.5283 17.12C87.1523 17.12 87.7123 16.976 88.2083 16.688C88.7043 16.4 89.0963 15.992 89.3843 15.464C89.6723 14.92 89.8163 14.28 89.8163 13.544C89.8163 12.792 89.6723 12.152 89.3843 11.624C89.0963 11.096 88.7043 10.688 88.2083 10.4C87.7123 10.112 87.1523 9.968 86.5283 9.968C85.9043 9.968 85.3443 10.112 84.8483 10.4C84.3523 10.688 83.9523 11.096 83.6483 11.624C83.3603 12.152 83.2163 12.792 83.2163 13.544C83.2163 14.28 83.3603 14.92 83.6483 15.464C83.9523 15.992 84.3523 16.4 84.8483 16.688C85.3443 16.976 85.9043 17.12 86.5283 17.12ZM98.7113 20L94.0553 7.088H97.5833L101.447 18.2H99.7673L103.799 7.088H106.967L110.879 18.2H109.199L113.183 7.088H116.495L111.815 20H108.191L104.759 10.472H105.863L102.311 20H98.7113ZM130.481 20.192C129.409 20.192 128.449 19.984 127.601 19.568C126.769 19.152 126.121 18.52 125.657 17.672C125.193 16.808 124.961 15.712 124.961 14.384V7.088H128.705V13.832C128.705 14.904 128.929 15.696 129.377 16.208C129.841 16.704 130.489 16.952 131.321 16.952C131.897 16.952 132.409 16.832 132.857 16.592C133.305 16.336 133.657 15.952 133.913 15.44C134.169 14.912 134.297 14.256 134.297 13.472V7.088H138.041V20H134.489V16.448L135.137 17.48C134.705 18.376 134.065 19.056 133.217 19.52C132.385 19.968 131.473 20.192 130.481 20.192ZM145.853 20.192C144.749 20.192 143.685 20.064 142.661 19.808C141.653 19.536 140.853 19.2 140.261 18.8L141.509 16.112C142.101 16.48 142.797 16.784 143.597 17.024C144.413 17.248 145.213 17.36 145.997 17.36C146.861 17.36 147.469 17.256 147.821 17.048C148.189 16.84 148.373 16.552 148.373 16.184C148.373 15.88 148.229 15.656 147.941 15.512C147.669 15.352 147.301 15.232 146.837 15.152C146.373 15.072 145.861 14.992 145.301 14.912C144.757 14.832 144.205 14.728 143.645 14.6C143.085 14.456 142.573 14.248 142.109 13.976C141.645 13.704 141.269 13.336 140.981 12.872C140.709 12.408 140.573 11.808 140.573 11.072C140.573 10.256 140.805 9.536 141.269 8.912C141.749 8.288 142.437 7.8 143.333 7.448C144.229 7.08 145.301 6.896 146.549 6.896C147.429 6.896 148.325 6.992 149.237 7.184C150.149 7.376 150.909 7.656 151.517 8.024L150.269 10.688C149.645 10.32 149.013 10.072 148.373 9.944C147.749 9.8 147.141 9.728 146.549 9.728C145.717 9.728 145.109 9.84 144.725 10.064C144.341 10.288 144.149 10.576 144.149 10.928C144.149 11.248 144.285 11.488 144.557 11.648C144.845 11.808 145.221 11.936 145.685 12.032C146.149 12.128 146.653 12.216 147.197 12.296C147.757 12.36 148.317 12.464 148.877 12.608C149.437 12.752 149.941 12.96 150.389 13.232C150.853 13.488 151.229 13.848 151.517 14.312C151.805 14.76 151.949 15.352 151.949 16.088C151.949 16.888 151.709 17.6 151.229 18.224C150.749 18.832 150.053 19.312 149.141 19.664C148.245 20.016 147.149 20.192 145.853 20.192ZM176.843 24.368L182.843 0.655999H185.171L179.195 24.368H176.843Z" fill="black"/>
</svg>
