<svg width="14" height="13" viewBox="0 0 14 13" fill="none" xmlns="http://www.w3.org/2000/svg">
<path d="M6.75341 0.155963L5.87832 1.91578C5.80314 2.06476 5.6227 2.11752 5.48437 2.02752L3.75223 0.894649C3.55676 0.767396 3.30415 0.928792 3.32821 1.16778L3.52368 3.00519C3.54173 3.18521 3.39738 3.33729 3.22597 3.32177L1.18107 3.13865C0.93749 3.11693 0.79014 3.40557 0.943507 3.60111L2.07121 5.04745C2.18849 5.19643 2.13135 5.4199 1.95994 5.49128L0.173666 6.23619C-0.057888 6.3324 -0.057888 6.6676 0.173666 6.76382L1.95994 7.50871C2.13135 7.5801 2.18849 7.80357 2.07121 7.95255L0.943507 9.39889C0.79014 9.59442 0.940498 9.88308 1.18107 9.86135L3.22597 9.67823C3.40039 9.66271 3.54473 9.81479 3.52368 9.99481L3.32821 11.8322C3.30415 12.0712 3.55676 12.2326 3.75223 12.1053L5.48437 10.9725C5.6227 10.8825 5.80314 10.9352 5.87832 11.0842L6.75341 12.844C6.85565 13.052 7.14134 13.052 7.24659 12.844L8.12168 11.0842C8.19686 10.9352 8.37729 10.8825 8.51562 10.9725L10.2478 12.1053C10.4432 12.2326 10.6958 12.0712 10.6718 11.8322L10.4763 9.99481C10.4583 9.81479 10.6026 9.66271 10.774 9.67823L12.8189 9.86135C13.0625 9.88308 13.2099 9.59442 13.0565 9.39889L11.9288 7.95255C11.8115 7.80357 11.8686 7.5801 12.0401 7.50871L13.8263 6.76382C14.0579 6.6676 14.0579 6.3324 13.8263 6.23619L12.0401 5.49128C11.8686 5.4199 11.8115 5.19643 11.9288 5.04745L13.0565 3.60111C13.2099 3.40557 13.0595 3.11693 12.8189 3.13865L10.774 3.32177C10.5996 3.33729 10.4553 3.18521 10.4763 3.00519L10.6718 1.16778C10.6958 0.928792 10.4432 0.767396 10.2478 0.894649L8.51562 2.02752C8.37729 2.11752 8.19686 2.06476 8.12168 1.91578L7.24659 0.155963C7.14434 -0.0519876 6.85866 -0.0519876 6.75341 0.155963Z" fill="url(#paint0_linear_205_10843)"/>
<defs>
<linearGradient id="paint0_linear_205_10843" x1="0.673981" y1="13" x2="13.6692" y2="0.35262" gradientUnits="userSpaceOnUse">
<stop stop-color="#FFEB01"/>
<stop offset="1" stop-color="#FF9C00"/>
</linearGradient>
</defs>
</svg>
