<svg width="70" height="16" viewBox="0 0 70 16" fill="none" xmlns="http://www.w3.org/2000/svg">
<path d="M9.01949 1.7457C6.37964 1.67237 2.68385 1.81903 0 1.81903V15.5462H3.84245V5.16284C3.84245 5.16284 7.25959 5.04552 8.49152 5.19217C9.65012 5.32417 10.0754 6.04279 10.1194 7.53871C10.1488 9.23994 10.1194 10.1346 10.1194 15.5462H13.9619C13.9619 15.5462 14.0059 9.35727 13.9619 7.20139C13.9032 3.37361 12.5686 1.8337 9.01949 1.7457Z" fill="black"/>
<path d="M26.7945 1.7017C22.996 1.7017 19.9015 4.81086 19.9015 8.63864C19.9015 12.4664 22.996 15.5756 26.7945 15.5756C30.5929 15.5756 33.6874 12.4664 33.6874 8.63864C33.6874 4.81086 30.5929 1.7017 26.7945 1.7017ZM26.7945 12.2611C24.7999 12.2611 23.1867 10.6332 23.1867 8.62397C23.1867 6.61475 24.7999 4.98685 26.7945 4.98685C28.789 4.98685 30.4023 6.61475 30.4023 8.62397C30.4023 10.6479 28.789 12.2611 26.7945 12.2611Z" fill="black"/>
<path d="M70 8.63864C70 4.81086 66.9055 1.7017 63.1071 1.7017C59.3086 1.7017 56.2141 4.81086 56.2141 8.63864C56.2141 10.8825 57.2407 12.8037 58.8393 14.0797C59.9539 14.9596 61.5085 15.5756 63.591 15.5756C64.603 15.5756 67.2282 15.2969 69.1201 13.1997L67.5655 11.1172C66.9055 11.7038 65.2483 12.5251 63.9283 12.5251C62.2564 12.5251 61.2445 12.2024 60.5112 11.5131C60.0566 11.1025 59.7339 10.4719 59.5873 9.69458H69.8973C69.956 9.3426 70 9.00528 70 8.63864ZM59.6166 7.37738C59.9979 5.74947 61.1418 4.54687 63.0924 4.54687C65.1309 4.54687 66.2016 5.83746 66.5535 7.37738H59.6166Z" fill="black"/>
<path d="M46.74 0.425781H43.1469V4.28289H39.4511V7.65604H43.1469V11.6598H46.74V7.65604H50.4358V4.28289H46.74V0.425781Z" fill="black"/>
</svg>
