<svg width="1440" height="275" viewBox="0 0 1440 275" fill="none" xmlns="http://www.w3.org/2000/svg">
<path d="M1396.11 264.006V248.782H1365.66V260.961H1359.4V234.577H1330.54V102.118H1318.84V96.0367H1293.66V103.644H1246.24V253.854H1228.69V250.813H1210.54V256.894H1198.83V249.294H1187.71V256.894H1163.12L1162.53 247.261H1153.17L1143.81 249.792V260.449H1119.8V177.224H1098.14V167.081H1058.34V173.167H1039.6V178.755H1012.68V247.773H983.9V41.1628H889.907V212.753H868.084V205.131H859.892V212.753H852.866V202.091H845.84V33.6117H842.333V29.0474H834.135V23.4639H841.748V19.397H775.604V23.4639H781.457V32.0878H761.556V198.533L749.268 196.008L742.234 197.529V203.62H732.292V54.7557H730.134V45.788H731.709V43.0768H677.439V46.3415H681.264V52.4955H670.065V65.0351L666.518 68.1146V206.894H650.138V215.403H643.58V231.978H649.59V238.6H641.951V253.744H634.847V233.87H621.192V230.552H609.191V235.292H597.174V231.981H581.882V221.565H558.957V74.2149L548.034 72.3107V61.9069H550.216V57.1671L503.804 54.7996L481.752 56.6989V62.8481H493.986L494.526 71.8377L467.228 75.1536V235.918H460.503V219.009H449.577V213.597H438.65V206.155H423.046V210.217H405.87V206.155H358.26V224.42H345.776V253.515H336.416V242.011H327.047V237.281H309.871L306.75 234.575L303.628 139.839C303.628 139.839 297.384 129.689 293.486 128.338V123.603H269.284V128.338H273.964V155.399L264.604 168.939V220.355H245.083V231.183H232.601V223.752H198.249V177.06H174.053V225.093H159.223V242.696H133.469V228.484H114.735V250.811H104.154V238.632H74.924V256.894H25.7615V274.824H0.00189472L0 0H1440L1440 264.004L1396.11 264.006Z" fill="#FFFDE6"/>
</svg>
