<svg width="1443" height="40" viewBox="0 0 1443 40" fill="none" xmlns="http://www.w3.org/2000/svg">
<path d="M1402 20C1390 20 1374.5 -5.9789e-06 1362 -7.07161e-06C1349.5 -8.16432e-06 1453.5 9.27574e-07 1442 -7.77877e-08C1430.5 -1.08315e-06 1414 20 1402 20Z" fill="#FFFDE6"/>
<path d="M1322 20C1310 20 1294.5 -5.9789e-06 1282 -7.07161e-06C1269.5 -8.16432e-06 1373.5 9.27574e-07 1362 -7.77877e-08C1350.5 -1.08315e-06 1334 20 1322 20Z" fill="#FFFDE6"/>
<path d="M1242 20C1230 20 1214.5 -5.9789e-06 1202 -7.07161e-06C1189.5 -8.16432e-06 1293.5 9.27574e-07 1282 -7.77877e-08C1270.5 -1.08315e-06 1254 20 1242 20Z" fill="#FFFDE6"/>
<path d="M1162 20C1150 20 1134.5 -5.9789e-06 1122 -7.07161e-06C1109.5 -8.16432e-06 1213.5 9.27574e-07 1202 -7.77877e-08C1190.5 -1.08315e-06 1174 20 1162 20Z" fill="#FFFDE6"/>
<path d="M1082 20C1070 20 1054.5 -5.9789e-06 1042 -7.07161e-06C1029.5 -8.16432e-06 1133.5 9.27574e-07 1122 -7.77877e-08C1110.5 -1.08315e-06 1094 20 1082 20Z" fill="#FFFDE6"/>
<path d="M1002 20C990.001 20 974.5 -5.9789e-06 962.001 -7.07161e-06C949.502 -8.16432e-06 1053.5 9.27574e-07 1042 -7.77877e-08C1030.5 -1.08315e-06 1014 20 1002 20Z" fill="#FFFDE6"/>
<path d="M922.001 20C910.001 20 894.5 -5.9789e-06 882.001 -7.07161e-06C869.502 -8.16432e-06 973.501 9.27574e-07 962.001 -7.77877e-08C950.501 -1.08315e-06 934.001 20 922.001 20Z" fill="#FFFDE6"/>
<path d="M842.001 20C830.001 20 814.5 -5.9789e-06 802.001 -7.07161e-06C789.502 -8.16432e-06 893.501 9.27574e-07 882.001 -7.77877e-08C870.501 -1.08315e-06 854.001 20 842.001 20Z" fill="#FFFDE6"/>
<path d="M762.001 20C750.001 20 734.5 -5.9789e-06 722.001 -7.07161e-06C709.502 -8.16432e-06 813.501 9.27574e-07 802.001 -7.77877e-08C790.501 -1.08315e-06 774.001 20 762.001 20Z" fill="#FFFDE6"/>
<path d="M682.001 20C670.001 20 654.5 -5.9789e-06 642.001 -7.07161e-06C629.502 -8.16432e-06 733.501 9.27574e-07 722.001 -7.77877e-08C710.501 -1.08315e-06 694.001 20 682.001 20Z" fill="#FFFDE6"/>
<path d="M602.001 20C590.001 20 574.5 -5.9789e-06 562.001 -7.07161e-06C549.502 -8.16432e-06 653.501 9.27574e-07 642.001 -7.77877e-08C630.501 -1.08315e-06 614.001 20 602.001 20Z" fill="#FFFDE6"/>
<path d="M522.001 20C510.001 20 494.5 -5.9789e-06 482.001 -7.07161e-06C469.502 -8.16432e-06 573.501 9.27574e-07 562.001 -7.77877e-08C550.501 -1.08315e-06 534.001 20 522.001 20Z" fill="#FFFDE6"/>
<path d="M442.001 20C430.001 20 414.5 -5.9789e-06 402.001 -7.07161e-06C389.502 -8.16432e-06 493.501 9.27574e-07 482.001 -7.77877e-08C470.501 -1.08315e-06 454.001 20 442.001 20Z" fill="#FFFDE6"/>
<path d="M362.001 20C350.001 20 334.5 -5.9789e-06 322.001 -7.07161e-06C309.502 -8.16432e-06 413.501 9.27574e-07 402.001 -7.77877e-08C390.501 -1.08315e-06 374.001 20 362.001 20Z" fill="#FFFDE6"/>
<path d="M282.001 20C270.001 20 254.5 -5.9789e-06 242.001 -7.07161e-06C229.502 -8.16432e-06 333.501 9.27574e-07 322.001 -7.77877e-08C310.501 -1.08315e-06 294.001 20 282.001 20Z" fill="#FFFDE6"/>
<path d="M202.001 20C190.001 20 174.5 -5.9789e-06 162.001 -7.07161e-06C149.502 -8.16432e-06 253.501 9.27574e-07 242.001 -7.77877e-08C230.501 -1.08315e-06 214.001 20 202.001 20Z" fill="#FFFDE6"/>
<path d="M122.001 20C110.001 20 94.5 -5.9789e-06 82.0008 -7.07161e-06C69.5016 -8.16432e-06 173.501 9.27574e-07 162.001 -7.77877e-08C150.501 -1.08315e-06 134.001 20 122.001 20Z" fill="#FFFDE6"/>
<path d="M42.0008 20C30.0008 20 14.5 -5.9789e-06 2.00083 -7.07161e-06C-10.4984 -8.16432e-06 93.5008 9.27574e-07 82.0008 -7.77877e-08C70.5008 -1.08315e-06 54.0008 20 42.0008 20Z" fill="#FFFDE6"/>
</svg>
