<svg width="510" height="15" viewBox="0 0 510 15" fill="none" xmlns="http://www.w3.org/2000/svg">
<path d="M494.91 7.05664C490.677 7.05664 485.208 0.000800884 480.799 0.000800499C476.389 0.000800113 513.079 0.000803321 509.022 0.000802966C504.965 0.000802612 499.144 7.05664 494.91 7.05664Z" fill="#FFFDE6"/>
<path d="M466.688 7.05664C462.454 7.05664 456.986 0.000800884 452.576 0.000800499C448.166 0.000800113 484.856 0.000803321 480.799 0.000802966C476.742 0.000802612 470.921 7.05664 466.688 7.05664Z" fill="#FFFDE6"/>
<path d="M438.463 7.05664C434.23 7.05664 428.761 0.000800884 424.351 0.000800499C419.942 0.000800113 456.632 0.000803321 452.575 0.000802966C448.518 0.000802612 442.697 7.05664 438.463 7.05664Z" fill="#FFFDE6"/>
<path d="M410.24 7.05664C406.007 7.05664 400.538 0.000800884 396.129 0.000800499C391.719 0.000800113 428.409 0.000803321 424.352 0.000802966C420.295 0.000802612 414.474 7.05664 410.24 7.05664Z" fill="#FFFDE6"/>
<path d="M382.018 7.05664C377.784 7.05664 372.316 0.000800884 367.906 0.000800499C363.496 0.000800113 400.187 0.000803321 396.129 0.000802966C392.072 0.000802612 386.251 7.05664 382.018 7.05664Z" fill="#FFFDE6"/>
<path d="M353.793 7.05664C349.56 7.05664 344.091 0.000800884 339.681 0.000800499C335.272 0.000800113 371.962 0.000803321 367.905 0.000802966C363.848 0.000802612 358.027 7.05664 353.793 7.05664Z" fill="#FFFDE6"/>
<path d="M325.571 7.05664C321.337 7.05664 315.868 0.000800884 311.459 0.000800499C307.049 0.000800113 343.739 0.000803321 339.682 0.000802966C335.625 0.000802612 329.804 7.05664 325.571 7.05664Z" fill="#FFFDE6"/>
<path d="M297.348 7.05469C293.114 7.05469 287.646 -0.00115224 283.236 -0.00115263C278.827 -0.00115301 315.517 -0.0011498 311.46 -0.00115016C307.402 -0.00115051 301.581 7.05469 297.348 7.05469Z" fill="#FFFDE6"/>
<path d="M269.123 7.05664C264.89 7.05664 259.421 0.000800884 255.012 0.000800499C250.602 0.000800113 287.292 0.000803321 283.235 0.000802966C279.178 0.000802612 273.357 7.05664 269.123 7.05664Z" fill="#FFFDE6"/>
<path d="M240.901 7.05664C236.667 7.05664 231.199 0.000800884 226.789 0.000800499C222.379 0.000800113 259.069 0.000803321 255.012 0.000802966C250.955 0.000802612 245.134 7.05664 240.901 7.05664Z" fill="#FFFDE6"/>
<path d="M212.676 7.05664C208.442 7.05664 202.974 0.000800884 198.564 0.000800499C194.155 0.000800113 230.845 0.000803321 226.788 0.000802966C222.731 0.000802612 216.909 7.05664 212.676 7.05664Z" fill="#FFFDE6"/>
<path d="M184.453 7.05664C180.22 7.05664 174.751 0.000800884 170.342 0.000800499C165.932 0.000800113 202.622 0.000803321 198.565 0.000802966C194.508 0.000802612 188.687 7.05664 184.453 7.05664Z" fill="#FFFDE6"/>
<path d="M156.231 7.05664C151.997 7.05664 146.529 0.000800884 142.119 0.000800499C137.709 0.000800113 174.399 0.000803321 170.342 0.000802966C166.285 0.000802612 160.464 7.05664 156.231 7.05664Z" fill="#FFFDE6"/>
<path d="M128.006 7.05664C123.773 7.05664 118.304 0.000800884 113.894 0.000800499C109.485 0.000800113 146.175 0.000803321 142.118 0.000802966C138.061 0.000802612 132.24 7.05664 128.006 7.05664Z" fill="#FFFDE6"/>
<path d="M99.7834 7.05664C95.5499 7.05664 90.0813 0.000800884 85.6717 0.000800499C81.2621 0.000800113 117.952 0.000803321 113.895 0.000802966C109.838 0.000802612 104.017 7.05664 99.7834 7.05664Z" fill="#FFFDE6"/>
<path d="M71.5607 7.05664C67.3272 7.05664 61.8587 0.000800884 57.4491 0.000800499C53.0395 0.000800113 89.7295 0.000803321 85.6724 0.000802966C81.6153 0.000802612 75.7942 7.05664 71.5607 7.05664Z" fill="#FFFDE6"/>
<path d="M43.3361 7.05664C39.1026 7.05664 33.6341 0.000800884 29.2245 0.000800499C24.8148 0.000800113 61.5049 0.000803321 57.4478 0.000802966C53.3907 0.000802612 47.5696 7.05664 43.3361 7.05664Z" fill="#FFFDE6"/>
<path d="M15.1115 7.05664C10.878 7.05664 5.40945 0.000800884 0.999846 0.000800499C-3.40976 0.000800113 33.2803 0.000803321 29.2232 0.000802966C25.1661 0.000802612 19.345 7.05664 15.1115 7.05664Z" fill="#FFFDE6"/>
</svg>
