<svg width="1443" height="40" viewBox="0 0 1443 40" fill="none" xmlns="http://www.w3.org/2000/svg">
<path d="M40.9992 20C52.9992 20 68.5 40 80.9992 40C93.4984 40 -10.5008 40 0.999163 40C12.4992 40 28.9992 20 40.9992 20Z" fill="#FFFDE6"/>
<path d="M120.999 20C132.999 20 148.5 40 160.999 40C173.498 40 69.4992 40 80.9992 40C92.4992 40 108.999 20 120.999 20Z" fill="#FFFDE6"/>
<path d="M200.999 20C212.999 20 228.5 40 240.999 40C253.498 40 149.499 40 160.999 40C172.499 40 188.999 20 200.999 20Z" fill="#FFFDE6"/>
<path d="M280.999 20C292.999 20 308.5 40 320.999 40C333.498 40 229.499 40 240.999 40C252.499 40 268.999 20 280.999 20Z" fill="#FFFDE6"/>
<path d="M360.999 20C372.999 20 388.5 40 400.999 40C413.498 40 309.499 40 320.999 40C332.499 40 348.999 20 360.999 20Z" fill="#FFFDE6"/>
<path d="M440.999 20C452.999 20 468.5 40 480.999 40C493.498 40 389.499 40 400.999 40C412.499 40 428.999 20 440.999 20Z" fill="#FFFDE6"/>
<path d="M520.999 20C532.999 20 548.5 40 560.999 40C573.498 40 469.499 40 480.999 40C492.499 40 508.999 20 520.999 20Z" fill="#FFFDE6"/>
<path d="M600.999 20C612.999 20 628.5 40 640.999 40C653.498 40 549.499 40 560.999 40C572.499 40 588.999 20 600.999 20Z" fill="#FFFDE6"/>
<path d="M680.999 20C692.999 20 708.5 40 720.999 40C733.498 40 629.499 40 640.999 40C652.499 40 668.999 20 680.999 20Z" fill="#FFFDE6"/>
<path d="M760.999 20C772.999 20 788.5 40 800.999 40C813.498 40 709.499 40 720.999 40C732.499 40 748.999 20 760.999 20Z" fill="#FFFDE6"/>
<path d="M840.999 20C852.999 20 868.5 40 880.999 40C893.498 40 789.499 40 800.999 40C812.499 40 828.999 20 840.999 20Z" fill="#FFFDE6"/>
<path d="M920.999 20C932.999 20 948.5 40 960.999 40C973.498 40 869.499 40 880.999 40C892.499 40 908.999 20 920.999 20Z" fill="#FFFDE6"/>
<path d="M1001 20C1013 20 1028.5 40 1041 40C1053.5 40 949.499 40 960.999 40C972.499 40 988.999 20 1001 20Z" fill="#FFFDE6"/>
<path d="M1081 20C1093 20 1108.5 40 1121 40C1133.5 40 1029.5 40 1041 40C1052.5 40 1069 20 1081 20Z" fill="#FFFDE6"/>
<path d="M1161 20C1173 20 1188.5 40 1201 40C1213.5 40 1109.5 40 1121 40C1132.5 40 1149 20 1161 20Z" fill="#FFFDE6"/>
<path d="M1241 20C1253 20 1268.5 40 1281 40C1293.5 40 1189.5 40 1201 40C1212.5 40 1229 20 1241 20Z" fill="#FFFDE6"/>
<path d="M1321 20C1333 20 1348.5 40 1361 40C1373.5 40 1269.5 40 1281 40C1292.5 40 1309 20 1321 20Z" fill="#FFFDE6"/>
<path d="M1401 20C1413 20 1428.5 40 1441 40C1453.5 40 1349.5 40 1361 40C1372.5 40 1389 20 1401 20Z" fill="#FFFDE6"/>
</svg>
