<svg width="510" height="15" viewBox="0 0 510 15" fill="none" xmlns="http://www.w3.org/2000/svg">
<path d="M15.1111 7.05664C19.3446 7.05664 24.8132 14.1125 29.2228 14.1125C33.6324 14.1125 -3.05765 14.1125 0.999456 14.1125C5.05656 14.1125 10.8776 7.05664 15.1111 7.05664Z" fill="#FFFDE6"/>
<path d="M43.3338 7.05664C47.5673 7.05664 53.0359 14.1125 57.4455 14.1125C61.8551 14.1125 25.165 14.1125 29.2221 14.1125C33.2792 14.1125 39.1003 7.05664 43.3338 7.05664Z" fill="#FFFDE6"/>
<path d="M71.5584 7.05664C75.7919 7.05664 81.2605 14.1125 85.6701 14.1125C90.0797 14.1125 53.3896 14.1125 57.4467 14.1125C61.5038 14.1125 67.3249 7.05664 71.5584 7.05664Z" fill="#FFFDE6"/>
<path d="M99.7811 7.05664C104.015 7.05664 109.483 14.1125 113.893 14.1125C118.302 14.1125 81.6123 14.1125 85.6694 14.1125C89.7265 14.1125 95.5476 7.05664 99.7811 7.05664Z" fill="#FFFDE6"/>
<path d="M128.004 7.05664C132.237 7.05664 137.706 14.1125 142.115 14.1125C146.525 14.1125 109.835 14.1125 113.892 14.1125C117.949 14.1125 123.77 7.05664 128.004 7.05664Z" fill="#FFFDE6"/>
<path d="M156.228 7.05664C160.462 7.05664 165.93 14.1125 170.34 14.1125C174.75 14.1125 138.06 14.1125 142.117 14.1125C146.174 14.1125 151.995 7.05664 156.228 7.05664Z" fill="#FFFDE6"/>
<path d="M184.451 7.05664C188.684 7.05664 194.153 14.1125 198.563 14.1125C202.972 14.1125 166.282 14.1125 170.339 14.1125C174.396 14.1125 180.217 7.05664 184.451 7.05664Z" fill="#FFFDE6"/>
<path d="M212.674 7.0586C216.907 7.0586 222.376 14.1144 226.785 14.1144C231.195 14.1144 194.505 14.1144 198.562 14.1144C202.619 14.1144 208.44 7.0586 212.674 7.0586Z" fill="#FFFDE6"/>
<path d="M240.898 7.05664C245.132 7.05664 250.6 14.1125 255.01 14.1125C259.42 14.1125 222.729 14.1125 226.787 14.1125C230.844 14.1125 236.665 7.05664 240.898 7.05664Z" fill="#FFFDE6"/>
<path d="M269.121 7.05664C273.354 7.05664 278.823 14.1125 283.233 14.1125C287.642 14.1125 250.952 14.1125 255.009 14.1125C259.066 14.1125 264.887 7.05664 269.121 7.05664Z" fill="#FFFDE6"/>
<path d="M297.346 7.05664C301.579 7.05664 307.048 14.1125 311.457 14.1125C315.867 14.1125 279.177 14.1125 283.234 14.1125C287.291 14.1125 293.112 7.05664 297.346 7.05664Z" fill="#FFFDE6"/>
<path d="M325.568 7.05664C329.802 7.05664 335.27 14.1125 339.68 14.1125C344.089 14.1125 307.399 14.1125 311.456 14.1125C315.514 14.1125 321.335 7.05664 325.568 7.05664Z" fill="#FFFDE6"/>
<path d="M353.791 7.05664C358.024 7.05664 363.493 14.1125 367.902 14.1125C372.312 14.1125 335.622 14.1125 339.679 14.1125C343.736 14.1125 349.557 7.05664 353.791 7.05664Z" fill="#FFFDE6"/>
<path d="M382.015 7.05664C386.249 7.05664 391.717 14.1125 396.127 14.1125C400.537 14.1125 363.847 14.1125 367.904 14.1125C371.961 14.1125 377.782 7.05664 382.015 7.05664Z" fill="#FFFDE6"/>
<path d="M410.236 7.05664C414.47 7.05664 419.938 14.1125 424.348 14.1125C428.757 14.1125 392.067 14.1125 396.124 14.1125C400.182 14.1125 406.003 7.05664 410.236 7.05664Z" fill="#FFFDE6"/>
<path d="M438.461 7.05664C442.694 7.05664 448.163 14.1125 452.572 14.1125C456.982 14.1125 420.292 14.1125 424.349 14.1125C428.406 14.1125 434.227 7.05664 438.461 7.05664Z" fill="#FFFDE6"/>
<path d="M466.683 7.05664C470.917 7.05664 476.385 14.1125 480.795 14.1125C485.205 14.1125 448.515 14.1125 452.572 14.1125C456.629 14.1125 462.45 7.05664 466.683 7.05664Z" fill="#FFFDE6"/>
<path d="M494.91 7.05664C499.143 7.05664 504.612 14.1125 509.022 14.1125C513.431 14.1125 476.741 14.1125 480.798 14.1125C484.855 14.1125 490.676 7.05664 494.91 7.05664Z" fill="#FFFDE6"/>
</svg>
