<svg width="400" height="400" viewBox="0 0 400 400" fill="none" xmlns="http://www.w3.org/2000/svg">
<rect width="400" height="400" fill="white"/>
<g clip-path="url(#clip0_35_22)">
<path d="M174.414 126.875L188.008 150H187.5H159.375C150.742 150 143.75 143.008 143.75 134.375C143.75 125.742 150.742 118.75 159.375 118.75H160.234C166.055 118.75 171.484 121.836 174.414 126.875ZM125 134.375C125 140 126.367 145.312 128.75 150H112.5C105.586 150 100 155.586 100 162.5V187.5C100 194.414 105.586 200 112.5 200H287.5C294.414 200 300 194.414 300 187.5V162.5C300 155.586 294.414 150 287.5 150H271.25C273.633 145.312 275 140 275 134.375C275 115.391 259.609 100 240.625 100H239.766C227.305 100 215.742 106.602 209.414 117.344L200 133.398L190.586 117.383C184.258 106.602 172.695 100 160.234 100H159.375C140.391 100 125 115.391 125 134.375ZM256.25 134.375C256.25 143.008 249.258 150 240.625 150H212.5H211.992L225.586 126.875C228.555 121.836 233.945 118.75 239.766 118.75H240.625C249.258 118.75 256.25 125.742 256.25 134.375ZM112.5 212.5V281.25C112.5 291.602 120.898 300 131.25 300H187.5V212.5H112.5ZM212.5 300H268.75C279.102 300 287.5 291.602 287.5 281.25V212.5H212.5V300Z" fill="#CCCCCC"/>
</g>
<defs>
<clipPath id="clip0_35_22">
<rect width="200" height="200" fill="white" transform="translate(100 100)"/>
</clipPath>
</defs>
</svg>
