<svg xmlns="http://www.w3.org/2000/svg" viewBox="0 0 1995.26 597.17"><defs><style>.cls-1{fill:#0686d0}</style></defs><g id="_レイヤー_1-2" data-name="レイヤー_1"><circle class="cls-1" cx="239.12" cy="328.24" r="59.26" transform="rotate(-67.5 239.124 328.24)"/><path class="cls-1" d="m451.33 273.85 98.48 44.47c2.07-13.65 3.15-27.62 3.15-41.84C552.95 123.78 429.17 0 276.48 0S0 123.78 0 276.48c0 70.38 26.31 134.6 69.61 183.4L48.4 597.16l121.49-65.52c32.8 13.72 68.81 21.31 106.59 21.31 101.8 0 190.73-55.03 238.72-136.95l-93.24-43.48c-31.2 47.16-84.7 78.27-145.47 78.27-96.27 0-174.31-78.04-174.31-174.31s78.04-174.31 174.31-174.31 174.08 76.08 174.85 171.69ZM889.67 348.09l81.61 24.67c-5.48 22.89-14.12 42.01-25.9 57.36-11.79 15.35-26.42 26.93-43.89 34.74-17.47 7.81-39.71 11.72-66.71 11.72-32.76 0-59.51-4.76-80.28-14.28-20.76-9.52-38.68-26.26-53.76-50.23-15.08-23.97-22.61-54.65-22.61-92.04 0-49.85 13.26-88.17 39.78-114.94 26.52-26.78 64.04-40.16 112.55-40.16 37.96 0 67.8 7.68 89.53 23.02 21.72 15.35 37.86 38.93 48.41 70.72l-82.23 18.3c-2.88-9.18-5.89-15.9-9.05-20.15-5.21-7.12-11.58-12.61-19.12-16.45-7.54-3.83-15.97-5.76-25.29-5.76-21.11 0-37.28 8.49-48.52 25.46-8.5 12.6-12.75 32.38-12.75 59.34 0 33.4 5.07 56.3 15.21 68.68 10.14 12.39 24.39 18.58 42.76 18.58s31.28-5 40.4-15.01c9.11-10 15.73-24.53 19.84-43.58ZM1004.79 320.95c0-49.2 13.7-87.5 41.12-114.92 27.41-27.41 65.58-41.12 114.51-41.12s88.81 13.47 115.95 40.4 40.7 64.65 40.7 113.17c0 35.23-5.93 64.11-17.78 86.65-11.86 22.55-28.99 40.09-51.39 52.63-22.41 12.54-50.33 18.81-83.77 18.81s-62.12-5.41-84.39-16.24c-22.27-10.82-40.33-27.96-54.17-51.39-13.84-23.44-20.76-52.76-20.76-87.99Zm93.13.41c0 30.43 5.65 52.29 16.96 65.58 11.31 13.3 26.69 19.94 46.15 19.94s35.49-6.51 46.46-19.53c10.96-13.02 16.45-36.39 16.45-70.1 0-28.37-5.72-49.1-17.17-62.19-11.45-13.09-26.97-19.63-46.56-19.63s-33.85 6.65-45.23 19.94c-11.38 13.3-17.06 35.29-17.06 65.99ZM1567.87 348.09l81.61 24.67c-5.48 22.89-14.12 42.01-25.9 57.36-11.79 15.35-26.42 26.93-43.89 34.74-17.47 7.81-39.71 11.72-66.71 11.72-32.76 0-59.51-4.76-80.28-14.28-20.76-9.52-38.68-26.26-53.76-50.23-15.08-23.97-22.61-54.65-22.61-92.04 0-49.85 13.26-88.17 39.78-114.94 26.52-26.78 64.04-40.16 112.55-40.16 37.96 0 67.8 7.68 89.53 23.02 21.72 15.35 37.86 38.93 48.41 70.72l-82.23 18.3c-2.88-9.18-5.89-15.9-9.05-20.15-5.21-7.12-11.58-12.61-19.12-16.45-7.54-3.83-15.97-5.76-25.29-5.76-21.11 0-37.28 8.49-48.52 25.46-8.5 12.6-12.75 32.38-12.75 59.34 0 33.4 5.07 56.3 15.21 68.68 10.14 12.39 24.39 18.58 42.76 18.58s31.28-5 40.4-15.01c9.11-10 15.73-24.53 19.84-43.58ZM1682.99 320.95c0-49.2 13.7-87.5 41.12-114.92 27.41-27.41 65.58-41.12 114.51-41.12s88.81 13.47 115.95 40.4 40.7 64.65 40.7 113.17c0 35.23-5.93 64.11-17.78 86.65-11.86 22.55-28.99 40.09-51.39 52.63-22.41 12.54-50.33 18.81-83.77 18.81s-62.12-5.41-84.39-16.24c-22.27-10.82-40.33-27.96-54.17-51.39-13.84-23.44-20.76-52.76-20.76-87.99Zm93.13.41c0 30.43 5.65 52.29 16.96 65.58 11.31 13.3 26.69 19.94 46.15 19.94s35.49-6.51 46.46-19.53c10.96-13.02 16.45-36.39 16.45-70.1 0-28.37-5.72-49.1-17.17-62.19-11.45-13.09-26.97-19.63-46.56-19.63s-33.85 6.65-45.23 19.94c-11.38 13.3-17.06 35.29-17.06 65.99Z"/></g></svg>
