<svg width="281" height="391" viewBox="0 0 281 391" fill="none" xmlns="http://www.w3.org/2000/svg">
<path d="M220.01 389.27C219.59 389.27 219.24 389.13 218.97 388.86C218.7 388.59 218.56 388.24 218.56 387.82V374.72H205.65C205.23 374.72 204.88 374.58 204.61 374.31C204.34 374.04 204.2 373.69 204.2 373.27V371.26C204.2 370.84 204.34 370.49 204.61 370.22C204.88 369.95 205.23 369.81 205.65 369.81H218.56V357.09C218.56 356.67 218.7 356.32 218.97 356.05C219.24 355.78 219.59 355.64 220.01 355.64H222.21C222.63 355.64 222.98 355.78 223.25 356.05C223.52 356.32 223.66 356.67 223.66 357.09V369.81H236.63C237.05 369.81 237.4 369.95 237.67 370.22C237.94 370.49 238.08 370.84 238.08 371.26V373.27C238.08 373.69 237.94 374.04 237.67 374.31C237.4 374.58 237.05 374.72 236.63 374.72H223.66V387.82C223.66 388.24 223.52 388.59 223.25 388.86C222.98 389.13 222.63 389.27 222.21 389.27H220.01Z" fill="#3F3F41"/>
<path d="M151.68 389.37C151.26 389.37 150.91 389.23 150.64 388.96C150.37 388.69 150.23 388.34 150.23 387.92V358.07C150.23 357.65 150.37 357.3 150.64 357.03C150.91 356.76 151.26 356.62 151.68 356.62H154.51C154.93 356.62 155.27 356.76 155.55 357.03C155.82 357.3 155.96 357.65 155.96 358.07V360.27C156.92 358.97 158.14 357.93 159.61 357.15C161.08 356.37 162.84 355.98 164.9 355.98C169.64 355.94 173 357.87 174.98 361.78C175.95 360.02 177.35 358.61 179.2 357.56C181.05 356.51 183.15 355.98 185.5 355.98C187.68 355.98 189.67 356.49 191.45 357.49C193.23 358.5 194.64 360.02 195.67 362.06C196.7 364.1 197.21 366.65 197.21 369.71V387.91C197.21 388.33 197.07 388.68 196.8 388.95C196.53 389.22 196.18 389.36 195.76 389.36H192.8C192.38 389.36 192.03 389.22 191.76 388.95C191.49 388.68 191.35 388.33 191.35 387.91V370.28C191.35 367.93 191.01 366.08 190.34 364.74C189.67 363.4 188.77 362.45 187.63 361.91C186.5 361.36 185.26 361.09 183.91 361.09C182.82 361.09 181.71 361.36 180.57 361.91C179.44 362.46 178.5 363.4 177.77 364.74C177.03 366.08 176.67 367.93 176.67 370.28V387.91C176.67 388.33 176.53 388.68 176.26 388.95C175.99 389.22 175.64 389.36 175.22 389.36H172.26C171.84 389.36 171.49 389.22 171.22 388.95C170.95 388.68 170.81 388.33 170.81 387.91V370.28C170.81 367.93 170.45 366.08 169.74 364.74C169.03 363.4 168.1 362.45 166.97 361.91C165.84 361.36 164.64 361.09 163.38 361.09C162.29 361.09 161.18 361.36 160.04 361.91C158.91 362.46 157.97 363.4 157.24 364.74C156.5 366.08 156.14 367.91 156.14 370.22V387.92C156.14 388.34 156 388.69 155.73 388.96C155.46 389.23 155.11 389.37 154.69 389.37H151.67H151.68Z" fill="#3F3F41"/>
<path d="M124.6 390C122.5 390 120.59 389.58 118.87 388.74C117.15 387.9 115.76 386.77 114.71 385.34C113.66 383.91 113.14 382.29 113.14 380.49C113.14 377.59 114.31 375.28 116.67 373.56C119.02 371.84 122.09 370.7 125.86 370.16L135.24 368.84V367.01C135.24 365 134.66 363.42 133.51 362.29C132.35 361.16 130.48 360.59 127.87 360.59C126.02 360.59 124.51 360.97 123.33 361.72C122.15 362.48 121.34 363.44 120.87 364.62C120.62 365.25 120.18 365.56 119.55 365.56H116.72C116.26 365.56 115.91 365.42 115.68 365.15C115.45 364.88 115.33 364.55 115.33 364.17C115.33 363.54 115.57 362.76 116.05 361.84C116.53 360.92 117.28 360.01 118.29 359.13C119.3 358.25 120.59 357.5 122.16 356.89C123.73 356.28 125.66 355.98 127.92 355.98C130.44 355.98 132.56 356.31 134.28 356.96C136 357.61 137.36 358.48 138.34 359.57C139.33 360.66 140.04 361.9 140.48 363.29C140.92 364.68 141.14 366.08 141.14 367.51V387.92C141.14 388.34 141 388.69 140.73 388.96C140.46 389.23 140.11 389.37 139.69 389.37H136.79C136.33 389.37 135.97 389.23 135.72 388.96C135.47 388.69 135.34 388.34 135.34 387.92V385.21C134.79 385.97 134.06 386.71 133.14 387.45C132.21 388.19 131.06 388.8 129.67 389.28C128.28 389.76 126.58 390 124.57 390H124.6ZM125.92 385.28C127.64 385.28 129.22 384.91 130.64 384.18C132.07 383.45 133.19 382.3 134.01 380.75C134.83 379.2 135.24 377.24 135.24 374.89V373.13L127.93 374.2C124.95 374.62 122.7 375.32 121.19 376.31C119.68 377.3 118.92 378.55 118.92 380.06C118.92 381.23 119.27 382.21 119.96 382.99C120.65 383.77 121.53 384.35 122.6 384.72C123.67 385.1 124.77 385.29 125.91 385.29L125.92 385.28Z" fill="#3F3F41"/>
<path d="M90.78 390C86.41 390 82.95 388.67 80.39 386C77.83 383.33 76.42 379.69 76.17 375.07C76.13 374.52 76.11 373.82 76.11 372.96C76.11 372.1 76.13 371.4 76.17 370.85C76.34 367.87 77.03 365.26 78.25 363.01C79.47 360.76 81.14 359.03 83.26 357.81C85.38 356.59 87.87 355.98 90.72 355.98C93.91 355.98 96.59 356.65 98.75 358C100.91 359.34 102.56 361.25 103.69 363.73C104.82 366.21 105.39 369.1 105.39 372.42V373.49C105.39 373.95 105.25 374.31 104.98 374.56C104.71 374.81 104.36 374.94 103.94 374.94H82.15V375.51C82.23 377.23 82.61 378.84 83.28 380.33C83.95 381.82 84.93 383.03 86.21 383.95C87.49 384.87 88.99 385.34 90.71 385.34C92.22 385.34 93.48 385.11 94.49 384.65C95.5 384.19 96.32 383.67 96.95 383.11C97.58 382.54 98 382.09 98.21 381.76C98.59 381.26 98.88 380.95 99.09 380.85C99.3 380.75 99.64 380.69 100.1 380.69H103.19C103.57 380.69 103.89 380.81 104.17 381.04C104.44 381.27 104.56 381.6 104.52 382.02C104.48 382.65 104.14 383.42 103.51 384.32C102.88 385.22 101.99 386.11 100.83 387C99.68 387.88 98.25 388.61 96.55 389.17C94.85 389.74 92.93 390.02 90.79 390.02L90.78 390ZM82.15 370.6H99.41V370.41C99.41 368.52 99.06 366.84 98.37 365.37C97.68 363.9 96.68 362.74 95.38 361.87C94.08 361.01 92.52 360.58 90.72 360.58C88.92 360.58 87.37 361.01 86.09 361.87C84.81 362.73 83.83 363.9 83.16 365.37C82.49 366.84 82.15 368.52 82.15 370.41V370.6Z" fill="#3F3F41"/>
<path d="M56.9 389.37C56.48 389.37 56.13 389.23 55.86 388.96C55.59 388.69 55.45 388.34 55.45 387.92V350.89H43.36C42.94 350.89 42.59 350.75 42.32 350.48C42.05 350.21 41.91 349.86 41.91 349.44V346.79C41.91 346.33 42.05 345.96 42.32 345.69C42.59 345.42 42.94 345.28 43.36 345.28H73.72C74.18 345.28 74.55 345.42 74.82 345.69C75.09 345.96 75.23 346.33 75.23 346.79V349.44C75.23 349.86 75.09 350.21 74.82 350.48C74.55 350.75 74.18 350.89 73.72 350.89H61.69V387.92C61.69 388.34 61.55 388.69 61.28 388.96C61.01 389.23 60.64 389.37 60.18 389.37H56.9Z" fill="#3F3F41"/>
<path d="M277.35 261.34H268.27C267.21 261.34 266.29 261.97 265.87 262.87L253.05 290.07L241.64 262.96C241.24 262.01 240.29 261.34 239.2 261.34H230.13C228.66 261.34 227.48 262.53 227.48 263.99C227.48 264.35 227.55 264.7 227.69 265.02L245.22 306.71L237.62 322.83C237.44 323.19 237.34 323.59 237.34 324.01C237.34 325.48 238.53 326.66 239.99 326.66H249.09C250.22 326.66 251.18 325.96 251.56 324.97L279.81 265.02C279.94 264.7 280.02 264.35 280.02 263.99C280.02 262.52 278.83 261.34 277.37 261.34H277.35Z" fill="#3F3F41"/>
<path d="M213.47 242.6H204.53C203.06 242.6 201.88 243.79 201.88 245.86V267.37C197.63 263.65 192.08 261.4 185.99 261.4C172.66 261.4 161.85 272.21 161.85 285.54V292.01C161.85 305.34 172.66 316.15 185.99 316.15C192.08 316.15 197.63 313.89 201.88 310.18V312.6C201.88 313.46 203.07 314.65 204.53 314.65H213.47C214.94 314.65 216.12 313.46 216.12 312V245.28C216.12 243.81 214.93 242.63 213.47 242.63V242.6ZM189 305.42C180.19 305.42 176.12 296.99 176.12 289.94V289.09C176.12 282.04 180.01 273.61 189 273.61C197.99 273.61 201.82 281.93 201.88 288.95V290.1C201.82 297.12 197.93 305.43 189 305.43V305.42Z" fill="#3F3F41"/>
<path d="M127.8 261.4H125.82C120.3 261.4 115.23 263.27 111.18 266.4V264C111.18 262.53 109.99 261.35 108.53 261.35H99.59C98.12 261.35 96.94 262.54 96.94 264V311.98C96.94 313.45 98.13 314.63 99.59 314.63H108.53C110 314.63 111.18 313.44 111.18 311.98V284.42C111.18 277.94 116.43 272.69 122.91 272.69C129.39 272.69 134.64 277.94 134.64 284.42V311.98C134.64 313.45 135.83 314.63 137.29 314.63H146.23C147.7 314.63 148.88 313.44 148.88 311.98V281.58C148.88 269.72 138.85 261.52 127.8 261.4Z" fill="#3F3F41"/>
<path d="M79.77 245.26V254.17C79.77 255.64 78.58 256.82 77.12 256.82H68.18C66.71 256.82 65.53 255.63 65.53 254.17V245.26C65.53 243.79 66.72 242.61 68.18 242.61H77.12C78.59 242.61 79.77 243.8 79.77 245.26ZM77.12 261.34H68.18C66.71 261.34 65.53 262.53 65.53 263.99V311.97C65.53 313.44 66.72 314.62 68.18 314.62H77.12C78.59 314.62 79.77 313.43 79.77 311.97V263.99C79.77 262.52 78.58 261.34 77.12 261.34Z" fill="#3F3F41"/>
<path d="M48.64 242.57H2.66001C1.19001 242.57 0.0100098 243.76 0.0100098 245.22V311.94C0.0100098 313.41 1.20001 314.59 2.66001 314.59H11.6C13.07 314.59 14.25 313.4 14.25 311.94V289.75H42.61C44.08 289.75 45.26 288.56 45.26 287.1V278.16C45.26 276.69 44.07 275.51 42.61 275.51H14.25V256.82H48.64C50.11 256.82 51.29 255.63 51.29 254.17V245.23C51.29 243.76 50.1 242.58 48.64 242.58V242.57Z" fill="#3F3F41"/>
<path d="M242.46 102.46C242.46 45.87 196.59 0 140 0C83.41 0 37.54 45.87 37.54 102.46C37.54 159.05 83.41 204.92 140 204.92C163.52 204.92 185.18 196.99 202.48 183.67L223.65 204.87L242.39 186.14L221.22 164.94C234.54 147.65 242.47 125.98 242.47 102.46H242.46ZM67.54 102.48C67.54 62.45 99.99 30.01 140.01 30.01C180.03 30.01 212.48 62.46 212.48 102.48C212.48 122.49 204.37 140.6 191.26 153.72L191.24 153.74C178.13 166.85 160.01 174.96 140 174.96C99.97 174.96 67.53 142.51 67.53 102.49L67.54 102.48Z" fill="#A5A5A4"/>
<path d="M140 0C99.78 0 64.97 23.18 48.2 56.91C41.38 70.63 37.53 86.1 37.53 102.47C37.53 124.15 44.27 144.25 55.76 160.81C55.76 160.82 55.77 160.83 55.78 160.84C56.82 162.34 57.9 163.81 59.02 165.26C59.02 165.26 59.03 165.28 59.04 165.29C59.59 166 60.15 166.7 60.72 167.4C60.75 167.43 60.78 167.47 60.81 167.5C61.93 168.86 63.08 170.19 64.27 171.5C64.34 171.57 64.4 171.64 64.47 171.71C65.63 172.98 66.83 174.21 68.05 175.42C68.1 175.47 68.14 175.51 68.19 175.56C75.81 183.04 84.58 189.35 94.23 194.17C105.63 189.65 115.6 182.31 123.31 173.03C101.94 167.99 84.22 153.48 74.82 134.18C83.27 116.83 98.44 103.35 116.95 97.14C118.63 86.4 122.14 76.27 127.15 67.08C103.86 70.08 83.1 81.13 67.72 97.34C68.81 81.77 74.82 67.56 84.21 56.25C97.5 40.23 117.57 30.02 140.01 30.02C146.76 30.02 153.29 30.95 159.49 32.67C171.25 25.27 184.78 20.42 199.3 18.91C182.56 7.01 162.1 0.0100021 139.99 0.0100021L140 0Z" fill="#1E7ED5"/>
</svg>
