<svg xmlns="http://www.w3.org/2000/svg" xmlns:xlink="http://www.w3.org/1999/xlink" width="1200" height="600" viewBox="0 0 1200 600"><defs><clipPath id="a"><rect width="1200" height="304.438" fill="none"/></clipPath><clipPath id="b"><rect width="747.152" height="64.884" fill="none"/></clipPath></defs><rect width="1200" height="600" fill="none"/><rect width="1200" height="600" fill="none"/><g transform="translate(0 84.742)"><g clip-path="url(#a)"><path d="M227.524,8.52a7.193,7.193,0,0,0-7.254,7.127c0,.1,0,.2.006.3V57.52a16.934,16.934,0,0,1-14.033,16.121,545.072,545.072,0,0,1-66.28,4.813,550.636,550.636,0,0,1-66.338-4.813A16.993,16.993,0,0,1,59.59,57.52V15.943a7.191,7.191,0,0,0-14.381,0V57.52A31.551,31.551,0,0,0,71.652,87.906a549.309,549.309,0,0,0,68.31,4.929,549.39,549.39,0,0,0,68.31-4.929A31.551,31.551,0,0,0,234.714,57.52V15.943a7.191,7.191,0,0,0-6.953-7.417c-.081-.006-.157-.006-.238-.006" transform="translate(216.949 40.886)" fill="#315999"/><path d="M246.352,45.877H112.109c-7.77,0-13.221-4.349-13.221-8.292s5.8-10.032,14.033-11.192A549.774,549.774,0,0,1,179.2,21.58a457.819,457.819,0,0,1,86.17,7.6,7.21,7.21,0,0,0,2.783-14.149A472.764,472.764,0,0,0,179.2,7.2a552.754,552.754,0,0,0-68.31,4.929C96.1,14.216,84.449,25.407,84.449,37.585s12.409,22.731,27.66,22.731H246.352c7.828,0,13.221,4.349,13.221,8.292S253.774,78.7,245.54,79.8A550.647,550.647,0,0,1,179.2,84.613a452.448,452.448,0,0,1-86.112-7.6,7.21,7.21,0,1,0-2.783,14.149,467.344,467.344,0,0,0,88.9,7.828,552.554,552.554,0,0,0,68.368-4.929c14.845-2.088,26.443-13.279,26.443-25.457s-12.41-22.731-27.66-22.731" transform="translate(405.255 34.494)" fill="#315999"/><path d="M132.04,7.27a7.19,7.19,0,0,0-7.191,7.19V95.006a7.191,7.191,0,0,0,14.381,0V14.519A7.19,7.19,0,0,0,132.1,7.27h-.058" transform="translate(599.127 34.887)" fill="#315999"/><path d="M298.18,12.118a476.355,476.355,0,0,0-136.678,0A31.6,31.6,0,0,0,135.059,42.5V63.669a31.544,31.544,0,0,0,26.21,30.386,549.41,549.41,0,0,0,68.31,4.929,552.567,552.567,0,0,0,68.368-4.929,31.543,31.543,0,0,0,26.384-30.386V42.5A31.6,31.6,0,0,0,298.18,12.118m12,51.551A16.993,16.993,0,0,1,296.15,79.79,548.282,548.282,0,0,1,229.811,84.6a550.626,550.626,0,0,1-66.338-4.813,16.988,16.988,0,0,1-13.8-16.121V42.5a17.053,17.053,0,0,1,14.033-16.121,459.444,459.444,0,0,1,132.677,0A17.047,17.047,0,0,1,310.415,42.5Z" transform="translate(648.122 34.505)" fill="#315999"/><path d="M337.37,12.118a476.354,476.354,0,0,0-136.678,0A31.665,31.665,0,0,0,174.249,42.5V84.081a7.249,7.249,0,0,0,14.439,0V42.5a17.053,17.053,0,0,1,14.033-16.121,459.046,459.046,0,0,1,132.619,0A17.053,17.053,0,0,1,349.373,42.5V84.081a7.249,7.249,0,0,0,14.439,0V42.5A31.665,31.665,0,0,0,337.37,12.118" transform="translate(836.188 34.505)" fill="#315999"/><path d="M217.276,51.328H49.4V42.514A17.053,17.053,0,0,1,63.433,26.393a548.593,548.593,0,0,1,66.28-4.813,457.819,457.819,0,0,1,86.17,7.6,7.21,7.21,0,1,0,2.783-14.149A472.766,472.766,0,0,0,129.714,7.2,552.753,552.753,0,0,0,61.4,12.128,31.665,31.665,0,0,0,34.961,42.514v8.814H7.185a7.191,7.191,0,0,0,0,14.381H34.961V95.283a7.249,7.249,0,0,0,14.439,0V65.825H217.276a7.191,7.191,0,1,0,.012-14.381h-.012Z" transform="translate(0 34.494)" fill="#315999"/><path d="M136.742,0a12.873,12.873,0,1,0,12.873,12.873A12.874,12.874,0,0,0,136.742,0" transform="translate(594.424)" fill="#315999"/><path d="M121.6,29.42a7.189,7.189,0,0,0-7.017,7.249v119.4a7.191,7.191,0,0,0,14.381,0V36.669a7.186,7.186,0,0,0-7.132-7.249H121.6" transform="translate(549.843 141.181)" fill="#9fa0a0"/><path d="M178.27,54.683a252.78,252.78,0,0,1,44.187-4.349,227.652,227.652,0,0,1,60.6,7.712A7.2,7.2,0,0,0,287,44.187a240.415,240.415,0,0,0-64.715-8.176,268.328,268.328,0,0,0-47.028,4.581,29.4,29.4,0,0,0-23.2,28.008V96.9a29.34,29.34,0,0,0,23.2,28.008,262.27,262.27,0,0,0,47.028,4.581A242.989,242.989,0,0,0,287,121.369a7.249,7.249,0,0,0-3.943-13.917,227.694,227.694,0,0,1-60.771,7.654,263.11,263.11,0,0,1-44.013-4.291,15.2,15.2,0,0,1-11.6-13.917V68.542a15.077,15.077,0,0,1,11.6-13.859" transform="translate(729.702 172.747)" fill="#9fa0a0"/><path d="M242.73,39.245A456.751,456.751,0,0,0,193.092,36a365.068,365.068,0,0,0-63.787,5.161,7.191,7.191,0,1,0,1.873,14.259c.209-.029.412-.064.62-.11a360.32,360.32,0,0,1,61.526-4.929,447.228,447.228,0,0,1,47.84,3.189,9.392,9.392,0,0,1,7.77,8.872v9.22a378.063,378.063,0,0,0-55.61-3.885,441.189,441.189,0,0,0-49.638,3.363,23.773,23.773,0,0,0-20.354,23.2v9.278a23.773,23.773,0,0,0,20.354,23.2,441.18,441.18,0,0,0,49.638,3.363,442.286,442.286,0,0,0,49.7-3.363,23.194,23.194,0,0,0,20.3-21.861V62.44a23.72,23.72,0,0,0-20.586-23.2m5.8,65.7a8.875,8.875,0,0,1-7.828,7.538,423.328,423.328,0,0,1-47.782,3.247,423.343,423.343,0,0,1-47.782-3.247,9.453,9.453,0,0,1-7.422-8.872V94.333a9.458,9.458,0,0,1,7.77-8.872,416.676,416.676,0,0,1,47.782-3.305,357.772,357.772,0,0,1,55.611,4.059Z" transform="translate(590.495 172.702)" fill="#9fa0a0"/><path d="M251.153,92.2a419.405,419.405,0,0,0,49.58-3.537,24.068,24.068,0,0,0,20.354-23.2V62.741a23.947,23.947,0,0,0-20.354-23.2,349.377,349.377,0,0,0-99.16,0,23.2,23.2,0,0,0-20.354,22.5v41.288a23.832,23.832,0,0,0,20.412,23.2,432.456,432.456,0,0,0,49.522,3.421,354.259,354.259,0,0,0,64.077-5.393,7.2,7.2,0,1,0-2.668-14.149,340.6,340.6,0,0,1-61.409,5.161,425.8,425.8,0,0,1-47.608-3.305,9.621,9.621,0,0,1-7.886-9.046V88.14A359.859,359.859,0,0,0,251.153,92.2M195.658,61.7a9.166,9.166,0,0,1,7.886-8.234,338.78,338.78,0,0,1,95.217,0,9.744,9.744,0,0,1,7.944,9.1v2.726a9.683,9.683,0,0,1-7.944,9.046,397.344,397.344,0,0,1-47.608,3.421,341.973,341.973,0,0,1-55.495-4.233Z" transform="translate(869.635 172.806)" fill="#9fa0a0"/><path d="M201.653,39.526a314.133,314.133,0,0,0-94,0c-8.582,1.334-23.2,4.987-23.2,14.323v69.122a7.249,7.249,0,0,0,14.439,0V102.5a320.355,320.355,0,0,0,55.669,4.581,348.786,348.786,0,0,0,46.97-3.537,27.834,27.834,0,0,0,23.2-26.964V66.491a27.829,27.829,0,0,0-23.079-26.964m8.7,37.054a13.683,13.683,0,0,1-10.9,12.7,342.438,342.438,0,0,1-44.709,3.6A305.75,305.75,0,0,1,99.072,88.12V56.749a41.146,41.146,0,0,1,10.844-2.957,294.851,294.851,0,0,1,89.592,0,13.567,13.567,0,0,1,10.9,12.7Z" transform="translate(405.303 172.71)" fill="#9fa0a0"/></g></g><g transform="translate(226 522.494)"><g transform="translate(0 0)" clip-path="url(#b)"><path d="M29.949,17.266a32.72,32.72,0,0,1-3.806,7.271L20.375,21.2c.456-.585,1.093-1.4,1.613-2.2H14.95v4.794c1.959,3.515,5.248,7.045,7.905,9.751l-3.637,5.2A32.906,32.906,0,0,1,14.95,32.28V57.03H9.466V30.192A52.837,52.837,0,0,1,2.657,44.8L0,37.528A58.053,58.053,0,0,0,8.658,19h-7.5V13.3H9.466V2.852H14.95V13.3h7.039V18.95c1.61-2.541,3.23-5.6,5.37-14.2l5.992.873c-.34,1.62-.8,3.515-1.555,5.946H36.24V2.852h5.71v8.713H54.129v5.7H41.95v8.083H55.28v5.765H43.8C47.837,38.5,50.89,41.967,56.2,46.29l-2.994,6.35A45.751,45.751,0,0,1,41.95,37.705V57.03H36.24V37.867A50.1,50.1,0,0,1,23.195,52.236l-3.741-5.3A47.4,47.4,0,0,0,34.621,31.114H21.988V25.349H36.24V17.266Z" transform="translate(0 5.881)" fill="#1a1311"/><path d="M68.663,12.362H74.9V18.13H57.583c.227,4.387.925,16.211,4.439,24.811.291.634,2.89,7.029,5.312,7.029,1.959,0,2.881-5.992,3.23-8.649l5.306,3c-.8,4.455-2.367,12.926-7.556,12.926-3.457,0-15.345-3.986-16.732-39.115H21.116V12.362h30.3c0-1.28-.181-7.675-.236-9.182h6.114c0,3.579-.058,6.867.064,9.182H67.8a50.994,50.994,0,0,0-8.594-5.2l3.46-4.5a62.123,62.123,0,0,1,9.289,5.493ZM21.116,49.34c3.117-.4,10.908-1.378,12.237-1.555V31.053H22.1V25.337H49.9v5.716H39.29V47.041c6.631-.989,10.155-1.684,12.406-2.14v5.428c-9.4,2.073-22.787,4.032-29.6,4.908Z" transform="translate(43.533 5.485)" fill="#1a1311"/><path d="M54.4,21.068a56.408,56.408,0,0,1-9.515,4.957l-3.411-5.538c9.3-3.224,20.084-10.333,24.992-17.766H73.1c4.21,6.573,13.5,13.1,24.928,17.54l-3.7,5.765a98.309,98.309,0,0,1-9.289-5.134v3.288H54.4ZM88.795,57.642a36.55,36.55,0,0,0-2.364-3.855c-7.905.808-20.831,1.733-40.97,2.122l-.866-5.995c1.215,0,6.463,0,8.251-.064a81.7,81.7,0,0,0,5.6-13.443H43.615V30.819H95.607v5.587H65.545c-1.959,4.681-4.21,9.589-6.178,13.281,10.8-.242,12-.291,23.541-.873a70.526,70.526,0,0,0-6.8-8.245l4.9-3A85.912,85.912,0,0,1,94.392,54.192ZM81.815,18.7a70.467,70.467,0,0,1-12-10.967A59.5,59.5,0,0,1,57.925,18.7Z" transform="translate(85.505 5.608)" fill="#1a1311"/><path d="M77.77,57.084H71.827V34.814a36.528,36.528,0,0,1-6.981,5.376L62.312,34.3C69.7,29.971,75.351,23.734,78.006,17.452H63.114V11.8h8.713V2.793H77.77V11.8h6.754v5.652A45.342,45.342,0,0,1,78.695,27.2c2.948,3.352,4.323,4.323,8.083,7.094l-2.771,5.489a42.39,42.39,0,0,1-6.236-6.059ZM97.45,2.793h6.059V19.12h12.351V25.29H103.509V49.017h13.667v6.172H82.9V49.017H97.45V25.29H85.39V19.12H97.45Z" transform="translate(128.462 5.759)" fill="#1a1311"/><path d="M150.508,2.761c-1.862,20.846-8.092,48.557-47.2,55.782l-3.224-7.581c34.743-5.3,38.745-27.94,40.826-40.606h-47.2v-7.6Z" transform="translate(193.203 5.693)" fill="#1a1311"/><path d="M156.183,6.856c-1,16.471-1.791,23.923-3.077,33.01H165.64v7.011H115.222V39.866h30c1.727-9.313,2.584-24.278,2.648-25.2H121.449V6.856Z" transform="translate(237.541 14.135)" fill="#1a1311"/><rect width="63.605" height="8.664" transform="translate(411.151 29.22)" fill="#1a1311"/><path d="M178.361,37.462a113.141,113.141,0,0,0-20.06-8.309l3.224-7.449c1.078.291,12.892,3.643,20.2,7.66ZM162.382,55.149c27.08-2.22,39.4-10.82,48.566-38.968l7.734,3.45c-9.6,26.853-21.848,40.523-54.291,44.118Zm21.557-34.305a119.293,119.293,0,0,0-19.977-7.807L167.4,5.523a133.627,133.627,0,0,1,20.2,7.513Zm21.777-7.094a66.808,66.808,0,0,0-3.362-11.53L208.217.94a56.458,56.458,0,0,1,3.661,11.386Zm10.455-1.506A57.557,57.557,0,0,0,212.445,1.3L218.253,0a72.076,72.076,0,0,1,3.864,10.59Z" transform="translate(326.353 0.001)" fill="#1a1311"/><path d="M222.79,6.433V49.127H182.477V41.954h32.652V30.711H183.9V23.618h31.228V13.447H183.335V6.433Z" transform="translate(376.195 13.263)" fill="#1a1311"/><path d="M222.5,19.928A80.521,80.521,0,0,0,200.871,9.4l3.864-7.014A79.567,79.567,0,0,1,226.94,12.2Zm-20.911,29.59c26.789-1.944,42.329-12.243,52.283-42.694l8.1,3.662c-10.526,30.579-26,44.118-57.723,48.055Z" transform="translate(414.115 4.918)" fill="#1a1311"/><path d="M275.5.857a83.985,83.985,0,0,1,2.859,10.967l-5.361.857c-3.3,12.164-10.529,21.835-12.326,24.135a321.253,321.253,0,0,1,24.569,21.621l-6.947,6.448A203.628,203.628,0,0,0,255.8,42.905c-8.089,9.023-17.476,16.894-28.433,21.832l-4.874-6.867c8.885-3.579,29.658-14.108,41.041-42.823H226.51V7.241h44.329a49.561,49.561,0,0,0-1.715-5.587ZM282.081,12.1A48.805,48.805,0,0,0,279.295.857L285.6,0a66.275,66.275,0,0,1,2.866,10.964Z" transform="translate(458.691 0.001)" fill="#1a1311"/></g></g></svg>