<svg xmlns="http://www.w3.org/2000/svg" xmlns:xlink="http://www.w3.org/1999/xlink" width="550.852" height="117.266" viewBox="0 0 550.852 117.266">
  <defs>
    <clipPath id="clip-path">
      <rect id="長方形_1" data-name="長方形 1" width="550.852" height="117.266" transform="translate(0 0)" fill="none"/>
    </clipPath>
  </defs>
  <g id="グループ_1" data-name="グループ 1" transform="translate(0 0)" clip-path="url(#clip-path)">
    <path id="パス_1" data-name="パス 1" d="M113.744,22.744a17.072,17.072,0,0,1-4.427-1.084,11.824,11.824,0,0,1-3.81-2.482,4.106,4.106,0,0,1-.36-.693,1.45,1.45,0,0,1-.042-.835l.427-.779a2.458,2.458,0,0,1,.678-.324,1.442,1.442,0,0,1,.744,0l.758.417a2.636,2.636,0,0,0,.908.762,3.765,3.765,0,0,1,.993.675,13.624,13.624,0,0,0,2.907.913,19.918,19.918,0,0,0,3.148.376l2.366-.3.765.43a2.846,2.846,0,0,1,.328.695,1.568,1.568,0,0,1,0,.752l-.417.82a6.356,6.356,0,0,1-2.387.684,13.9,13.9,0,0,1-2.576-.031" fill="#2e2624"/>
    <path id="パス_2" data-name="パス 2" d="M114.721,6.708a17.839,17.839,0,0,0-3.69-1.465c-1.3-.349-2.59-.7-3.881-1.077a2.421,2.421,0,0,1-.319-.691,1.443,1.443,0,0,1-.008-.753l.418-.776a2.306,2.306,0,0,1,.96-.394,4.974,4.974,0,0,1,1.1-.071q1.7.551,3.442,1.055a13.538,13.538,0,0,1,3.268,1.457,2.122,2.122,0,0,1,.319.681,1.607,1.607,0,0,1,0,.842l-.414.78a1.279,1.279,0,0,1-.56.28c-.214.046-.419.091-.633.132" fill="#2e2624"/>
    <path id="パス_3" data-name="パス 3" d="M122.614,7.014l-1.779-1.092a8.418,8.418,0,0,0-1.127-1.248,1.863,1.863,0,0,1-.589-1.523l.356-.8a2.062,2.062,0,0,1,.644-.4,1.438,1.438,0,0,1,.732-.086l.805.362c.341.349.66.716.979,1.093a3.231,3.231,0,0,0,1.13.853,2.373,2.373,0,0,1,.507.683,1.765,1.765,0,0,1,.116.871l-.346.816a2.327,2.327,0,0,1-.664.388,1.485,1.485,0,0,1-.764.082" fill="#2e2624"/>
    <path id="パス_4" data-name="パス 4" d="M125.327,4.243l-.8-.351-.008-.157-.153.009c-.227-.362-.5-.725-.765-1.107a1.841,1.841,0,0,1-.378-1.291l.343-.863A2.29,2.29,0,0,1,124.2.1a1.326,1.326,0,0,1,.749-.086l.794.347c.289.439.582.851.885,1.228a1.938,1.938,0,0,1,.427,1.371l-.347.809a2.262,2.262,0,0,1-.64.4,1.416,1.416,0,0,1-.744.075" fill="#2e2624"/>
    <path id="パス_5" data-name="パス 5" d="M140.5,22.393q-2.808-1.662-5.554-3.534c-1.832-1.255-3.624-2.57-5.377-3.962a1.836,1.836,0,0,1-.424-.822,2.248,2.248,0,0,1,0-.986l.451-.836.165,0,1.356-2,.169.01L132.53,8.7c.947-.93,1.876-1.912,2.795-2.923A29.644,29.644,0,0,1,138.271,2.9l.346-.334a8.336,8.336,0,0,1,1.1-.847,1.894,1.894,0,0,1,1.32-.243l.829.465a2.525,2.525,0,0,1,.338.749,1.9,1.9,0,0,1,.013.932l-.456.853-.267.232-.433.158-.008.169-.612.579-.354.322A17.347,17.347,0,0,0,138.69,7.2a9.007,9.007,0,0,0-1.159,1.364l-.62.745-.62.571-.617.573-.611.582-.451.4-.158-.006-.272.5-1.088,1.587c1.426,1.032,2.867,2.011,4.316,2.969s2.917,1.933,4.39,2.965a4.142,4.142,0,0,1,.4.749,1.6,1.6,0,0,1,.041.892l-.459.844a1.2,1.2,0,0,1-.606.31c-.224.051-.449.1-.674.15" fill="#2e2624"/>
    <path id="パス_6" data-name="パス 6" d="M149.3,13.127c-.214-.078-.414-.152-.607-.241a2.808,2.808,0,0,1-.533-.259,3.816,3.816,0,0,1-.317-.677,1.637,1.637,0,0,1-.043-.8l.416-.8a13.189,13.189,0,0,1,3.407-.574c1.09-.041,2.265-.054,3.517-.1l3.413.025,1.959-.055,1.245.2,4.068.058c.254.042.52.1.789.173a1.909,1.909,0,0,1,.7.335,3.737,3.737,0,0,1,.333.688,1.562,1.562,0,0,1,.069.855l-.459.8a1.137,1.137,0,0,1-.785.337c-.317.019-.628.027-.929.029l-.092-.084-3.989-.057-2.737-.181-.074.032-3.493-.012Z" fill="#2e2624"/>
    <path id="パス_7" data-name="パス 7" d="M131.355,35.421A33.435,33.435,0,1,0,164.79,68.856a33.473,33.473,0,0,0-33.435-33.435m0,50.326a16.891,16.891,0,1,1,16.891-16.891,16.91,16.91,0,0,1-16.891,16.891" fill="#b21e23"/>
    <path id="パス_8" data-name="パス 8" d="M261.36,88.315l-7.727-7.3a47.1,47.1,0,0,0,7.133-24.9,45.3,45.3,0,1,0-90.6,0c0,25.391,20.321,46.048,45.3,46.048a45.175,45.175,0,0,0,26.97-8.957l7.267,6.846a8.193,8.193,0,0,0,11.573,0,8.3,8.3,0,0,0,.082-11.74M223.394,63.344a8,8,0,0,0-2.523,5.736,8.325,8.325,0,0,0,2.528,6.041l6.957,6.565a28.978,28.978,0,0,1-14.888,4.185c-15.993,0-29-13.347-29-29.753a29.067,29.067,0,0,1,58.133,0,31.07,31.07,0,0,1-3.075,13.446l-6.487-6.2a8.338,8.338,0,0,0-5.981-2.466,7.917,7.917,0,0,0-5.66,2.447" fill="#b21e23"/>
    <path id="パス_9" data-name="パス 9" d="M46.724,103.292A46.724,46.724,0,1,1,82.17,26.125,8.607,8.607,0,1,1,69.116,37.346a29.525,29.525,0,1,0,1.769,36.132H55.331a8.607,8.607,0,1,1,0-17.214h28.6a8.608,8.608,0,0,1,8.4,10.474,47.01,47.01,0,0,1-45.612,36.554" fill="#b21e23"/>
    <path id="パス_10" data-name="パス 10" d="M315.778,68.143c-2.964-2.409-7.042-4.237-12.9-5.768-5.027-1.056-7.39-1.738-9.353-2.7-2.374-1.187-3.386-2.558-3.386-4.584a5.544,5.544,0,0,1,2.625-4.75,11.538,11.538,0,0,1,6.632-1.883,14.5,14.5,0,0,1,5.733,1.023,20.946,20.946,0,0,1,4.712,3.349,5.723,5.723,0,0,0,3.679,1.162,5.845,5.845,0,0,0,4.079-1.549,6.4,6.4,0,0,0,1.645-2.852l.071-.455a6.219,6.219,0,0,0,.075-.82,5.031,5.031,0,0,0-.72-2.519,18.551,18.551,0,0,0-8.2-7.234A26.846,26.846,0,0,0,299.256,36.2a23.245,23.245,0,0,0-14.773,5.19,17.839,17.839,0,0,0-6.651,13.8,15.819,15.819,0,0,0,6.446,12.97c3.557,2.8,8.64,4.83,15,6.021l1.271.341a23.158,23.158,0,0,1,6.088,2.1,5.241,5.241,0,0,1,2.974,4.811,6.413,6.413,0,0,1-3.056,5.37,12.159,12.159,0,0,1-7.012,2.026c-5.156,0-9.173-2.054-11.619-5.938l-.09-.127c-2.676-3.345-5.345-4.213-8.266-2.575a6.04,6.04,0,0,0-2.88,3.313,7.187,7.187,0,0,0-.288,1.891,6.94,6.94,0,0,0,.745,3.1,20.487,20.487,0,0,0,8.481,8.922,26.471,26.471,0,0,0,13.534,3.673,24.609,24.609,0,0,0,16.046-5.74,19.158,19.158,0,0,0,6.62-14.442,15.662,15.662,0,0,0-6.048-12.764m44.515-15.388a5.261,5.261,0,0,0-2.307.442,6.218,6.218,0,0,0-3.392,3.238l-10.562,23.55-10.4-23.565a6.864,6.864,0,0,0-1.377-1.972,5.933,5.933,0,0,0-6.748-1.166,6.044,6.044,0,0,0-3.582,5.58,6.086,6.086,0,0,0,.554,2.573L337.5,94.606l-6.227,14.008a7.073,7.073,0,0,0-.7,3.022,5.4,5.4,0,0,0,3.286,5.073,5.806,5.806,0,0,0,2.44.557,5.517,5.517,0,0,0,2.281-.416,6.2,6.2,0,0,0,3.463-3.256l23.78-52.147a7.309,7.309,0,0,0,.585-2.4,5.955,5.955,0,0,0-1.742-4.366,6.3,6.3,0,0,0-4.366-1.931m38.251,23.389c-2.648-2.078-5.966-3.363-10.478-4.77a23.486,23.486,0,0,1-5.427-2.131c-1.505-.959-1.7-1.767-1.7-2.365,0-2.879,4.165-3.1,5.441-3.1a7.063,7.063,0,0,1,3.677,1.049c.175.087.8.516,1.41.932l2.1,1.56.212.131a4.8,4.8,0,0,0,2.192.479,5.429,5.429,0,0,0,4.11-1.867,5.019,5.019,0,0,0,1.426-3.523,6.084,6.084,0,0,0-.677-2.731c-1.2-2.339-3.313-4.125-6.475-5.465a22.412,22.412,0,0,0-8.642-1.681,19.29,19.29,0,0,0-11.728,3.823,13.336,13.336,0,0,0-5.355,10.682,11.553,11.553,0,0,0,5.227,9.693c2.422,1.827,5.531,3.311,10.772,5.13l2.592.816a7.317,7.317,0,0,1,3.735,2.242,2.042,2.042,0,0,1,.434,1.445,2.552,2.552,0,0,1-1.445,2.308,7.536,7.536,0,0,1-4.042,1.08c-3.448,0-5.335-.967-7.26-3.763a6.743,6.743,0,0,0-5.337-2.774,5.554,5.554,0,0,0-4.969,2.716,5.073,5.073,0,0,0-.8,2.866,6.609,6.609,0,0,0,.88,3.277,15.345,15.345,0,0,0,7.718,6.766,23.457,23.457,0,0,0,9.82,2.028,18.968,18.968,0,0,0,12.35-4.243,13.867,13.867,0,0,0,5.067-10.643,12.094,12.094,0,0,0-4.826-9.964M428.027,52.85h-2.72V42.686a6.132,6.132,0,0,0-12.263,0V52.85h-2.053a6.043,6.043,0,0,0-6.155,6.059,6.229,6.229,0,0,0,1.813,4.34,5.774,5.774,0,0,0,4.342,1.862h2.053v29.3a6.132,6.132,0,0,0,12.263,0v-29.3h2.72a6.113,6.113,0,0,0,6.155-6.2,5.974,5.974,0,0,0-6.155-6.059M458,52.755a24.183,24.183,0,0,0-17.1,7.031,24.018,24.018,0,0,0,0,34.176,24.176,24.176,0,0,0,17.1,7.032,25.572,25.572,0,0,0,9.431-1.624,19.41,19.41,0,0,0,6.011-3.853,5.9,5.9,0,0,0,2.307-4.638,6.269,6.269,0,0,0-1.018-3.4,5.95,5.95,0,0,0-2.995-2.576,6.077,6.077,0,0,0-6.066,1.132l-.151.141A9.593,9.593,0,0,1,458,89.115a11.085,11.085,0,0,1-6.93-2.333,11.785,11.785,0,0,1-3.383-4.206H476.18a5.8,5.8,0,0,0,6.061-5.927A23.788,23.788,0,0,0,475,59.733a24.212,24.212,0,0,0-17-6.978M447.258,71.889a11.609,11.609,0,0,1,3.458-4.751,11.279,11.279,0,0,1,7.428-2.551,12.12,12.12,0,0,1,7.541,2.567,11.3,11.3,0,0,1,3.5,4.735Zm98.857-13.656a16.6,16.6,0,0,0-12.679-5.526,21.749,21.749,0,0,0-13.53,5.016,16.718,16.718,0,0,0-12.237-5.016,14.476,14.476,0,0,0-8.765,3.026,5.917,5.917,0,0,0-5.215-3.026,6.316,6.316,0,0,0-4.34,1.764,5.836,5.836,0,0,0-1.864,4.391v35.5a6.191,6.191,0,0,0,6.155,6.107,6.042,6.042,0,0,0,6.108-6.107V72.055a1.929,1.929,0,0,0,0-.742v-.25a5.773,5.773,0,0,1,2.344-4.2,8.216,8.216,0,0,1,5.006-1.844,5.536,5.536,0,0,1,4.205,1.677,6.313,6.313,0,0,1,1.712,4.384V94.41a5.747,5.747,0,0,0,1.887,4.319,6.222,6.222,0,0,0,4.316,1.74,6,6,0,0,0,6.06-6.059l0-23.238a6.005,6.005,0,0,1,2.347-4.264,8.373,8.373,0,0,1,5.005-1.892,5.786,5.786,0,0,1,4.284,1.707,6.855,6.855,0,0,1,1.68,4.545V94.41a5.75,5.75,0,0,0,1.889,4.319,6.22,6.22,0,0,0,4.315,1.74,5.994,5.994,0,0,0,6.059-6.059v-23a19.833,19.833,0,0,0-4.737-13.178" fill="#b21e23"/>
  </g>
</svg>
