<svg width="642" height="712" viewBox="0 0 642 712" fill="none" xmlns="http://www.w3.org/2000/svg">
<path d="M568.629 677.549C568.629 679.363 568.524 681.282 568.315 683.306H522.47C522.819 688.958 524.738 693.389 528.227 696.599C531.785 699.739 536.077 701.309 541.101 701.309C545.218 701.309 548.637 700.367 551.358 698.483C554.15 696.529 556.103 693.947 557.22 690.737H567.477C565.942 696.25 562.872 700.751 558.267 704.24C553.661 707.659 547.939 709.368 541.101 709.368C535.658 709.368 530.774 708.147 526.447 705.705C522.191 703.263 518.841 699.809 516.399 695.343C513.957 690.807 512.736 685.574 512.736 679.643C512.736 673.711 513.922 668.513 516.294 664.047C518.667 659.581 521.981 656.162 526.238 653.789C530.564 651.347 535.519 650.126 541.101 650.126C546.544 650.126 551.358 651.312 555.545 653.685C559.732 656.057 562.942 659.337 565.175 663.524C567.477 667.641 568.629 672.316 568.629 677.549ZM558.79 675.561C558.79 671.932 557.987 668.827 556.383 666.245C554.778 663.593 552.58 661.605 549.788 660.279C547.067 658.883 544.032 658.186 540.682 658.186C535.867 658.186 531.75 659.721 528.331 662.791C524.982 665.861 523.063 670.118 522.575 675.561H558.79Z" fill="#211715"/>
<path d="M435.722 679.538C435.722 673.677 436.909 668.548 439.281 664.152C441.654 659.686 444.898 656.232 449.015 653.79C453.202 651.347 457.877 650.126 463.041 650.126C467.507 650.126 471.659 651.173 475.497 653.266C479.334 655.29 482.265 657.976 484.289 661.326V630.972H493.918V708.427H484.289V697.646C482.405 701.065 479.613 703.891 475.915 706.124C472.217 708.287 467.891 709.369 462.936 709.369C457.842 709.369 453.202 708.113 449.015 705.6C444.898 703.088 441.654 699.565 439.281 695.029C436.909 690.493 435.722 685.33 435.722 679.538ZM484.289 679.643C484.289 675.316 483.416 671.548 481.672 668.338C479.927 665.129 477.555 662.686 474.555 661.012C471.624 659.267 468.379 658.395 464.82 658.395C461.262 658.395 458.017 659.232 455.086 660.907C452.155 662.582 449.818 665.024 448.073 668.234C446.329 671.444 445.457 675.212 445.457 679.538C445.457 683.934 446.329 687.772 448.073 691.052C449.818 694.261 452.155 696.739 455.086 698.483C458.017 700.158 461.262 700.995 464.82 700.995C468.379 700.995 471.624 700.158 474.555 698.483C477.555 696.739 479.927 694.261 481.672 691.052C483.416 687.772 484.289 683.969 484.289 679.643Z" fill="#211715"/>
<path d="M358.709 679.538C358.709 673.676 359.896 668.548 362.268 664.152C364.641 659.686 367.885 656.232 372.002 653.789C376.189 651.347 380.829 650.126 385.923 650.126C390.947 650.126 395.308 651.208 399.007 653.371C402.705 655.534 405.461 658.255 407.276 661.535V651.068H416.905V708.426H407.276V697.75C405.392 701.1 402.565 703.891 398.797 706.124C395.099 708.287 390.773 709.368 385.819 709.368C380.725 709.368 376.119 708.112 372.002 705.6C367.885 703.088 364.641 699.565 362.268 695.029C359.896 690.493 358.709 685.33 358.709 679.538ZM407.276 679.643C407.276 675.316 406.403 671.548 404.659 668.338C402.914 665.129 400.542 662.686 397.541 661.012C394.611 659.267 391.366 658.395 387.807 658.395C384.248 658.395 381.004 659.232 378.073 660.907C375.142 662.582 372.805 665.024 371.06 668.234C369.316 671.444 368.444 675.212 368.444 679.538C368.444 683.934 369.316 687.772 371.06 691.051C372.805 694.261 375.142 696.738 378.073 698.483C381.004 700.158 384.248 700.995 387.807 700.995C391.366 700.995 394.611 700.158 397.541 698.483C400.542 696.738 402.914 694.261 404.659 691.051C406.403 687.772 407.276 683.969 407.276 679.643Z" fill="#211715"/>
<path d="M316.983 650.021C323.961 650.021 329.613 652.15 333.94 656.406C338.266 660.593 340.429 666.664 340.429 674.619V708.426H331.009V675.979C331.009 670.257 329.578 665.896 326.718 662.896C323.857 659.825 319.949 658.29 314.995 658.29C309.971 658.29 305.958 659.86 302.958 663C300.027 666.14 298.562 670.711 298.562 676.712V708.426H289.037V651.068H298.562V659.232C300.446 656.302 302.993 654.034 306.202 652.429C309.482 650.824 313.076 650.021 316.983 650.021Z" fill="#211715"/>
<path d="M243.752 650.021C250.73 650.021 256.382 652.15 260.708 656.406C265.035 660.593 267.198 666.664 267.198 674.619V708.426H257.778V675.979C257.778 670.257 256.347 665.896 253.486 662.896C250.625 659.825 246.718 658.29 241.763 658.29C236.739 658.29 232.727 659.86 229.727 663C226.796 666.14 225.331 670.711 225.331 676.712V708.426H215.806V651.068H225.331V659.232C227.215 656.302 229.761 654.034 232.971 652.429C236.251 650.824 239.845 650.021 243.752 650.021Z" fill="#211715"/>
<path d="M135.234 679.538C135.234 673.676 136.42 668.548 138.792 664.152C141.165 659.686 144.41 656.232 148.527 653.789C152.713 651.347 157.354 650.126 162.448 650.126C167.472 650.126 171.833 651.208 175.531 653.371C179.229 655.534 181.986 658.255 183.8 661.535V651.068H193.429V708.426H183.8V697.75C181.916 701.1 179.09 703.891 175.322 706.124C171.624 708.287 167.297 709.368 162.343 709.368C157.249 709.368 152.644 708.112 148.527 705.6C144.41 703.088 141.165 699.565 138.792 695.029C136.42 690.493 135.234 685.33 135.234 679.538ZM183.8 679.643C183.8 675.316 182.928 671.548 181.183 668.338C179.439 665.129 177.066 662.686 174.066 661.012C171.135 659.267 167.89 658.395 164.332 658.395C160.773 658.395 157.528 659.232 154.597 660.907C151.667 662.582 149.329 665.024 147.585 668.234C145.84 671.444 144.968 675.212 144.968 679.538C144.968 683.934 145.84 687.772 147.585 691.051C149.329 694.261 151.667 696.738 154.597 698.483C157.528 700.158 160.773 700.995 164.332 700.995C167.89 700.995 171.135 700.158 174.066 698.483C177.066 696.738 179.439 694.261 181.183 691.051C182.928 687.772 183.8 683.969 183.8 679.643Z" fill="#211715"/>
<path d="M109.419 708.426L79.3791 675.142V708.426H69.8543V635.472H79.3791V669.28L109.524 635.472H121.561L88.4853 672.002L121.875 708.426H109.419Z" fill="#211715"/>
<path d="M642 563.929C642 563.929 609.816 343.913 464.897 317.047C319.977 290.227 238.108 406.19 169.739 472.695C68.2321 571.384 0 563.929 0 563.929C0 563.929 46.276 -10.3395 239.471 0.388572C405.938 9.6165 379.391 322.275 405.847 408.281C448.759 547.837 556.13 563.929 642 563.929Z" fill="#FF7F67"/>
</svg>
