<svg width="681" height="640" viewBox="0 0 681 640" fill="none" xmlns="http://www.w3.org/2000/svg">
<path d="M68.7361 637.414C67.0013 638.619 64.913 639.326 62.8408 639.326C59.7245 639.326 56.7527 637.944 54.6805 635.149L31.9344 604.082C28.4647 605.287 24.4649 606.347 20.3044 606.861V629.254C20.3044 634.812 15.6138 639.326 10.0719 639.326C4.52994 639.326 0 634.812 0 629.254V527.507C0 521.949 4.51388 517.435 10.0719 517.435C15.6299 517.435 20.3044 521.949 20.3044 527.507V586.525C23.7741 585.818 26.9065 584.613 29.6855 583.055C30.2156 582.878 30.553 582.701 31.067 582.364C40.0947 576.983 46.3435 566.911 50.8573 550.944C52.2388 545.562 57.7968 542.446 63.1781 544.004C68.5594 545.562 71.6758 551.12 70.2943 556.502C68.0293 564.148 63.1781 581.513 49.4598 593.834L70.985 623.342C74.3263 627.696 73.2821 634.121 68.7683 637.414M303.249 591.456C303.249 564.614 281.37 542.735 254.528 542.735C227.685 542.735 205.984 564.614 205.984 591.456C205.984 618.298 227.685 640 254.528 640C281.37 640 303.249 618.122 303.249 591.456ZM282.478 591.456C282.478 606.733 270.013 619.391 254.544 619.391C239.075 619.391 226.609 606.749 226.609 591.456C226.609 576.164 239.075 563.345 254.544 563.345C270.013 563.345 282.478 575.987 282.478 591.456ZM669.097 537.932C675.169 537.932 679.86 533.595 680.036 527.7C679.86 521.804 675.185 517.467 669.097 517.467C663.009 517.467 658.334 521.804 658.334 527.7C658.334 533.595 663.186 537.932 669.097 537.932ZM669.097 545.675C663.539 545.675 659.025 550.189 659.025 555.747V629.27C659.025 634.828 663.539 639.342 669.097 639.342C674.655 639.342 679.346 634.828 679.346 629.27V555.747C679.346 550.189 674.832 545.675 669.097 545.675ZM598.112 633.366L633.725 558.172C636.118 553.096 633.966 547.04 628.89 544.647C623.814 542.237 617.758 544.406 615.364 549.482L588.924 605.319L562.483 549.482C560.089 544.406 554.017 542.253 548.973 544.647C543.897 547.04 541.729 553.096 544.138 558.172L579.751 633.366C581.438 636.916 585.004 639.181 588.924 639.181C592.843 639.181 596.425 636.916 598.096 633.366M177.92 638.972C171.591 640.466 165.23 636.643 163.576 630.41C163.543 630.33 163.527 630.218 163.511 630.121C162.917 630.603 162.323 631.069 161.744 631.487C154.451 636.515 145.6 639.293 136.235 639.293C123.385 639.293 111.754 634.266 103.257 624.884C95.2732 616.21 90.7593 604.227 90.7593 591.376C90.7593 578.525 95.2732 566.718 103.257 558.044C111.754 548.663 123.385 543.635 136.235 543.635C145.617 543.635 154.468 546.414 161.744 551.458C162.788 546.944 166.788 543.635 171.64 543.635C177.214 543.635 181.711 548.149 181.711 553.707V592.95C181.985 600.596 182.627 609.367 186.418 624.901C188.089 631.149 184.249 637.478 177.92 638.94M161.568 591.424C161.568 575.457 150.805 563.827 136.235 563.827C121.666 563.827 110.887 575.457 110.887 591.424C110.887 607.391 121.489 619.198 136.235 619.198C150.982 619.198 161.568 607.568 161.568 591.424ZM514.613 638.972C508.268 640.466 501.923 636.643 500.269 630.41C500.237 630.33 500.22 630.218 500.204 630.121C499.61 630.603 499.016 631.069 498.437 631.487C491.145 636.515 482.293 639.293 472.928 639.293C460.078 639.293 448.447 634.266 439.95 624.884C431.966 616.21 427.452 604.227 427.452 591.376C427.452 578.525 431.95 566.718 439.95 558.044C448.447 548.663 460.094 543.635 472.928 543.635C482.293 543.635 491.161 546.414 498.437 551.458C499.482 546.944 503.481 543.635 508.333 543.635C513.907 543.635 518.404 548.149 518.404 553.707V592.95C518.678 600.596 519.32 609.367 523.111 624.901C524.798 631.149 520.959 637.478 514.613 638.94M498.277 591.424C498.277 575.457 487.514 563.827 472.928 563.827C458.343 563.827 447.58 575.457 447.58 591.424C447.58 607.391 458.182 619.198 472.928 619.198C487.675 619.198 498.277 607.568 498.277 591.424ZM365.527 544.197C357.527 544.197 350.235 546.574 344.163 550.687C341.705 545.916 336.227 543.217 330.749 544.518C324.42 546.012 320.581 552.341 322.268 558.59C325.175 570.477 326.653 579.344 326.653 585.673V629.768C326.653 635.326 331.167 639.84 336.886 639.84C342.604 639.84 346.958 635.326 346.958 629.768V585.689C346.958 575.457 352.692 564.341 365.527 564.341C378.362 564.341 384.097 575.457 384.097 585.689V629.784C384.097 635.342 388.611 639.856 394.169 639.856C399.727 639.856 404.401 635.342 404.401 629.784V585.689C404.401 562.092 387.566 544.197 365.511 544.197" fill="#202226"/>
<path d="M510.984 196.966H337.095C288.101 196.034 255.717 243.084 268.198 286.263C270.174 293.09 273.258 299.805 277.58 306.23L371.985 452.2C401.366 495.877 466.6 492.793 491.772 446.578L571.254 300.576C596.426 254.393 563.608 197.946 510.984 196.966ZM517.12 310.648C504.542 333.731 475.628 342.245 452.544 329.699C429.461 317.105 420.947 288.191 433.509 265.124C446.087 242.04 475.001 233.527 498.085 246.072C521.2 258.666 529.714 287.581 517.12 310.648Z" fill="#FFDA1B"/>
<path d="M411.84 196.966C409.864 190.123 406.78 183.376 402.443 176.935L308.037 30.9647C278.657 -12.6801 213.422 -9.62798 188.251 36.587L108.768 182.589C83.5963 228.804 116.414 285.252 169.039 286.264H342.927C391.905 287.163 424.289 240.161 411.84 196.966ZM246.497 218.074C233.919 241.157 205.005 249.671 181.922 237.125C158.838 224.531 150.324 195.617 162.886 172.549C175.464 149.466 204.378 140.952 227.462 153.498C250.577 166.092 259.091 195.006 246.497 218.074Z" fill="#447FE0"/>
<path d="M411.839 196.966H337.095C288.101 196.034 255.717 243.084 268.198 286.263H342.926C391.904 287.163 424.288 240.161 411.839 196.966Z" fill="#2F7417"/>
</svg>
