<svg width="762" height="218" viewBox="0 0 762 218" fill="none" xmlns="http://www.w3.org/2000/svg">
<path d="M213.58 15.64C183.92 -8.20003 140.41 -3.00002 116.46 26.55L84 66.62C82.0501 69.0258 80.8217 71.9348 80.457 75.0101C80.0924 78.0853 80.6065 81.2009 81.9397 83.9961C83.2729 86.7912 85.3706 89.1514 87.99 90.8033C90.6094 92.4553 93.6432 93.3313 96.74 93.33H191.7C198.093 93.3212 204.294 95.5104 209.264 99.5304C214.235 103.55 217.672 109.157 219 115.41L219.57 118.1L223.99 112.64C229.692 105.595 233.947 97.4924 236.511 88.7986C239.075 80.1048 239.897 70.9903 238.929 61.9781C237.962 52.9659 235.225 44.2333 230.875 36.2815C226.525 28.3296 220.647 21.315 213.58 15.64Z" fill="#FF5577"/>
<path d="M26.5101 200.53C56.1701 224.38 99.6801 219.19 123.63 189.62L156.08 149.55C158.03 147.144 159.258 144.235 159.623 141.16C159.988 138.085 159.474 134.969 158.14 132.174C156.807 129.379 154.709 127.019 152.09 125.367C149.471 123.715 146.437 122.839 143.34 122.84H48.4001C42.0143 122.84 35.8225 120.646 30.8603 116.627C25.8981 112.608 22.4667 107.006 21.1401 100.76L20.5701 98.07L16.1501 103.53C10.4449 110.572 6.18635 118.672 3.61866 127.364C1.05097 136.056 0.224693 145.169 1.18722 154.181C2.14974 163.193 4.88213 171.927 9.22764 179.88C13.5731 187.834 19.4463 194.851 26.5101 200.53Z" fill="#CCCCCF"/>
<path d="M520.67 25.07V78C520.67 94.6 532.93 106.85 554.6 106.85C575.01 106.85 588.32 95.71 588.32 77.54V25.07H576.48V74.15C576.48 91.38 569.11 96.94 555.73 96.94C541.73 96.94 536.19 89.82 536.19 73.8V25.07H520.67Z" fill="#808088"/>
<path d="M302.75 44.24C302.75 37.66 307.27 33.81 316.07 33.81C325.66 33.81 331.97 36.48 339.82 41.61V28.61C332.27 25.4828 324.172 23.8885 316 23.92C298.48 23.92 286 32.55 286 45.54C286 72.15 326.85 67.85 326.85 85.73C326.85 92.83 321.64 96.83 314.14 96.83C303.08 96.83 293.21 91.3 286.14 85.44V98.79C294.14 104.53 304.4 106.72 315.14 106.72C332.35 106.72 343.45 97.72 343.45 84.24C343.6 55.8 302.75 61.4 302.75 44.24Z" fill="#808088"/>
<path d="M672.81 48.75C672.81 31.22 658.1 25.07 643.91 25.07H608V105.57H623.52V73.49H638.33L656.65 105.57H674.53L655.17 71.62C663.85 69.29 672.81 62.23 672.81 48.75ZM623.56 35H638.77C649.16 35 656.13 39.71 656.13 49.46C656.13 59.86 647.84 63.46 638.77 63.46H623.56V35Z" fill="#808088"/>
<path d="M489.53 105.57H508.94L475.33 60.78L507.02 25.07H493.79L454.37 69.5V25.07H438.85V105.57H454.37V84.39L464.81 72.63L489.53 105.57Z" fill="#808088"/>
<path d="M411.16 105.57H427.81L396.36 24.49H380.59L349.14 105.56H361.84L370.11 84.25H402.89L411.16 105.57ZM373.95 74.37L386.5 42L399.06 74.37H373.95Z" fill="#808088"/>
<path d="M744.64 105.57H761.29L729.84 24.49H714.07L682.62 105.56H695.32L703.59 84.25H736.37L744.64 105.57ZM707.43 74.37L720 42L732.56 74.37H707.43Z" fill="#808088"/>
<path d="M306.32 156.77H291.6V216.57H306.32V156.77Z" fill="#808088"/>
<path d="M298.96 149.87C303.787 149.87 307.7 145.957 307.7 141.13C307.7 136.303 303.787 132.39 298.96 132.39C294.133 132.39 290.22 136.303 290.22 141.13C290.22 145.957 294.133 149.87 298.96 149.87Z" fill="#808088"/>
<path d="M462.81 155.5C444.81 155.5 434.23 168.26 434.23 186.5V187.08C434.23 206.08 446.23 217.78 464.79 217.78C472.525 217.883 480.138 215.849 486.79 211.9V201.72C479.9 206.84 472.98 209.32 465 209.32C456.41 209.32 450.1 203.39 450.1 189.9H490.34C490.35 168.5 482.23 155.5 462.81 155.5ZM450.27 181.39C450.74 170.92 454 164 462.81 164C471.17 164 474.22 171.63 474.48 181.38L450.27 181.39Z" fill="#808088"/>
<path d="M643.77 155.5C625.77 155.5 615.19 168.26 615.19 186.5V187.08C615.19 206.08 627.19 217.78 645.75 217.78C653.485 217.883 661.098 215.849 667.75 211.9V201.72C660.86 206.84 653.94 209.32 645.96 209.32C637.37 209.32 631.06 203.39 631.06 189.9H671.3C671.3 168.5 663.18 155.5 643.77 155.5ZM631.23 181.39C631.7 170.92 635 164 643.77 164C652.13 164 655.18 171.63 655.44 181.38L631.23 181.39Z" fill="#808088"/>
<path d="M408.13 200.39V165.28H425.47V156.77H408.13V139.06H393.41V156.77H385.41V165.28H393.41V201.28C393.41 210.97 401.41 217.81 413.14 217.81C418.47 217.81 422.37 216.81 425.61 214.66V207.2C422.679 208.311 419.565 208.864 416.43 208.83C411.47 208.86 408.13 205.53 408.13 200.39Z" fill="#808088"/>
<path d="M356.87 155.5C348.94 155.5 340.87 160.8 337.32 165.62V156.77H322.6V216.56H337.32V174.68C340.62 168.54 346.12 165.54 350.75 165.54C351.905 165.521 353.052 165.733 354.124 166.164C355.196 166.594 356.171 167.234 356.993 168.046C357.814 168.858 358.465 169.826 358.908 170.893C359.35 171.96 359.575 173.105 359.57 174.26V216.57H374.29V171C374.29 163.68 369.2 155.5 356.87 155.5Z" fill="#808088"/>
<path d="M585.21 155.5C577.28 155.5 569.21 160.8 565.66 165.62V156.77H550.94V216.56H565.66V174.68C568.96 168.54 574.46 165.54 579.09 165.54C580.245 165.521 581.392 165.733 582.464 166.164C583.536 166.594 584.511 167.234 585.333 168.046C586.154 168.858 586.805 169.826 587.248 170.893C587.69 171.96 587.915 173.105 587.91 174.26V216.57H602.63V171C602.63 163.68 597.54 155.5 585.21 155.5Z" fill="#808088"/>
<path d="M518.35 167.33V156.77H503.63V216.57H518.35V176.44C524.43 169.83 531.51 167.35 540.57 167.35V156.19C536.25 156.162 531.985 157.157 528.123 159.093C524.261 161.029 520.912 163.852 518.35 167.33Z" fill="#808088"/>
<path d="M702.39 200.39V165.28H719.73V156.77H702.39V139.06H687.67V156.77H679.67V165.28H687.67V201.28C687.67 210.97 695.67 217.81 707.4 217.81C712.73 217.81 716.63 216.81 719.87 214.66V207.2C716.939 208.311 713.825 208.864 710.69 208.83C705.74 208.86 702.39 205.53 702.39 200.39Z" fill="#808088"/>
</svg>
