<svg width="400" height="401" viewBox="0 0 400 401" fill="none" xmlns="http://www.w3.org/2000/svg">
<rect width="400" height="400" fill="white"/>
<path opacity="0.7" d="M62.892 138.44C56.172 138.44 49.732 137.56 43.572 135.8C37.412 133.96 32.452 131.6 28.692 128.72L35.292 114.08C38.892 116.64 43.132 118.76 48.012 120.44C52.972 122.04 57.972 122.84 63.012 122.84C66.852 122.84 69.932 122.48 72.252 121.76C74.652 120.96 76.412 119.88 77.532 118.52C78.652 117.16 79.212 115.6 79.212 113.84C79.212 111.6 78.332 109.84 76.572 108.56C74.812 107.2 72.492 106.12 69.612 105.32C66.732 104.44 63.532 103.64 60.012 102.92C56.572 102.12 53.092 101.16 49.572 100.04C46.132 98.92 42.972 97.48 40.092 95.72C37.212 93.96 34.852 91.64 33.012 88.76C31.252 85.88 30.372 82.2 30.372 77.72C30.372 72.92 31.652 68.56 34.212 64.64C36.852 60.64 40.772 57.48 45.972 55.16C51.252 52.76 57.852 51.56 65.772 51.56C71.052 51.56 76.252 52.2 81.372 53.48C86.492 54.68 91.012 56.52 94.932 59L88.932 73.76C85.012 71.52 81.092 69.88 77.172 68.84C73.252 67.72 69.412 67.16 65.652 67.16C61.892 67.16 58.812 67.6 56.412 68.48C54.012 69.36 52.292 70.52 51.252 71.96C50.212 73.32 49.692 74.92 49.692 76.76C49.692 78.92 50.572 80.68 52.332 82.04C54.092 83.32 56.412 84.36 59.292 85.16C62.172 85.96 65.332 86.76 68.772 87.56C72.292 88.36 75.772 89.28 79.212 90.32C82.732 91.36 85.932 92.76 88.812 94.52C91.692 96.28 94.012 98.6 95.772 101.48C97.612 104.36 98.532 108 98.532 112.4C98.532 117.12 97.212 121.44 94.572 125.36C91.932 129.28 87.972 132.44 82.692 134.84C77.492 137.24 70.892 138.44 62.892 138.44ZM152.615 138.44C145.975 138.44 139.815 137.36 134.135 135.2C128.535 133.04 123.655 130 119.495 126.08C115.415 122.16 112.215 117.56 109.895 112.28C107.655 107 106.535 101.24 106.535 95C106.535 88.76 107.655 83 109.895 77.72C112.215 72.44 115.455 67.84 119.615 63.92C123.775 60 128.655 56.96 134.255 54.8C139.855 52.64 145.935 51.56 152.495 51.56C159.135 51.56 165.215 52.64 170.735 54.8C176.335 56.96 181.175 60 185.255 63.92C189.415 67.84 192.655 72.44 194.975 77.72C197.295 82.92 198.455 88.68 198.455 95C198.455 101.24 197.295 107.04 194.975 112.4C192.655 117.68 189.415 122.28 185.255 126.2C181.175 130.04 176.335 133.04 170.735 135.2C165.215 137.36 159.175 138.44 152.615 138.44ZM152.495 121.88C156.255 121.88 159.695 121.24 162.815 119.96C166.015 118.68 168.815 116.84 171.215 114.44C173.615 112.04 175.455 109.2 176.735 105.92C178.095 102.64 178.775 99 178.775 95C178.775 91 178.095 87.36 176.735 84.08C175.455 80.8 173.615 77.96 171.215 75.56C168.895 73.16 166.135 71.32 162.935 70.04C159.735 68.76 156.255 68.12 152.495 68.12C148.735 68.12 145.255 68.76 142.055 70.04C138.935 71.32 136.175 73.16 133.775 75.56C131.375 77.96 129.495 80.8 128.135 84.08C126.855 87.36 126.215 91 126.215 95C126.215 98.92 126.855 102.56 128.135 105.92C129.495 109.2 131.335 112.04 133.655 114.44C136.055 116.84 138.855 118.68 142.055 119.96C145.255 121.24 148.735 121.88 152.495 121.88ZM213.065 137V53H232.505V121.16H274.625V137H213.065ZM285.487 137V53H323.647C332.767 53 340.807 54.76 347.767 58.28C354.727 61.72 360.167 66.56 364.087 72.8C368.007 79.04 369.967 86.44 369.967 95C369.967 103.48 368.007 110.88 364.087 117.2C360.167 123.44 354.727 128.32 347.767 131.84C340.807 135.28 332.767 137 323.647 137H285.487ZM304.927 121.04H322.687C328.287 121.04 333.127 120 337.207 117.92C341.367 115.76 344.567 112.72 346.807 108.8C349.127 104.88 350.287 100.28 350.287 95C350.287 89.64 349.127 85.04 346.807 81.2C344.567 77.28 341.367 74.28 337.207 72.2C333.127 70.04 328.287 68.96 322.687 68.96H304.927V121.04ZM116.463 258.44C109.823 258.44 103.663 257.36 97.9831 255.2C92.3831 253.04 87.5031 250 83.3431 246.08C79.2631 242.16 76.0631 237.56 73.7431 232.28C71.5031 227 70.3831 221.24 70.3831 215C70.3831 208.76 71.5031 203 73.7431 197.72C76.0631 192.44 79.3031 187.84 83.4631 183.92C87.6231 180 92.5031 176.96 98.1031 174.8C103.703 172.64 109.783 171.56 116.343 171.56C122.983 171.56 129.063 172.64 134.583 174.8C140.183 176.96 145.023 180 149.103 183.92C153.263 187.84 156.503 192.44 158.823 197.72C161.143 202.92 162.303 208.68 162.303 215C162.303 221.24 161.143 227.04 158.823 232.4C156.503 237.68 153.263 242.28 149.103 246.2C145.023 250.04 140.183 253.04 134.583 255.2C129.063 257.36 123.023 258.44 116.463 258.44ZM116.343 241.88C120.103 241.88 123.543 241.24 126.663 239.96C129.863 238.68 132.663 236.84 135.063 234.44C137.463 232.04 139.303 229.2 140.583 225.92C141.943 222.64 142.623 219 142.623 215C142.623 211 141.943 207.36 140.583 204.08C139.303 200.8 137.463 197.96 135.063 195.56C132.743 193.16 129.983 191.32 126.783 190.04C123.583 188.76 120.103 188.12 116.343 188.12C112.583 188.12 109.103 188.76 105.903 190.04C102.783 191.32 100.023 193.16 97.6231 195.56C95.2231 197.96 93.3431 200.8 91.9831 204.08C90.7031 207.36 90.0631 211 90.0631 215C90.0631 218.92 90.7031 222.56 91.9831 225.92C93.3431 229.2 95.1831 232.04 97.5031 234.44C99.9031 236.84 102.703 238.68 105.903 239.96C109.103 241.24 112.583 241.88 116.343 241.88ZM214.233 258.44C202.313 258.44 192.993 255.12 186.273 248.48C179.553 241.84 176.193 232.36 176.193 220.04V173H195.633V219.32C195.633 227.32 197.273 233.08 200.553 236.6C203.833 240.12 208.433 241.88 214.353 241.88C220.273 241.88 224.873 240.12 228.153 236.6C231.433 233.08 233.073 227.32 233.073 219.32V173H252.273V220.04C252.273 232.36 248.913 241.84 242.193 248.48C235.473 255.12 226.153 258.44 214.233 258.44ZM287.477 257V188.84H260.597V173H333.797V188.84H306.917V257H287.477Z" fill="#FF5C00" fill-opacity="0.5"/>
<path d="M79.05 324.6V328.95H95.9V324.6H79.05ZM79.05 317.6V321.9H95.9V317.6H79.05ZM75.65 314.75H99.45V331.8H75.65V314.75ZM80.15 330.35L83.6 331.25C81.15 337.3 77.05 342.75 72.6 346.3C72.05 345.6 70.65 344.35 69.85 343.75C74.25 340.6 78.05 335.7 80.15 330.35ZM79.75 335.6H99.5V338.8H77.85L79.75 335.6ZM98.4 335.6H102C102 335.6 101.95 336.75 101.85 337.25C101.1 350.8 100.3 355.7 98.75 357.45C97.85 358.5 96.8 358.8 95.35 358.95C94 359.05 91.55 359 89.05 358.85C89 357.9 88.6 356.55 88.05 355.65C90.55 355.9 92.95 355.9 93.9 355.9C94.75 355.9 95.25 355.8 95.7 355.3C96.95 354.1 97.7 349.2 98.4 336.25V335.6ZM88.55 341L90.95 343.4C87.5 345 82.55 346.4 78.45 347.3C78.3 346.65 77.8 345.6 77.45 344.9C81.4 343.85 86 342.4 88.55 341ZM76.1 340.65H79.4V349.9C79.4 351 79.65 351.25 81.6 351.25C82.4 351.25 87 351.25 88.15 351.25C89.6 351.25 89.85 350.8 90 347.65C90.7 348.2 92 348.65 93 348.9C92.6 353.2 91.6 354.25 88.5 354.25C87.65 354.25 82.15 354.25 81.25 354.25C77.1 354.25 76.1 353.4 76.1 349.9V340.65ZM56.35 339.6C60.4 338.6 66.5 336.8 72.4 335.1L72.85 338.45C67.4 340.15 61.65 341.95 57.2 343.3L56.35 339.6ZM57.2 323.1H72.6V326.6H57.2V323.1ZM64 313.05H67.6V354.45C67.6 356.6 67.15 357.65 65.85 358.25C64.55 358.9 62.5 359 59.25 359C59.1 358.05 58.6 356.4 58.1 355.35C60.35 355.45 62.45 355.45 63.05 355.4C63.7 355.4 64 355.2 64 354.45V313.05ZM151.5 315.55L154.15 313.65C156.75 315.7 159.75 318.5 161.2 320.55L158.35 322.6C157 320.6 154.05 317.6 151.5 315.55ZM117.65 324.1H162.5V327.25H117.65V324.1ZM119.9 317.05H141.65V320.05H119.9V317.05ZM119.05 330.6H142.55V333.4H119.05V330.6ZM118.25 351.15H142.75V354.05H118.25V351.15ZM129 313H132.6V326.75H129V313ZM123.05 343.3V346.15H138.55V343.3H123.05ZM123.05 338.35V341.15H138.55V338.35H123.05ZM120.2 336.15H141.45V348.35H120.2V336.15ZM129.25 337.45H132.15V347.55H132.4V359.05H129.05V347.55H129.25V337.45ZM129 327.4H132.45V336.9H129V327.4ZM144.4 313.1H148.2C147.95 336.95 151.7 355.35 157.9 355.35C159.25 355.35 159.8 352.95 160.1 346.8C160.9 347.6 162.2 348.35 163.15 348.7C162.55 356.65 161.25 359 157.55 359C147.75 359 144.55 337.95 144.4 313.1ZM156.9 330L160.25 331.05C156.55 342.7 150.05 352.9 140.9 359.05C140.35 358.15 139.2 357 138.25 356.25C147.1 350.75 153.5 341 156.9 330ZM180.7 315.85L182.6 313.3C185.35 314.2 188.9 315.85 190.7 317.1L188.7 320C186.95 318.75 183.45 316.95 180.7 315.85ZM176.95 324.2L178.8 321.55C181.55 322.4 185.15 323.85 187 324.95L185.15 327.9C183.3 326.75 179.75 325.15 176.95 324.2ZM178.4 340.1C181.05 337.7 185 333.6 188.25 329.85L190.25 332.35C187.4 335.85 184.1 339.75 181 343L178.4 340.1ZM197.85 341.65H201.7V359.05H197.85V341.65ZM177.6 345.8H222.55V349.2H177.6V345.8ZM197.4 312.8L201 313.85C198.4 319.4 194.25 324.75 190.15 328.25C189.55 327.55 188.1 326.25 187.2 325.65C191.3 322.55 195.15 317.75 197.4 312.8ZM193.55 321.7L197.2 318.6V339.35H193.55V321.7ZM195.8 318.5H220.3V321.6H193.95L195.8 318.5ZM193.55 338.25H221.65V341.35H193.55V338.25ZM195.05 325.25H218.8V328.05H195.05V325.25ZM195.05 331.65H218.95V334.5H195.05V331.65ZM205.3 319.7H208.9V339.45H205.3V319.7ZM207.95 313.05L212 313.8C210.55 316.3 208.95 318.95 207.65 320.7L204.55 319.9C205.8 318 207.2 315.05 207.95 313.05ZM258.5 313.45H262.05V325.15H258.5V313.45ZM271.4 313.45H275V325.15H271.4V313.45ZM268.05 334.95H271.15V358.75H268.05V334.95ZM250.4 317.7H282.85V321H250.4V317.7ZM259.65 341.1H279.55V343.8H259.65V341.1ZM259.65 348.1H279.55V350.75H259.65V348.1ZM252.9 326.9H283.05V330.2H252.9V326.9ZM251.25 326.9H254.75V337.7C254.75 343.95 254.05 352.95 250.1 359C249.55 358.35 248.1 357.15 247.3 356.7C250.9 351.1 251.25 343.3 251.25 337.65V326.9ZM257.75 333.9H280.05V336.75H261V359H257.75V333.9ZM278.5 333.9H281.8V355.35C281.8 357.05 281.5 357.95 280.3 358.5C279.1 359 277.2 359.05 274.25 359.05C274.1 358.2 273.75 356.95 273.3 356.1C275.45 356.15 277.2 356.15 277.75 356.1C278.35 356.05 278.5 355.9 278.5 355.35V333.9ZM246.6 313.3L250.1 314.25C247.25 322.9 242.8 331.7 237.85 337.55C237.5 336.65 236.5 334.65 235.85 333.7C240.25 328.7 244.2 321 246.6 313.3ZM242.6 325.55L246.05 322.1L246.15 322.2V359H242.6V325.55ZM299.8 321.95H340.1V345.5H336.2V325.65H303.55V345.75H299.8V321.95ZM301.8 338.95H338.45V342.6H301.8V338.95ZM317.9 313H321.8V358.95H317.9V313Z" fill="black" fill-opacity="0.3"/>
</svg>
