<svg width="400" height="400" viewBox="0 0 400 400" fill="none" xmlns="http://www.w3.org/2000/svg">
<rect width="400" height="400" fill="white"/>
<path opacity="0.7" d="M55.8015 198.72C52.4415 198.72 49.2215 198.28 46.1415 197.4C43.0615 196.48 40.5815 195.3 38.7015 193.86L42.0015 186.54C43.8015 187.82 45.9215 188.88 48.3615 189.72C50.8415 190.52 53.3415 190.92 55.8615 190.92C57.7815 190.92 59.3215 190.74 60.4815 190.38C61.6815 189.98 62.5615 189.44 63.1215 188.76C63.6815 188.08 63.9615 187.3 63.9615 186.42C63.9615 185.3 63.5215 184.42 62.6415 183.78C61.7615 183.1 60.6015 182.56 59.1615 182.16C57.7215 181.72 56.1215 181.32 54.3615 180.96C52.6415 180.56 50.9015 180.08 49.1415 179.52C47.4215 178.96 45.8415 178.24 44.4015 177.36C42.9615 176.48 41.7815 175.32 40.8615 173.88C39.9815 172.44 39.5415 170.6 39.5415 168.36C39.5415 165.96 40.1815 163.78 41.4615 161.82C42.7815 159.82 44.7415 158.24 47.3415 157.08C49.9815 155.88 53.2815 155.28 57.2415 155.28C59.8815 155.28 62.4815 155.6 65.0415 156.24C67.6015 156.84 69.8615 157.76 71.8215 159L68.8215 166.38C66.8615 165.26 64.9015 164.44 62.9415 163.92C60.9815 163.36 59.0615 163.08 57.1815 163.08C55.3015 163.08 53.7615 163.3 52.5615 163.74C51.3615 164.18 50.5015 164.76 49.9815 165.48C49.4615 166.16 49.2015 166.96 49.2015 167.88C49.2015 168.96 49.6415 169.84 50.5215 170.52C51.4015 171.16 52.5615 171.68 54.0015 172.08C55.4415 172.48 57.0215 172.88 58.7415 173.28C60.5015 173.68 62.2415 174.14 63.9615 174.66C65.7215 175.18 67.3215 175.88 68.7615 176.76C70.2015 177.64 71.3615 178.8 72.2415 180.24C73.1615 181.68 73.6215 183.5 73.6215 185.7C73.6215 188.06 72.9615 190.22 71.6415 192.18C70.3215 194.14 68.3415 195.72 65.7015 196.92C63.1015 198.12 59.8015 198.72 55.8015 198.72ZM100.663 198.72C97.3432 198.72 94.2632 198.18 91.4232 197.1C88.6232 196.02 86.1832 194.5 84.1032 192.54C82.0632 190.58 80.4632 188.28 79.3032 185.64C78.1832 183 77.6232 180.12 77.6232 177C77.6232 173.88 78.1832 171 79.3032 168.36C80.4632 165.72 82.0832 163.42 84.1632 161.46C86.2432 159.5 88.6832 157.98 91.4832 156.9C94.2832 155.82 97.3232 155.28 100.603 155.28C103.923 155.28 106.963 155.82 109.723 156.9C112.523 157.98 114.943 159.5 116.983 161.46C119.063 163.42 120.683 165.72 121.843 168.36C123.003 170.96 123.583 173.84 123.583 177C123.583 180.12 123.003 183.02 121.843 185.7C120.683 188.34 119.063 190.64 116.983 192.6C114.943 194.52 112.523 196.02 109.723 197.1C106.963 198.18 103.943 198.72 100.663 198.72ZM100.603 190.44C102.483 190.44 104.203 190.12 105.763 189.48C107.363 188.84 108.763 187.92 109.963 186.72C111.163 185.52 112.083 184.1 112.723 182.46C113.403 180.82 113.743 179 113.743 177C113.743 175 113.403 173.18 112.723 171.54C112.083 169.9 111.163 168.48 109.963 167.28C108.803 166.08 107.423 165.16 105.823 164.52C104.223 163.88 102.483 163.56 100.603 163.56C98.7232 163.56 96.9832 163.88 95.3832 164.52C93.8232 165.16 92.4432 166.08 91.2432 167.28C90.0432 168.48 89.1032 169.9 88.4232 171.54C87.7832 173.18 87.4632 175 87.4632 177C87.4632 178.96 87.7832 180.78 88.4232 182.46C89.1032 184.1 90.0232 185.52 91.1832 186.72C92.3832 187.92 93.7832 188.84 95.3832 189.48C96.9832 190.12 98.7232 190.44 100.603 190.44ZM130.888 198V156H140.608V190.08H161.668V198H130.888ZM167.099 198V156H186.179C190.739 156 194.759 156.88 198.239 158.64C201.719 160.36 204.439 162.78 206.399 165.9C208.359 169.02 209.339 172.72 209.339 177C209.339 181.24 208.359 184.94 206.399 188.1C204.439 191.22 201.719 193.66 198.239 195.42C194.759 197.14 190.739 198 186.179 198H167.099ZM176.819 190.02H185.699C188.499 190.02 190.919 189.5 192.959 188.46C195.039 187.38 196.639 185.86 197.759 183.9C198.919 181.94 199.499 179.64 199.499 177C199.499 174.32 198.919 172.02 197.759 170.1C196.639 168.14 195.039 166.64 192.959 165.6C190.919 164.52 188.499 163.98 185.699 163.98H176.819V190.02ZM254.062 198.72C250.742 198.72 247.662 198.18 244.822 197.1C242.022 196.02 239.582 194.5 237.502 192.54C235.462 190.58 233.862 188.28 232.702 185.64C231.582 183 231.022 180.12 231.022 177C231.022 173.88 231.582 171 232.702 168.36C233.862 165.72 235.482 163.42 237.562 161.46C239.642 159.5 242.082 157.98 244.882 156.9C247.682 155.82 250.722 155.28 254.002 155.28C257.322 155.28 260.362 155.82 263.122 156.9C265.922 157.98 268.342 159.5 270.382 161.46C272.462 163.42 274.082 165.72 275.242 168.36C276.402 170.96 276.982 173.84 276.982 177C276.982 180.12 276.402 183.02 275.242 185.7C274.082 188.34 272.462 190.64 270.382 192.6C268.342 194.52 265.922 196.02 263.122 197.1C260.362 198.18 257.342 198.72 254.062 198.72ZM254.002 190.44C255.882 190.44 257.602 190.12 259.162 189.48C260.762 188.84 262.162 187.92 263.362 186.72C264.562 185.52 265.482 184.1 266.122 182.46C266.802 180.82 267.142 179 267.142 177C267.142 175 266.802 173.18 266.122 171.54C265.482 169.9 264.562 168.48 263.362 167.28C262.202 166.08 260.822 165.16 259.222 164.52C257.622 163.88 255.882 163.56 254.002 163.56C252.122 163.56 250.382 163.88 248.782 164.52C247.222 165.16 245.842 166.08 244.642 167.28C243.442 168.48 242.502 169.9 241.822 171.54C241.182 173.18 240.862 175 240.862 177C240.862 178.96 241.182 180.78 241.822 182.46C242.502 184.1 243.422 185.52 244.582 186.72C245.782 187.92 247.182 188.84 248.782 189.48C250.382 190.12 252.122 190.44 254.002 190.44ZM302.947 198.72C296.987 198.72 292.327 197.06 288.967 193.74C285.607 190.42 283.927 185.68 283.927 179.52V156H293.647V179.16C293.647 183.16 294.467 186.04 296.107 187.8C297.747 189.56 300.047 190.44 303.007 190.44C305.967 190.44 308.267 189.56 309.907 187.8C311.547 186.04 312.367 183.16 312.367 179.16V156H321.967V179.52C321.967 185.68 320.287 190.42 316.927 193.74C313.567 197.06 308.907 198.72 302.947 198.72ZM339.569 198V163.92H326.129V156H362.729V163.92H349.289V198H339.569Z" fill="#FF5C00" fill-opacity="0.5"/>
<path d="M140.025 241.8V243.975H148.45V241.8H140.025ZM140.025 238.3V240.45H148.45V238.3H140.025ZM138.325 236.875H150.225V245.4H138.325V236.875ZM140.575 244.675L142.3 245.125C141.075 248.15 139.025 250.875 136.8 252.65C136.525 252.3 135.825 251.675 135.425 251.375C137.625 249.8 139.525 247.35 140.575 244.675ZM140.375 247.3H150.25V248.9H139.425L140.375 247.3ZM149.7 247.3H151.5C151.5 247.3 151.475 247.875 151.425 248.125C151.05 254.9 150.65 257.35 149.875 258.225C149.425 258.75 148.9 258.9 148.175 258.975C147.5 259.025 146.275 259 145.025 258.925C145 258.45 144.8 257.775 144.525 257.325C145.775 257.45 146.975 257.45 147.45 257.45C147.875 257.45 148.125 257.4 148.35 257.15C148.975 256.55 149.35 254.1 149.7 247.625V247.3ZM144.775 250L145.975 251.2C144.25 252 141.775 252.7 139.725 253.15C139.65 252.825 139.4 252.3 139.225 251.95C141.2 251.425 143.5 250.7 144.775 250ZM138.55 249.825H140.2V254.45C140.2 255 140.325 255.125 141.3 255.125C141.7 255.125 144 255.125 144.575 255.125C145.3 255.125 145.425 254.9 145.5 253.325C145.85 253.6 146.5 253.825 147 253.95C146.8 256.1 146.3 256.625 144.75 256.625C144.325 256.625 141.575 256.625 141.125 256.625C139.05 256.625 138.55 256.2 138.55 254.45V249.825ZM128.675 249.3C130.7 248.8 133.75 247.9 136.7 247.05L136.925 248.725C134.2 249.575 131.325 250.475 129.1 251.15L128.675 249.3ZM129.1 241.05H136.8V242.8H129.1V241.05ZM132.5 236.025H134.3V256.725C134.3 257.8 134.075 258.325 133.425 258.625C132.775 258.95 131.75 259 130.125 259C130.05 258.525 129.8 257.7 129.55 257.175C130.675 257.225 131.725 257.225 132.025 257.2C132.35 257.2 132.5 257.1 132.5 256.725V236.025ZM176.25 237.275L177.575 236.325C178.875 237.35 180.375 238.75 181.1 239.775L179.675 240.8C179 239.8 177.525 238.3 176.25 237.275ZM159.325 241.55H181.75V243.125H159.325V241.55ZM160.45 238.025H171.325V239.525H160.45V238.025ZM160.025 244.8H171.775V246.2H160.025V244.8ZM159.625 255.075H171.875V256.525H159.625V255.075ZM165 236H166.8V242.875H165V236ZM162.025 251.15V252.575H169.775V251.15H162.025ZM162.025 248.675V250.075H169.775V248.675H162.025ZM160.6 247.575H171.225V253.675H160.6V247.575ZM165.125 248.225H166.575V253.275H166.7V259.025H165.025V253.275H165.125V248.225ZM165 243.2H166.725V247.95H165V243.2ZM172.7 236.05H174.6C174.475 247.975 176.35 257.175 179.45 257.175C180.125 257.175 180.4 255.975 180.55 252.9C180.95 253.3 181.6 253.675 182.075 253.85C181.775 257.825 181.125 259 179.275 259C174.375 259 172.775 248.475 172.7 236.05ZM178.95 244.5L180.625 245.025C178.775 250.85 175.525 255.95 170.95 259.025C170.675 258.575 170.1 258 169.625 257.625C174.05 254.875 177.25 250 178.95 244.5ZM190.85 237.425L191.8 236.15C193.175 236.6 194.95 237.425 195.85 238.05L194.85 239.5C193.975 238.875 192.225 237.975 190.85 237.425ZM188.975 241.6L189.9 240.275C191.275 240.7 193.075 241.425 194 241.975L193.075 243.45C192.15 242.875 190.375 242.075 188.975 241.6ZM189.7 249.55C191.025 248.35 193 246.3 194.625 244.425L195.625 245.675C194.2 247.425 192.55 249.375 191 251L189.7 249.55ZM199.425 250.325H201.35V259.025H199.425V250.325ZM189.3 252.4H211.775V254.1H189.3V252.4ZM199.2 235.9L201 236.425C199.7 239.2 197.625 241.875 195.575 243.625C195.275 243.275 194.55 242.625 194.1 242.325C196.15 240.775 198.075 238.375 199.2 235.9ZM197.275 240.35L199.1 238.8V249.175H197.275V240.35ZM198.4 238.75H210.65V240.3H197.475L198.4 238.75ZM197.275 248.625H211.325V250.175H197.275V248.625ZM198.025 242.125H209.9V243.525H198.025V242.125ZM198.025 245.325H209.975V246.75H198.025V245.325ZM203.15 239.35H204.95V249.225H203.15V239.35ZM204.475 236.025L206.5 236.4C205.775 237.65 204.975 238.975 204.325 239.85L202.775 239.45C203.4 238.5 204.1 237.025 204.475 236.025ZM229.75 236.225H231.525V242.075H229.75V236.225ZM236.2 236.225H238V242.075H236.2V236.225ZM234.525 246.975H236.075V258.875H234.525V246.975ZM225.7 238.35H241.925V240H225.7V238.35ZM230.325 250.05H240.275V251.4H230.325V250.05ZM230.325 253.55H240.275V254.875H230.325V253.55ZM226.95 242.95H242.025V244.6H226.95V242.95ZM226.125 242.95H227.875V248.35C227.875 251.475 227.525 255.975 225.55 259C225.275 258.675 224.55 258.075 224.15 257.85C225.95 255.05 226.125 251.15 226.125 248.325V242.95ZM229.375 246.45H240.525V247.875H231V259H229.375V246.45ZM239.75 246.45H241.4V257.175C241.4 258.025 241.25 258.475 240.65 258.75C240.05 259 239.1 259.025 237.625 259.025C237.55 258.6 237.375 257.975 237.15 257.55C238.225 257.575 239.1 257.575 239.375 257.55C239.675 257.525 239.75 257.45 239.75 257.175V246.45ZM223.8 236.15L225.55 236.625C224.125 240.95 221.9 245.35 219.425 248.275C219.25 247.825 218.75 246.825 218.425 246.35C220.625 243.85 222.6 240 223.8 236.15ZM221.8 242.275L223.525 240.55L223.575 240.6V259H221.8V242.275ZM250.4 240.475H270.55V252.25H268.6V242.325H252.275V252.375H250.4V240.475ZM251.4 248.975H269.725V250.8H251.4V248.975ZM259.45 236H261.4V258.975H259.45V236Z" fill="black" fill-opacity="0.3"/>
</svg>
