<svg xmlns="http://www.w3.org/2000/svg" viewBox="0 0 85.25 86.41"><defs><style>.cls-1,.cls-3{fill:#e4007f;}.cls-1{stroke:#e4007f;stroke-width:0.25px;}.cls-2{fill:#00a0e9;}.cls-2,.cls-3{opacity:0.5;}</style></defs><g id="レイヤー_2" data-name="レイヤー 2"><g id="レイヤー_1-2" data-name="レイヤー 1"><path class="cls-1" d="M14.44,86.05V77h.2l6.3,7V77h.93v9.07h-.21l-6.25-6.87v6.87Z"/><path class="cls-1" d="M29.26,77.86V77h5.2v.88H32.34v8.19h-1V77.86Z"/><path class="cls-1" d="M42.54,77h1.88a12.28,12.28,0,0,1,2.14.12,2.46,2.46,0,0,1,1.37.79,2.24,2.24,0,0,1,.53,1.5,2.31,2.31,0,0,1-.37,1.31,2.24,2.24,0,0,1-1,.84,4.87,4.87,0,0,1-1.86.3l3.4,4.21H47.42L44,81.84h-.54v4.21h-.94Zm.94.88V81h1.63a4.36,4.36,0,0,0,1.4-.17,1.46,1.46,0,0,0,.71-.55,1.52,1.52,0,0,0,.26-.85,1.43,1.43,0,0,0-.26-.83,1.37,1.37,0,0,0-.68-.53,4.12,4.12,0,0,0-1.39-.17Z"/><path class="cls-1" d="M59.21,76.75a5,5,0,0,1,3.6,1.37,4.68,4.68,0,0,1,0,6.77,4.87,4.87,0,0,1-3.52,1.39,5,5,0,0,1-3.56-1.38,4.47,4.47,0,0,1-1.44-3.35,4.78,4.78,0,0,1,2.45-4.17A5,5,0,0,1,59.21,76.75Zm0,.87a4,4,0,0,0-2,.53,3.86,3.86,0,0,0-1.47,1.42,3.81,3.81,0,0,0-.53,2,3.62,3.62,0,0,0,1.17,2.73,3.92,3.92,0,0,0,2.82,1.12,4.2,4.2,0,0,0,2-.51,3.78,3.78,0,0,0,1.46-1.4,3.86,3.86,0,0,0,.53-2,3.74,3.74,0,0,0-.53-2,3.84,3.84,0,0,0-1.48-1.4A4.12,4.12,0,0,0,59.25,77.62Z"/><path class="cls-1" d="M71.84,77h.94v9.07h-.94Z"/><path class="cls-1" d="M79.58,84.37l.8-.47c.57,1,1.22,1.5,2,1.5a2,2,0,0,0,.9-.21,1.55,1.55,0,0,0,.64-.57,1.42,1.42,0,0,0,.22-.76,1.52,1.52,0,0,0-.32-.9,7.79,7.79,0,0,0-1.63-1.46,7.71,7.71,0,0,1-1.47-1.24,2.16,2.16,0,0,1-.5-1.39,2.13,2.13,0,0,1,.29-1.08,2.16,2.16,0,0,1,.84-.77,2.51,2.51,0,0,1,1.16-.27,2.55,2.55,0,0,1,1.25.31A4.24,4.24,0,0,1,85,78.23l-.78.56a3.49,3.49,0,0,0-.91-.89,1.55,1.55,0,0,0-.82-.22,1.29,1.29,0,0,0-.93.34,1.06,1.06,0,0,0-.36.82,1.42,1.42,0,0,0,.12.57,2.33,2.33,0,0,0,.47.61q.19.17,1.23.9a6.66,6.66,0,0,1,1.68,1.55,2.39,2.39,0,0,1,.46,1.37,2.25,2.25,0,0,1-.78,1.71,2.68,2.68,0,0,1-1.91.73,2.92,2.92,0,0,1-1.56-.44A4,4,0,0,1,79.58,84.37Z"/><path class="cls-1" d="M5.45,77v5.48a6.67,6.67,0,0,1-.1,1.41,2,2,0,0,1-.43.82,2,2,0,0,1-.72.54,2.27,2.27,0,0,1-.9.19,2.57,2.57,0,0,1-1.07-.25,1.86,1.86,0,0,1-.79-.6,1.8,1.8,0,0,1-.33-.9,9.73,9.73,0,0,1,0-1.21V77H.13v5.48A7,7,0,0,0,.3,84.37a2.56,2.56,0,0,0,1.09,1.39,3.56,3.56,0,0,0,2,.52,2.9,2.9,0,0,0,1.8-.55,2.67,2.67,0,0,0,1-1.31,6.23,6.23,0,0,0,.25-2V77Z"/><polygon class="cls-1" points="8.11 74.59 6.38 76.32 5.57 76.32 6.85 74.59 8.11 74.59"/><rect class="cls-2" x="28.47" y="0.07" width="14.17" height="70.87"/><path class="cls-2" d="M.13.07V56.76A14.16,14.16,0,0,0,14.3,70.93h0V.07Z"/><rect class="cls-3" x="14.3" y="0.07" width="14.17" height="70.87"/><path class="cls-3" d="M71,0H42.65V14.17H85.16A14.17,14.17,0,0,0,71,0Z"/><rect class="cls-3" x="42.64" y="28.35" width="42.52" height="14.17"/><rect class="cls-3" x="42.64" y="56.69" width="42.52" height="14.17"/><path class="cls-3" d="M71,.07h0V70.93H85.21V14.24A14.17,14.17,0,0,0,71,.07Z"/><path class="cls-2" d="M71,0H42.65V14.17H85.17A14.18,14.18,0,0,0,71,0Z"/><rect class="cls-2" x="56.82" width="14.17" height="70.87"/><path class="cls-2" d="M28.47,56.69H.13A14.17,14.17,0,0,0,14.3,70.87H42.65V56.69Z"/></g></g></svg>