<svg width="1049" height="800" viewBox="0 0 1049 800" fill="none" xmlns="http://www.w3.org/2000/svg">
<path d="M630.12 0C594.05 0 565.47 5.87 544.24 17.84C518.33 32.44 499.27 54.55 487.55 79.59C483.92 87.34 481.03 95.41 478.87 103.68H761.54C775.06 103.77 778.94 101.78 785.48 91L838.01 0.00999451H630.13L630.12 0Z" fill="url(#paint0_linear_37_32)"/>
<path d="M343.37 180.03C361.4 211.26 380.78 233.08 401.76 245.49C427.36 260.63 456.04 266.08 483.58 263.71C492.11 262.98 500.55 261.45 508.78 259.19C482.77 214.15 367.45 14.39 367.45 14.39C360.77 2.64 357.1 0.27 344.49 0H239.42C245.81 11.06 333.1 162.26 343.36 180.03H343.37Z" fill="url(#paint1_linear_37_32)"/>
<path d="M642.66 338.35C660.69 307.12 669.9 279.43 670.15 255.05C670.46 225.31 660.84 197.75 645.02 175.08C640.12 168.06 634.58 161.52 628.5 155.52C602.49 200.56 487.17 400.32 487.17 400.32C480.33 411.98 480.11 416.34 486.19 427.39L538.72 518.38C545.11 507.32 632.4 356.12 642.66 338.35Z" fill="url(#paint2_linear_37_32)"/>
<path d="M43.44 627C41.22 622.81 39.99 622.07 35.79 622.07H0.0100098L29.13 672.17C41.22 693.64 63.93 706.72 85.15 698.82L43.44 627Z" fill="black"/>
<path d="M73.79 738.31V794.82H109.33V746.94L182.63 622.07H141.41L73.79 738.31Z" fill="black"/>
<path d="M322.34 646.5V716.84C322.34 748.92 309.75 765.7 284.33 765.7C258.91 765.7 246.32 748.92 246.32 716.84V622.07H211.03V716.84C211.03 768.17 239.66 800.01 284.33 800.01C329 800.01 357.87 767.93 357.63 716.84L357.38 618.87C338.87 621.34 322.34 628.49 322.34 646.51V646.5Z" fill="black"/>
<path d="M520.04 642.8L488.94 697.09L457.1 640.82C449.94 628.72 441.31 622.06 425.51 622.06H403.3V794.81H436.86V668.94L477.09 743.22H501.03L541.26 668.94V794.81H574.82V622.06H556.31C538.29 622.06 527.68 629.47 520.03 642.79L520.04 642.8Z" fill="black"/>
<path d="M679.49 695.86L665.92 724H708.37C731.82 724 743.41 709.68 747.12 691.66H685.42C681.97 691.66 680.98 692.15 679.5 695.86H679.49Z" fill="black"/>
<path d="M622.97 794.82H751.8V762.24H656.54V654.4H751.8V622.07H622.97V794.82Z" fill="black"/>
<path d="M912.97 642.8L881.87 697.09L850.03 640.82C842.87 628.72 834.24 622.06 818.44 622.06H796.23V794.81H829.79V668.94L870.02 743.22H893.96L934.19 668.94V794.81H967.75V622.06H949.24C931.22 622.06 920.61 629.47 912.96 642.79L912.97 642.8Z" fill="black"/>
<path d="M1013.44 645.02V794.82H1048.98V618.11C1035.41 618.61 1013.44 624.28 1013.44 645.01V645.02Z" fill="black"/>
<defs>
<linearGradient id="paint0_linear_37_32" x1="834.4" y1="51.84" x2="484.05" y2="51.84" gradientUnits="userSpaceOnUse">
<stop stop-color="#FF5537"/>
<stop offset="0.24" stop-color="#FF8443"/>
<stop offset="0.47" stop-color="#FFAA4D"/>
<stop offset="0.67" stop-color="#FFC554"/>
<stop offset="0.86" stop-color="#FFD658"/>
<stop offset="1" stop-color="#FFDC5A"/>
</linearGradient>
<linearGradient id="paint1_linear_37_32" x1="286.133" y1="-22.8012" x2="461.308" y2="280.611" gradientUnits="userSpaceOnUse">
<stop stop-color="#FF5537"/>
<stop offset="0.24" stop-color="#FF8443"/>
<stop offset="0.47" stop-color="#FFAA4D"/>
<stop offset="0.67" stop-color="#FFC554"/>
<stop offset="0.86" stop-color="#FFD658"/>
<stop offset="1" stop-color="#FFDC5A"/>
</linearGradient>
<linearGradient id="paint2_linear_37_32" x1="495.633" y1="489.341" x2="670.808" y2="185.929" gradientUnits="userSpaceOnUse">
<stop stop-color="#FF5537"/>
<stop offset="0.24" stop-color="#FF8443"/>
<stop offset="0.47" stop-color="#FFAA4D"/>
<stop offset="0.67" stop-color="#FFC554"/>
<stop offset="0.86" stop-color="#FFD658"/>
<stop offset="1" stop-color="#FFDC5A"/>
</linearGradient>
</defs>
</svg>
